M48
; DRILL file {KiCad 7.0.10} date Sun Nov 23 12:01:12 2025
; FORMAT={-:-/ absolute / inch / decimal}
; #@! TF.CreationDate,2025-11-23T12:01:12-06:00
; #@! TF.GenerationSoftware,Kicad,Pcbnew,7.0.10
; #@! TF.FileFunction,Plated,1,2,PTH
FMAT,2
INCH
; #@! TA.AperFunction,Plated,PTH,ViaDrill
T1C0.0157
; #@! TA.AperFunction,Plated,PTH,ComponentDrill
T2C0.0236
; #@! TA.AperFunction,Plated,PTH,ComponentDrill
T3C0.0394
%
G90
G05
T1
X7.0433Y-2.9513
X7.0665Y-2.1224
X7.0988Y-2.0547
X7.126Y-2.9094
X7.1299Y-2.5798
X7.1811Y-3.2323
X7.185Y-2.3386
X7.185Y-2.4213
X7.1942Y-2.6691
X7.2126Y-2.1339
X7.2244Y-2.7795
X7.2609Y-2.9612
X7.2635Y-2.9219
X7.2736Y-2.3386
X7.2795Y-2.8622
X7.2972Y-3.0028
X7.3031Y-2.4724
X7.3031Y-2.5276
X7.3228Y-2.0833
X7.3258Y-1.936
X7.3357Y-2.9946
X7.3425Y-2.3543
X7.3465Y-2.5512
X7.3465Y-3.248
X7.3504Y-2.8214
X7.3632Y-2.0236
X7.3701Y-3.0039
X7.374Y-2.7321
X7.437Y-2.8701
X7.437Y-2.9055
X7.4409Y-2.9891
X7.4488Y-2.5906
X7.4488Y-3.252
X7.4532Y-2.9538
X7.4604Y-3.1616
X7.4606Y-2.4409
X7.4843Y-2.4724
X7.5039Y-2.6378
X7.5315Y-2.5669
X7.5472Y-2.5276
X7.5984Y-2.7717
X7.6063Y-2.2441
X7.626Y-1.9811
X7.664Y-3.0604
X7.8346Y-2.6102
X7.8465Y-2.2047
X7.8504Y-2.1496
X8.0866Y-1.9291
X8.0866Y-2.0433
X8.1772Y-1.8661
T3
X6.9449Y-1.9008
X6.9449Y-2.0008
X6.9449Y-2.1008
X6.9449Y-2.2008
X6.9449Y-2.3008
X6.9449Y-2.4008
X6.9449Y-2.5008
X6.9449Y-2.6008
X6.9449Y-2.7008
X6.9449Y-2.8008
X6.9449Y-2.9008
X6.9449Y-3.0008
X6.9449Y-3.1008
X6.9449Y-3.2008
X6.9449Y-3.3008
X6.9449Y-3.4008
X6.9449Y-3.5008
X6.9449Y-3.6008
X6.9449Y-3.7008
X6.9449Y-3.8008
X7.2583Y-3.8031
X7.3583Y-3.8031
X7.4583Y-3.8031
X7.7638Y-1.911
X7.7638Y-2.011
X7.7638Y-2.111
X7.7638Y-2.211
X7.7638Y-2.311
X7.7638Y-2.411
X7.7638Y-2.511
X7.7638Y-2.611
X7.7638Y-2.711
X7.7638Y-2.811
X7.7638Y-2.911
X7.7638Y-3.011
X7.7638Y-3.111
X7.7638Y-3.211
X7.7638Y-3.311
X7.7638Y-3.411
X7.7638Y-3.511
X7.7638Y-3.611
X7.7638Y-3.711
X7.7638Y-3.811
T2
G00X8.2827Y-1.822
M15
G01X8.326Y-1.822
M16
G05
G00X8.2827Y-2.1622
M15
G01X8.326Y-2.1622
M16
G05
G00X8.4571Y-1.822
M15
G01X8.4807Y-1.822
M16
G05
G00X8.4571Y-2.1622
M15
G01X8.4807Y-2.1622
M16
G05
M30
