%TF.GenerationSoftware,KiCad,Pcbnew,7.0.10*%
%TF.CreationDate,2025-11-23T12:01:09-06:00*%
%TF.ProjectId,FrankDevBoard,4672616e-6b44-4657-9642-6f6172642e6b,rev?*%
%TF.SameCoordinates,Original*%
%TF.FileFunction,Soldermask,Top*%
%TF.FilePolarity,Negative*%
%FSLAX46Y46*%
G04 Gerber Fmt 4.6, Leading zero omitted, Abs format (unit mm)*
G04 Created by KiCad (PCBNEW 7.0.10) date 2025-11-23 12:01:09*
%MOMM*%
%LPD*%
G01*
G04 APERTURE LIST*
G04 Aperture macros list*
%AMRoundRect*
0 Rectangle with rounded corners*
0 $1 Rounding radius*
0 $2 $3 $4 $5 $6 $7 $8 $9 X,Y pos of 4 corners*
0 Add a 4 corners polygon primitive as box body*
4,1,4,$2,$3,$4,$5,$6,$7,$8,$9,$2,$3,0*
0 Add four circle primitives for the rounded corners*
1,1,$1+$1,$2,$3*
1,1,$1+$1,$4,$5*
1,1,$1+$1,$6,$7*
1,1,$1+$1,$8,$9*
0 Add four rect primitives between the rounded corners*
20,1,$1+$1,$2,$3,$4,$5,0*
20,1,$1+$1,$4,$5,$6,$7,0*
20,1,$1+$1,$6,$7,$8,$9,0*
20,1,$1+$1,$8,$9,$2,$3,0*%
G04 Aperture macros list end*
%ADD10R,0.675000X0.250000*%
%ADD11R,0.250000X0.675000*%
%ADD12RoundRect,0.135000X-0.185000X0.135000X-0.185000X-0.135000X0.185000X-0.135000X0.185000X0.135000X0*%
%ADD13RoundRect,0.140000X0.140000X0.170000X-0.140000X0.170000X-0.140000X-0.170000X0.140000X-0.170000X0*%
%ADD14RoundRect,0.140000X-0.140000X-0.170000X0.140000X-0.170000X0.140000X0.170000X-0.140000X0.170000X0*%
%ADD15RoundRect,0.250000X1.075000X-0.375000X1.075000X0.375000X-1.075000X0.375000X-1.075000X-0.375000X0*%
%ADD16R,1.700000X1.700000*%
%ADD17O,1.700000X1.700000*%
%ADD18RoundRect,0.135000X0.135000X0.185000X-0.135000X0.185000X-0.135000X-0.185000X0.135000X-0.185000X0*%
%ADD19RoundRect,0.250000X-1.075000X0.375000X-1.075000X-0.375000X1.075000X-0.375000X1.075000X0.375000X0*%
%ADD20RoundRect,0.225000X0.225000X0.250000X-0.225000X0.250000X-0.225000X-0.250000X0.225000X-0.250000X0*%
%ADD21RoundRect,0.140000X-0.170000X0.140000X-0.170000X-0.140000X0.170000X-0.140000X0.170000X0.140000X0*%
%ADD22RoundRect,0.140000X0.170000X-0.140000X0.170000X0.140000X-0.170000X0.140000X-0.170000X-0.140000X0*%
%ADD23RoundRect,0.050000X-0.387500X-0.050000X0.387500X-0.050000X0.387500X0.050000X-0.387500X0.050000X0*%
%ADD24RoundRect,0.050000X-0.050000X-0.387500X0.050000X-0.387500X0.050000X0.387500X-0.050000X0.387500X0*%
%ADD25R,3.200000X3.200000*%
%ADD26R,1.400000X1.200000*%
%ADD27C,0.650000*%
%ADD28R,1.450000X0.600000*%
%ADD29R,1.450000X0.300000*%
%ADD30O,2.100000X1.000000*%
%ADD31O,1.600000X1.000000*%
%ADD32RoundRect,0.200000X0.200000X0.800000X-0.200000X0.800000X-0.200000X-0.800000X0.200000X-0.800000X0*%
%ADD33RoundRect,0.140000X0.021213X-0.219203X0.219203X-0.021213X-0.021213X0.219203X-0.219203X0.021213X0*%
%ADD34RoundRect,0.150000X0.150000X-0.587500X0.150000X0.587500X-0.150000X0.587500X-0.150000X-0.587500X0*%
%ADD35RoundRect,0.087500X-0.175000X-0.087500X0.175000X-0.087500X0.175000X0.087500X-0.175000X0.087500X0*%
%ADD36R,1.400000X1.600000*%
G04 APERTURE END LIST*
D10*
%TO.C,U2*%
X187562500Y-50350000D03*
X187562500Y-49850000D03*
X187562500Y-49350000D03*
X187562500Y-48850000D03*
D11*
X186800000Y-48587500D03*
X186300000Y-48587500D03*
X185800000Y-48587500D03*
D10*
X185037500Y-48850000D03*
X185037500Y-49350000D03*
X185037500Y-49850000D03*
X185037500Y-50350000D03*
D11*
X185800000Y-50612500D03*
X186300000Y-50612500D03*
X186800000Y-50612500D03*
%TD*%
D12*
%TO.C,R9*%
X189780000Y-49310000D03*
X189780000Y-50330000D03*
%TD*%
%TO.C,R8*%
X190780000Y-49310000D03*
X190780000Y-50330000D03*
%TD*%
D13*
%TO.C,C19*%
X192780000Y-50320000D03*
X191820000Y-50320000D03*
%TD*%
D14*
%TO.C,C18*%
X191820000Y-49320000D03*
X192780000Y-49320000D03*
%TD*%
D15*
%TO.C,D1*%
X201400000Y-66900000D03*
X201400000Y-64100000D03*
%TD*%
D16*
%TO.C,J3*%
X197200000Y-48540000D03*
D17*
X197200000Y-51080000D03*
X197200000Y-53620000D03*
X197200000Y-56160000D03*
X197200000Y-58700000D03*
X197200000Y-61240000D03*
X197200000Y-63780000D03*
X197200000Y-66320000D03*
X197200000Y-68860000D03*
X197200000Y-71400000D03*
X197200000Y-73940000D03*
X197200000Y-76480000D03*
X197200000Y-79020000D03*
X197200000Y-81560000D03*
X197200000Y-84100000D03*
X197200000Y-86640000D03*
X197200000Y-89180000D03*
X197200000Y-91720000D03*
X197200000Y-94260000D03*
X197200000Y-96800000D03*
%TD*%
D18*
%TO.C,R1*%
X207410000Y-48900000D03*
X206390000Y-48900000D03*
%TD*%
D15*
%TO.C,D12*%
X205000000Y-64100000D03*
X205000000Y-66900000D03*
%TD*%
%TO.C,D11*%
X212500000Y-64100000D03*
X212500000Y-66900000D03*
%TD*%
D19*
%TO.C,D10*%
X212499999Y-71700000D03*
X212499999Y-68900000D03*
%TD*%
D15*
%TO.C,D9*%
X208800000Y-64100000D03*
X208800000Y-66900000D03*
%TD*%
D19*
%TO.C,D8*%
X205000000Y-71700000D03*
X205000000Y-68900000D03*
%TD*%
%TO.C,D6*%
X208800002Y-71700002D03*
X208800002Y-68900002D03*
%TD*%
%TO.C,D5*%
X201400004Y-71700004D03*
X201400004Y-68900004D03*
%TD*%
D16*
%TO.C,J4*%
X184360000Y-96600000D03*
D17*
X186900000Y-96600000D03*
X189440000Y-96600000D03*
%TD*%
D20*
%TO.C,C13*%
X185575000Y-61100000D03*
X184025000Y-61100000D03*
%TD*%
D14*
%TO.C,C17*%
X192040000Y-68900000D03*
X193000000Y-68900000D03*
%TD*%
D21*
%TO.C,C9*%
X190600000Y-80340000D03*
X190600000Y-81300000D03*
%TD*%
D22*
%TO.C,C11*%
X186800000Y-66480000D03*
X186800000Y-65520000D03*
%TD*%
D12*
%TO.C,R4*%
X188500000Y-67590000D03*
X188500000Y-68610000D03*
%TD*%
D18*
%TO.C,R5*%
X187220000Y-79200000D03*
X186200000Y-79200000D03*
%TD*%
D20*
%TO.C,C12*%
X184750000Y-55600000D03*
X183200000Y-55600000D03*
%TD*%
D22*
%TO.C,C16*%
X190600000Y-68880000D03*
X190600000Y-67920000D03*
%TD*%
D12*
%TO.C,R3*%
X187500000Y-67590000D03*
X187500000Y-68610000D03*
%TD*%
D22*
%TO.C,C5*%
X190300000Y-65100000D03*
X190300000Y-64140000D03*
%TD*%
D14*
%TO.C,C7*%
X181520000Y-62410000D03*
X182480000Y-62410000D03*
%TD*%
D22*
%TO.C,C10*%
X189500000Y-68880000D03*
X189500000Y-67920000D03*
%TD*%
D21*
%TO.C,C1*%
X188300000Y-79120000D03*
X188300000Y-80080000D03*
%TD*%
D14*
%TO.C,C8*%
X191520000Y-70000000D03*
X192480000Y-70000000D03*
%TD*%
D16*
%TO.C,J2*%
X176400000Y-48280000D03*
D17*
X176400000Y-50820000D03*
X176400000Y-53360000D03*
X176400000Y-55900000D03*
X176400000Y-58440000D03*
X176400000Y-60980000D03*
X176400000Y-63520000D03*
X176400000Y-66060000D03*
X176400000Y-68600000D03*
X176400000Y-71140000D03*
X176400000Y-73680000D03*
X176400000Y-76220000D03*
X176400000Y-78760000D03*
X176400000Y-81300000D03*
X176400000Y-83840000D03*
X176400000Y-86380000D03*
X176400000Y-88920000D03*
X176400000Y-91460000D03*
X176400000Y-94000000D03*
X176400000Y-96540000D03*
%TD*%
D23*
%TO.C,U1*%
X183462500Y-71262500D03*
X183462500Y-71662500D03*
X183462500Y-72062500D03*
X183462500Y-72462500D03*
X183462500Y-72862500D03*
X183462500Y-73262500D03*
X183462500Y-73662500D03*
X183462500Y-74062500D03*
X183462500Y-74462500D03*
X183462500Y-74862500D03*
X183462500Y-75262500D03*
X183462500Y-75662500D03*
X183462500Y-76062500D03*
X183462500Y-76462500D03*
D24*
X184300000Y-77300000D03*
X184700000Y-77300000D03*
X185100000Y-77300000D03*
X185500000Y-77300000D03*
X185900000Y-77300000D03*
X186300000Y-77300000D03*
X186700000Y-77300000D03*
X187100000Y-77300000D03*
X187500000Y-77300000D03*
X187900000Y-77300000D03*
X188300000Y-77300000D03*
X188700000Y-77300000D03*
X189100000Y-77300000D03*
X189500000Y-77300000D03*
D23*
X190337500Y-76462500D03*
X190337500Y-76062500D03*
X190337500Y-75662500D03*
X190337500Y-75262500D03*
X190337500Y-74862500D03*
X190337500Y-74462500D03*
X190337500Y-74062500D03*
X190337500Y-73662500D03*
X190337500Y-73262500D03*
X190337500Y-72862500D03*
X190337500Y-72462500D03*
X190337500Y-72062500D03*
X190337500Y-71662500D03*
X190337500Y-71262500D03*
D24*
X189500000Y-70425000D03*
X189100000Y-70425000D03*
X188700000Y-70425000D03*
X188300000Y-70425000D03*
X187900000Y-70425000D03*
X187500000Y-70425000D03*
X187100000Y-70425000D03*
X186700000Y-70425000D03*
X186300000Y-70425000D03*
X185900000Y-70425000D03*
X185500000Y-70425000D03*
X185100000Y-70425000D03*
X184700000Y-70425000D03*
X184300000Y-70425000D03*
D25*
X186900000Y-73862500D03*
%TD*%
D22*
%TO.C,C15*%
X188300000Y-82060000D03*
X188300000Y-81100000D03*
%TD*%
D13*
%TO.C,C6*%
X182500000Y-64910000D03*
X181540000Y-64910000D03*
%TD*%
D12*
%TO.C,R7*%
X183620000Y-63500000D03*
X183620000Y-64520000D03*
%TD*%
D22*
%TO.C,C2*%
X189200000Y-65100000D03*
X189200000Y-64140000D03*
%TD*%
%TO.C,C14*%
X182800000Y-81280000D03*
X182800000Y-80320000D03*
%TD*%
D18*
%TO.C,R6*%
X182530000Y-63610000D03*
X181510000Y-63610000D03*
%TD*%
D26*
%TO.C,Y1*%
X184400000Y-82500000D03*
X186600000Y-82500000D03*
X186600000Y-80800000D03*
X184400000Y-80800000D03*
%TD*%
D13*
%TO.C,C3*%
X181460000Y-74900000D03*
X180500000Y-74900000D03*
%TD*%
D27*
%TO.C,J1*%
X211460000Y-53489994D03*
X211460000Y-47709994D03*
D28*
X210015000Y-53849994D03*
X210015000Y-53049994D03*
D29*
X210015000Y-51849994D03*
X210015000Y-50849994D03*
X210015000Y-50349994D03*
X210015000Y-49349994D03*
D28*
X210015000Y-48149994D03*
X210015000Y-47349994D03*
X210015000Y-47349994D03*
X210015000Y-48149994D03*
D29*
X210015000Y-48849994D03*
X210015000Y-49849994D03*
X210015000Y-51349994D03*
X210015000Y-52349994D03*
D28*
X210015000Y-53049994D03*
X210015000Y-53849994D03*
D30*
X210930000Y-54919994D03*
D31*
X215110000Y-54919994D03*
D30*
X210930000Y-46279994D03*
D31*
X215110000Y-46279994D03*
%TD*%
D32*
%TO.C,SW1*%
X193100000Y-59200000D03*
X188900000Y-59200000D03*
%TD*%
D33*
%TO.C,C4*%
X191760589Y-67739411D03*
X192439411Y-67060589D03*
%TD*%
D34*
%TO.C,U4*%
X183850000Y-59275000D03*
X185750000Y-59275000D03*
X184800000Y-57400000D03*
%TD*%
D18*
%TO.C,R2*%
X207410000Y-51900000D03*
X206390000Y-51900000D03*
%TD*%
D35*
%TO.C,U3*%
X182625000Y-66100000D03*
X182625000Y-66600000D03*
X182625000Y-67100000D03*
X182625000Y-67600000D03*
X185200000Y-67600000D03*
X185200000Y-67100000D03*
X185200000Y-66600000D03*
X185200000Y-66100000D03*
D36*
X183912500Y-66850000D03*
%TD*%
M02*
