%TF.GenerationSoftware,KiCad,Pcbnew,7.0.10*%
%TF.CreationDate,2025-11-23T12:01:09-06:00*%
%TF.ProjectId,FrankDevBoard,4672616e-6b44-4657-9642-6f6172642e6b,rev?*%
%TF.SameCoordinates,Original*%
%TF.FileFunction,Legend,Top*%
%TF.FilePolarity,Positive*%
%FSLAX46Y46*%
G04 Gerber Fmt 4.6, Leading zero omitted, Abs format (unit mm)*
G04 Created by KiCad (PCBNEW 7.0.10) date 2025-11-23 12:01:09*
%MOMM*%
%LPD*%
G01*
G04 APERTURE LIST*
%ADD10C,0.150000*%
%ADD11C,0.100000*%
%ADD12C,0.250000*%
%ADD13C,0.120000*%
G04 APERTURE END LIST*
D10*
X202900000Y-56300000D02*
X203700000Y-55200000D01*
X202000000Y-55500000D02*
X202900000Y-56300000D01*
X202900000Y-56300000D02*
X202000000Y-55500000D01*
X202100000Y-52900000D02*
X202900000Y-56300000D01*
D11*
X200278884Y-48352419D02*
X200403884Y-47352419D01*
X200600312Y-47685752D02*
X200516979Y-48352419D01*
X200588407Y-47780990D02*
X200618169Y-47733371D01*
X200618169Y-47733371D02*
X200671741Y-47685752D01*
X200671741Y-47685752D02*
X200743169Y-47685752D01*
X200743169Y-47685752D02*
X200784836Y-47733371D01*
X200784836Y-47733371D02*
X200796741Y-47828609D01*
X200796741Y-47828609D02*
X200731264Y-48352419D01*
X201189598Y-48304800D02*
X201136026Y-48352419D01*
X201136026Y-48352419D02*
X201040788Y-48352419D01*
X201040788Y-48352419D02*
X200999122Y-48304800D01*
X200999122Y-48304800D02*
X200981265Y-48257180D01*
X200981265Y-48257180D02*
X200969360Y-48161942D01*
X200969360Y-48161942D02*
X201005074Y-47876228D01*
X201005074Y-47876228D02*
X201040788Y-47780990D01*
X201040788Y-47780990D02*
X201070550Y-47733371D01*
X201070550Y-47733371D02*
X201124122Y-47685752D01*
X201124122Y-47685752D02*
X201219360Y-47685752D01*
X201219360Y-47685752D02*
X201261026Y-47733371D01*
X201612216Y-48352419D02*
X201677693Y-47828609D01*
X201677693Y-47828609D02*
X201665788Y-47733371D01*
X201665788Y-47733371D02*
X201624121Y-47685752D01*
X201624121Y-47685752D02*
X201528883Y-47685752D01*
X201528883Y-47685752D02*
X201475312Y-47733371D01*
X201618169Y-48304800D02*
X201564597Y-48352419D01*
X201564597Y-48352419D02*
X201445550Y-48352419D01*
X201445550Y-48352419D02*
X201403883Y-48304800D01*
X201403883Y-48304800D02*
X201391978Y-48209561D01*
X201391978Y-48209561D02*
X201403883Y-48114323D01*
X201403883Y-48114323D02*
X201439597Y-48019085D01*
X201439597Y-48019085D02*
X201493169Y-47971466D01*
X201493169Y-47971466D02*
X201612216Y-47971466D01*
X201612216Y-47971466D02*
X201665788Y-47923847D01*
X201832455Y-48304800D02*
X201874121Y-48352419D01*
X201874121Y-48352419D02*
X201969359Y-48352419D01*
X201969359Y-48352419D02*
X202022931Y-48304800D01*
X202022931Y-48304800D02*
X202058645Y-48209561D01*
X202058645Y-48209561D02*
X202064597Y-48161942D01*
X202064597Y-48161942D02*
X202052693Y-48066704D01*
X202052693Y-48066704D02*
X202011026Y-48019085D01*
X202011026Y-48019085D02*
X201939597Y-48019085D01*
X201939597Y-48019085D02*
X201897931Y-47971466D01*
X201897931Y-47971466D02*
X201886026Y-47876228D01*
X201886026Y-47876228D02*
X201891978Y-47828609D01*
X201891978Y-47828609D02*
X201927693Y-47733371D01*
X201927693Y-47733371D02*
X201981264Y-47685752D01*
X201981264Y-47685752D02*
X202052693Y-47685752D01*
X202052693Y-47685752D02*
X202094359Y-47733371D01*
X202451502Y-48304800D02*
X202397931Y-48352419D01*
X202397931Y-48352419D02*
X202302693Y-48352419D01*
X202302693Y-48352419D02*
X202261026Y-48304800D01*
X202261026Y-48304800D02*
X202249121Y-48209561D01*
X202249121Y-48209561D02*
X202296740Y-47828609D01*
X202296740Y-47828609D02*
X202332455Y-47733371D01*
X202332455Y-47733371D02*
X202386026Y-47685752D01*
X202386026Y-47685752D02*
X202481264Y-47685752D01*
X202481264Y-47685752D02*
X202522931Y-47733371D01*
X202522931Y-47733371D02*
X202534836Y-47828609D01*
X202534836Y-47828609D02*
X202522931Y-47923847D01*
X202522931Y-47923847D02*
X202272931Y-48019085D01*
X203100311Y-47685752D02*
X203136025Y-48352419D01*
X203338406Y-47685752D02*
X203136025Y-48352419D01*
X203136025Y-48352419D02*
X203058644Y-48590514D01*
X203058644Y-48590514D02*
X203028882Y-48638133D01*
X203028882Y-48638133D02*
X202975311Y-48685752D01*
X203516977Y-48352419D02*
X203475311Y-48304800D01*
X203475311Y-48304800D02*
X203457454Y-48257180D01*
X203457454Y-48257180D02*
X203445549Y-48161942D01*
X203445549Y-48161942D02*
X203481263Y-47876228D01*
X203481263Y-47876228D02*
X203516977Y-47780990D01*
X203516977Y-47780990D02*
X203546739Y-47733371D01*
X203546739Y-47733371D02*
X203600311Y-47685752D01*
X203600311Y-47685752D02*
X203671739Y-47685752D01*
X203671739Y-47685752D02*
X203713406Y-47733371D01*
X203713406Y-47733371D02*
X203731263Y-47780990D01*
X203731263Y-47780990D02*
X203743168Y-47876228D01*
X203743168Y-47876228D02*
X203707454Y-48161942D01*
X203707454Y-48161942D02*
X203671739Y-48257180D01*
X203671739Y-48257180D02*
X203641977Y-48304800D01*
X203641977Y-48304800D02*
X203588406Y-48352419D01*
X203588406Y-48352419D02*
X203516977Y-48352419D01*
X204195549Y-47685752D02*
X204112215Y-48352419D01*
X203981263Y-47685752D02*
X203915787Y-48209561D01*
X203915787Y-48209561D02*
X203927692Y-48304800D01*
X203927692Y-48304800D02*
X203969358Y-48352419D01*
X203969358Y-48352419D02*
X204040787Y-48352419D01*
X204040787Y-48352419D02*
X204094358Y-48304800D01*
X204094358Y-48304800D02*
X204124120Y-48257180D01*
X200314598Y-49295752D02*
X200326503Y-49962419D01*
X200326503Y-49962419D02*
X200481265Y-49486228D01*
X200481265Y-49486228D02*
X200516979Y-49962419D01*
X200516979Y-49962419D02*
X200695550Y-49295752D01*
X200874122Y-49962419D02*
X200832456Y-49914800D01*
X200832456Y-49914800D02*
X200814599Y-49867180D01*
X200814599Y-49867180D02*
X200802694Y-49771942D01*
X200802694Y-49771942D02*
X200838408Y-49486228D01*
X200838408Y-49486228D02*
X200874122Y-49390990D01*
X200874122Y-49390990D02*
X200903884Y-49343371D01*
X200903884Y-49343371D02*
X200957456Y-49295752D01*
X200957456Y-49295752D02*
X201028884Y-49295752D01*
X201028884Y-49295752D02*
X201070551Y-49343371D01*
X201070551Y-49343371D02*
X201088408Y-49390990D01*
X201088408Y-49390990D02*
X201100313Y-49486228D01*
X201100313Y-49486228D02*
X201064599Y-49771942D01*
X201064599Y-49771942D02*
X201028884Y-49867180D01*
X201028884Y-49867180D02*
X200999122Y-49914800D01*
X200999122Y-49914800D02*
X200945551Y-49962419D01*
X200945551Y-49962419D02*
X200874122Y-49962419D01*
X201255075Y-49962419D02*
X201338408Y-49295752D01*
X201314599Y-49486228D02*
X201350313Y-49390990D01*
X201350313Y-49390990D02*
X201380075Y-49343371D01*
X201380075Y-49343371D02*
X201433646Y-49295752D01*
X201433646Y-49295752D02*
X201481265Y-49295752D01*
X201564599Y-49962419D02*
X201689599Y-48962419D01*
X201659837Y-49581466D02*
X201755075Y-49962419D01*
X201838408Y-49295752D02*
X201600313Y-49676704D01*
X202350313Y-49962419D02*
X202433646Y-49295752D01*
X202475313Y-48962419D02*
X202445551Y-49010038D01*
X202445551Y-49010038D02*
X202463408Y-49057657D01*
X202463408Y-49057657D02*
X202493170Y-49010038D01*
X202493170Y-49010038D02*
X202475313Y-48962419D01*
X202475313Y-48962419D02*
X202463408Y-49057657D01*
X202671741Y-49295752D02*
X202588408Y-49962419D01*
X202659836Y-49390990D02*
X202689598Y-49343371D01*
X202689598Y-49343371D02*
X202743170Y-49295752D01*
X202743170Y-49295752D02*
X202814598Y-49295752D01*
X202814598Y-49295752D02*
X202856265Y-49343371D01*
X202856265Y-49343371D02*
X202868170Y-49438609D01*
X202868170Y-49438609D02*
X202802693Y-49962419D01*
X203433646Y-49295752D02*
X203624122Y-49295752D01*
X203546741Y-48962419D02*
X203439598Y-49819561D01*
X203439598Y-49819561D02*
X203451503Y-49914800D01*
X203451503Y-49914800D02*
X203493169Y-49962419D01*
X203493169Y-49962419D02*
X203540788Y-49962419D01*
X203707455Y-49962419D02*
X203832455Y-48962419D01*
X203921740Y-49962419D02*
X203987217Y-49438609D01*
X203987217Y-49438609D02*
X203975312Y-49343371D01*
X203975312Y-49343371D02*
X203933645Y-49295752D01*
X203933645Y-49295752D02*
X203862217Y-49295752D01*
X203862217Y-49295752D02*
X203808645Y-49343371D01*
X203808645Y-49343371D02*
X203778883Y-49390990D01*
X204356264Y-49914800D02*
X204302693Y-49962419D01*
X204302693Y-49962419D02*
X204207455Y-49962419D01*
X204207455Y-49962419D02*
X204165788Y-49914800D01*
X204165788Y-49914800D02*
X204153883Y-49819561D01*
X204153883Y-49819561D02*
X204201502Y-49438609D01*
X204201502Y-49438609D02*
X204237217Y-49343371D01*
X204237217Y-49343371D02*
X204290788Y-49295752D01*
X204290788Y-49295752D02*
X204386026Y-49295752D01*
X204386026Y-49295752D02*
X204427693Y-49343371D01*
X204427693Y-49343371D02*
X204439598Y-49438609D01*
X204439598Y-49438609D02*
X204427693Y-49533847D01*
X204427693Y-49533847D02*
X204177693Y-49629085D01*
X201636025Y-51572419D02*
X201761025Y-50572419D01*
X201641978Y-51524800D02*
X201588406Y-51572419D01*
X201588406Y-51572419D02*
X201493168Y-51572419D01*
X201493168Y-51572419D02*
X201451502Y-51524800D01*
X201451502Y-51524800D02*
X201433645Y-51477180D01*
X201433645Y-51477180D02*
X201421740Y-51381942D01*
X201421740Y-51381942D02*
X201457454Y-51096228D01*
X201457454Y-51096228D02*
X201493168Y-51000990D01*
X201493168Y-51000990D02*
X201522930Y-50953371D01*
X201522930Y-50953371D02*
X201576502Y-50905752D01*
X201576502Y-50905752D02*
X201671740Y-50905752D01*
X201671740Y-50905752D02*
X201713406Y-50953371D01*
X202088406Y-51572419D02*
X202153883Y-51048609D01*
X202153883Y-51048609D02*
X202141978Y-50953371D01*
X202141978Y-50953371D02*
X202100311Y-50905752D01*
X202100311Y-50905752D02*
X202005073Y-50905752D01*
X202005073Y-50905752D02*
X201951502Y-50953371D01*
X202094359Y-51524800D02*
X202040787Y-51572419D01*
X202040787Y-51572419D02*
X201921740Y-51572419D01*
X201921740Y-51572419D02*
X201880073Y-51524800D01*
X201880073Y-51524800D02*
X201868168Y-51429561D01*
X201868168Y-51429561D02*
X201880073Y-51334323D01*
X201880073Y-51334323D02*
X201915787Y-51239085D01*
X201915787Y-51239085D02*
X201969359Y-51191466D01*
X201969359Y-51191466D02*
X202088406Y-51191466D01*
X202088406Y-51191466D02*
X202141978Y-51143847D01*
X202326502Y-51572419D02*
X202409835Y-50905752D01*
X202386026Y-51096228D02*
X202421740Y-51000990D01*
X202421740Y-51000990D02*
X202451502Y-50953371D01*
X202451502Y-50953371D02*
X202505073Y-50905752D01*
X202505073Y-50905752D02*
X202552692Y-50905752D01*
X202636026Y-51572419D02*
X202761026Y-50572419D01*
X202731264Y-51191466D02*
X202826502Y-51572419D01*
X202909835Y-50905752D02*
X202671740Y-51286704D01*
D12*
X189179949Y-55897952D02*
X189054949Y-56897952D01*
X189173996Y-55945571D02*
X189275187Y-55897952D01*
X189275187Y-55897952D02*
X189465663Y-55897952D01*
X189465663Y-55897952D02*
X189554949Y-55945571D01*
X189554949Y-55945571D02*
X189596615Y-55993190D01*
X189596615Y-55993190D02*
X189632330Y-56088428D01*
X189632330Y-56088428D02*
X189596615Y-56374142D01*
X189596615Y-56374142D02*
X189537092Y-56469380D01*
X189537092Y-56469380D02*
X189483520Y-56517000D01*
X189483520Y-56517000D02*
X189382330Y-56564619D01*
X189382330Y-56564619D02*
X189191853Y-56564619D01*
X189191853Y-56564619D02*
X189102568Y-56517000D01*
X190001377Y-56564619D02*
X190084711Y-55897952D01*
X190060901Y-56088428D02*
X190120425Y-55993190D01*
X190120425Y-55993190D02*
X190173996Y-55945571D01*
X190173996Y-55945571D02*
X190275187Y-55897952D01*
X190275187Y-55897952D02*
X190370425Y-55897952D01*
X191007330Y-56517000D02*
X190906140Y-56564619D01*
X190906140Y-56564619D02*
X190715663Y-56564619D01*
X190715663Y-56564619D02*
X190626378Y-56517000D01*
X190626378Y-56517000D02*
X190590663Y-56421761D01*
X190590663Y-56421761D02*
X190638283Y-56040809D01*
X190638283Y-56040809D02*
X190697806Y-55945571D01*
X190697806Y-55945571D02*
X190798997Y-55897952D01*
X190798997Y-55897952D02*
X190989473Y-55897952D01*
X190989473Y-55897952D02*
X191078759Y-55945571D01*
X191078759Y-55945571D02*
X191114473Y-56040809D01*
X191114473Y-56040809D02*
X191102568Y-56136047D01*
X191102568Y-56136047D02*
X190614473Y-56231285D01*
X191435902Y-56517000D02*
X191525187Y-56564619D01*
X191525187Y-56564619D02*
X191715664Y-56564619D01*
X191715664Y-56564619D02*
X191816854Y-56517000D01*
X191816854Y-56517000D02*
X191876378Y-56421761D01*
X191876378Y-56421761D02*
X191882330Y-56374142D01*
X191882330Y-56374142D02*
X191846616Y-56278904D01*
X191846616Y-56278904D02*
X191757330Y-56231285D01*
X191757330Y-56231285D02*
X191614473Y-56231285D01*
X191614473Y-56231285D02*
X191525187Y-56183666D01*
X191525187Y-56183666D02*
X191489473Y-56088428D01*
X191489473Y-56088428D02*
X191495426Y-56040809D01*
X191495426Y-56040809D02*
X191554949Y-55945571D01*
X191554949Y-55945571D02*
X191656140Y-55897952D01*
X191656140Y-55897952D02*
X191798997Y-55897952D01*
X191798997Y-55897952D02*
X191888283Y-55945571D01*
X192245426Y-56517000D02*
X192334711Y-56564619D01*
X192334711Y-56564619D02*
X192525188Y-56564619D01*
X192525188Y-56564619D02*
X192626378Y-56517000D01*
X192626378Y-56517000D02*
X192685902Y-56421761D01*
X192685902Y-56421761D02*
X192691854Y-56374142D01*
X192691854Y-56374142D02*
X192656140Y-56278904D01*
X192656140Y-56278904D02*
X192566854Y-56231285D01*
X192566854Y-56231285D02*
X192423997Y-56231285D01*
X192423997Y-56231285D02*
X192334711Y-56183666D01*
X192334711Y-56183666D02*
X192298997Y-56088428D01*
X192298997Y-56088428D02*
X192304950Y-56040809D01*
X192304950Y-56040809D02*
X192364473Y-55945571D01*
X192364473Y-55945571D02*
X192465664Y-55897952D01*
X192465664Y-55897952D02*
X192608521Y-55897952D01*
X192608521Y-55897952D02*
X192697807Y-55945571D01*
X181369234Y-53964619D02*
X183083520Y-53964619D01*
X182101377Y-54964619D02*
X182226377Y-53964619D01*
X183851377Y-54678904D02*
X185279948Y-54678904D01*
X183529948Y-54964619D02*
X184654948Y-53964619D01*
X184654948Y-53964619D02*
X185529948Y-54964619D01*
X186529949Y-54964619D02*
X186654949Y-53964619D01*
X186654949Y-53964619D02*
X188244235Y-54964619D01*
X188244235Y-54964619D02*
X188369235Y-53964619D01*
X189672806Y-54964619D02*
X189797806Y-53964619D01*
X191387092Y-54964619D02*
X190172806Y-54393190D01*
X191512092Y-53964619D02*
X189726377Y-54536047D01*
X182669234Y-52064619D02*
X184383520Y-52064619D01*
X183401377Y-53064619D02*
X183526377Y-52064619D01*
X185258520Y-53064619D02*
X185383520Y-52064619D01*
X185323996Y-52540809D02*
X187038282Y-52540809D01*
X186972806Y-53064619D02*
X187097806Y-52064619D01*
X188466853Y-52540809D02*
X189466853Y-52540809D01*
X189829948Y-53064619D02*
X188401377Y-53064619D01*
X188401377Y-53064619D02*
X188526377Y-52064619D01*
X188526377Y-52064619D02*
X189954948Y-52064619D01*
X181138282Y-46740809D02*
X180138282Y-46740809D01*
X180072806Y-47264619D02*
X180197806Y-46264619D01*
X180197806Y-46264619D02*
X181626377Y-46264619D01*
X184358521Y-47264619D02*
X183418044Y-46788428D01*
X182644235Y-47264619D02*
X182769235Y-46264619D01*
X182769235Y-46264619D02*
X183912092Y-46264619D01*
X183912092Y-46264619D02*
X184191854Y-46312238D01*
X184191854Y-46312238D02*
X184328759Y-46359857D01*
X184328759Y-46359857D02*
X184459711Y-46455095D01*
X184459711Y-46455095D02*
X184441854Y-46597952D01*
X184441854Y-46597952D02*
X184287092Y-46693190D01*
X184287092Y-46693190D02*
X184138282Y-46740809D01*
X184138282Y-46740809D02*
X183846616Y-46788428D01*
X183846616Y-46788428D02*
X182703759Y-46788428D01*
X185537092Y-46978904D02*
X186965663Y-46978904D01*
X185215663Y-47264619D02*
X186340663Y-46264619D01*
X186340663Y-46264619D02*
X187215663Y-47264619D01*
X188215664Y-47264619D02*
X188340664Y-46264619D01*
X188340664Y-46264619D02*
X189929950Y-47264619D01*
X189929950Y-47264619D02*
X190054950Y-46264619D01*
X191358521Y-47264619D02*
X191483521Y-46264619D01*
X193072807Y-47264619D02*
X191858521Y-46693190D01*
X193197807Y-46264619D02*
X191412092Y-46836047D01*
D11*
%TO.C,U2*%
X184700000Y-50950000D02*
X184700000Y-50730000D01*
X184700000Y-48250000D02*
X185420000Y-48250000D01*
X187900000Y-48250000D02*
X187180000Y-48250000D01*
X185420000Y-50950000D02*
X184700000Y-50950000D01*
X187900000Y-48250000D02*
X187900000Y-48470000D01*
X188000000Y-50950000D02*
X187180000Y-50950000D01*
X184700000Y-48470000D02*
X184700000Y-48250000D01*
D13*
%TO.C,R9*%
X190160000Y-49666359D02*
X190160000Y-49973641D01*
X189400000Y-49666359D02*
X189400000Y-49973641D01*
%TO.C,R8*%
X191160000Y-49666359D02*
X191160000Y-49973641D01*
X190400000Y-49666359D02*
X190400000Y-49973641D01*
%TO.C,C19*%
X192407836Y-49960000D02*
X192192164Y-49960000D01*
X192407836Y-50680000D02*
X192192164Y-50680000D01*
%TO.C,C18*%
X192192164Y-49680000D02*
X192407836Y-49680000D01*
X192192164Y-48960000D02*
X192407836Y-48960000D01*
%TO.C,D1*%
X199815000Y-67785000D02*
X202985000Y-67785000D01*
X202985000Y-67785000D02*
X202985000Y-63900000D01*
X199815000Y-63900000D02*
X199815000Y-67785000D01*
%TO.C,J3*%
X195870000Y-47210000D02*
X197200000Y-47210000D01*
X195870000Y-48540000D02*
X195870000Y-47210000D01*
X195870000Y-49810000D02*
X195870000Y-98130000D01*
X195870000Y-49810000D02*
X198530000Y-49810000D01*
X195870000Y-98130000D02*
X198530000Y-98130000D01*
X198530000Y-49810000D02*
X198530000Y-98130000D01*
%TO.C,R1*%
X207053641Y-49280000D02*
X206746359Y-49280000D01*
X207053641Y-48520000D02*
X206746359Y-48520000D01*
%TO.C,*%
G36*
X185556211Y-84890640D02*
G01*
X185679373Y-84897014D01*
X185796204Y-84908908D01*
X185890111Y-84924240D01*
X186040980Y-84959542D01*
X186202357Y-85006820D01*
X186376032Y-85066726D01*
X186563793Y-85139912D01*
X186767427Y-85227030D01*
X186949953Y-85310466D01*
X187021938Y-85343508D01*
X187087612Y-85372319D01*
X187143405Y-85395441D01*
X187185752Y-85411416D01*
X187211084Y-85418785D01*
X187215561Y-85419016D01*
X187233786Y-85413086D01*
X187270749Y-85399211D01*
X187322681Y-85378870D01*
X187385815Y-85353547D01*
X187456382Y-85324720D01*
X187474301Y-85317323D01*
X187656216Y-85243865D01*
X187819803Y-85181870D01*
X187967868Y-85130607D01*
X188103219Y-85089348D01*
X188228662Y-85057363D01*
X188347005Y-85033923D01*
X188461054Y-85018298D01*
X188573617Y-85009759D01*
X188666570Y-85007534D01*
X188847628Y-85015849D01*
X189012398Y-85041794D01*
X189148463Y-85080708D01*
X189269328Y-85129672D01*
X189378839Y-85187249D01*
X189478513Y-85255256D01*
X189569865Y-85335515D01*
X189654413Y-85429845D01*
X189733673Y-85540064D01*
X189809160Y-85667994D01*
X189882392Y-85815454D01*
X189954884Y-85984264D01*
X190001709Y-86104658D01*
X190077785Y-86307005D01*
X190186515Y-86346091D01*
X190338397Y-86408639D01*
X190498972Y-86490357D01*
X190669347Y-86591867D01*
X190850630Y-86713791D01*
X190880835Y-86735316D01*
X190925453Y-86767727D01*
X190954116Y-86790912D01*
X190970704Y-86809858D01*
X190979096Y-86829554D01*
X190983169Y-86854986D01*
X190984534Y-86868662D01*
X190990634Y-86931940D01*
X191117210Y-86999039D01*
X191201527Y-87046755D01*
X191265038Y-87090723D01*
X191310316Y-87134180D01*
X191339935Y-87180358D01*
X191356469Y-87232493D01*
X191362490Y-87293819D01*
X191362660Y-87307527D01*
X191364538Y-87339867D01*
X191372250Y-87367527D01*
X191389042Y-87397858D01*
X191418161Y-87438216D01*
X191423358Y-87445022D01*
X191483390Y-87527740D01*
X191527101Y-87599999D01*
X191556484Y-87667467D01*
X191573529Y-87735809D01*
X191580228Y-87810694D01*
X191579066Y-87888146D01*
X191560720Y-88030736D01*
X191520636Y-88164435D01*
X191460024Y-88287327D01*
X191380092Y-88397501D01*
X191282047Y-88493042D01*
X191167098Y-88572035D01*
X191137031Y-88588370D01*
X191069876Y-88626604D01*
X191008505Y-88670042D01*
X190944572Y-88724840D01*
X190917435Y-88750338D01*
X190800907Y-88857843D01*
X190692519Y-88948588D01*
X190587157Y-89026301D01*
X190479710Y-89094710D01*
X190365067Y-89157544D01*
X190345548Y-89167412D01*
X190226992Y-89226728D01*
X190408336Y-89398929D01*
X190503999Y-89491603D01*
X190583074Y-89572549D01*
X190648314Y-89644916D01*
X190702471Y-89711853D01*
X190748297Y-89776509D01*
X190773997Y-89817269D01*
X190843044Y-89951623D01*
X190900211Y-90105064D01*
X190944643Y-90274914D01*
X190973316Y-90441684D01*
X190988404Y-90555283D01*
X191046272Y-90600279D01*
X191114141Y-90662758D01*
X191158033Y-90726548D01*
X191178372Y-90792782D01*
X191175581Y-90862594D01*
X191161756Y-90909926D01*
X191132611Y-90968195D01*
X191087842Y-91035590D01*
X191031784Y-91107206D01*
X190968773Y-91178135D01*
X190903146Y-91243473D01*
X190839239Y-91298313D01*
X190785890Y-91335161D01*
X190733090Y-91366104D01*
X190757349Y-91465285D01*
X190772200Y-91555448D01*
X190768527Y-91634454D01*
X190745045Y-91705559D01*
X190700465Y-91772020D01*
X190633499Y-91837094D01*
X190599866Y-91863684D01*
X190495619Y-91933248D01*
X190382912Y-91992567D01*
X190267703Y-92039172D01*
X190155948Y-92070594D01*
X190069695Y-92083404D01*
X189978343Y-92090320D01*
X189843998Y-92202914D01*
X189687621Y-92330222D01*
X189542800Y-92439978D01*
X189406495Y-92534178D01*
X189275665Y-92614823D01*
X189147271Y-92683912D01*
X189028492Y-92739068D01*
X188963292Y-92765653D01*
X188880718Y-92797047D01*
X188786797Y-92831144D01*
X188687555Y-92865842D01*
X188589021Y-92899036D01*
X188497219Y-92928621D01*
X188418176Y-92952494D01*
X188412842Y-92954021D01*
X188360410Y-92968956D01*
X188364043Y-93024632D01*
X188367675Y-93080308D01*
X188587272Y-93212590D01*
X188731182Y-93300354D01*
X188855329Y-93378782D01*
X188961657Y-93449675D01*
X189052112Y-93514833D01*
X189128639Y-93576059D01*
X189193183Y-93635152D01*
X189247691Y-93693914D01*
X189294107Y-93754145D01*
X189334377Y-93817648D01*
X189370446Y-93886221D01*
X189404260Y-93961668D01*
X189409160Y-93973452D01*
X189427862Y-94021143D01*
X189443485Y-94065178D01*
X189452824Y-94096490D01*
X189453142Y-94097888D01*
X189456878Y-94124133D01*
X189449366Y-94134373D01*
X189432637Y-94135927D01*
X189418520Y-94133298D01*
X189405927Y-94122763D01*
X189392337Y-94100350D01*
X189375229Y-94062086D01*
X189357154Y-94016979D01*
X189317704Y-93924491D01*
X189274989Y-93842640D01*
X189226351Y-93768606D01*
X189169128Y-93699575D01*
X189100660Y-93632730D01*
X189018287Y-93565253D01*
X188919348Y-93494329D01*
X188801184Y-93417139D01*
X188775199Y-93400820D01*
X188645932Y-93320072D01*
X188336006Y-93343524D01*
X187955922Y-93370326D01*
X187593521Y-93391727D01*
X187242749Y-93407966D01*
X186897548Y-93419281D01*
X186551865Y-93425913D01*
X186199643Y-93428101D01*
X186196109Y-93428101D01*
X185846771Y-93425732D01*
X185519463Y-93418388D01*
X185212257Y-93405719D01*
X184923228Y-93387379D01*
X184650447Y-93363018D01*
X184391990Y-93332289D01*
X184145927Y-93294844D01*
X183910334Y-93250336D01*
X183683282Y-93198415D01*
X183462845Y-93138735D01*
X183247096Y-93070947D01*
X183034109Y-92994703D01*
X182821955Y-92909655D01*
X182608710Y-92815455D01*
X182487783Y-92758425D01*
X182371814Y-92702448D01*
X182275981Y-92655869D01*
X182198382Y-92617616D01*
X182137114Y-92586622D01*
X182090273Y-92561815D01*
X182055956Y-92542125D01*
X182032260Y-92526484D01*
X182017281Y-92513821D01*
X182009117Y-92503066D01*
X182005862Y-92493149D01*
X182005475Y-92487312D01*
X182005927Y-92477824D01*
X182008872Y-92471658D01*
X182016700Y-92469724D01*
X182031796Y-92472929D01*
X182056549Y-92482182D01*
X182093346Y-92498390D01*
X182144573Y-92522463D01*
X182212619Y-92555307D01*
X182299871Y-92597831D01*
X182313520Y-92604494D01*
X182528904Y-92707545D01*
X182727920Y-92798151D01*
X182914279Y-92877732D01*
X183091692Y-92947705D01*
X183263870Y-93009488D01*
X183434524Y-93064501D01*
X183607366Y-93114161D01*
X183731748Y-93146524D01*
X183969076Y-93199361D01*
X184229340Y-93245009D01*
X184512157Y-93283458D01*
X184817141Y-93314694D01*
X185143908Y-93338703D01*
X185492074Y-93355474D01*
X185861255Y-93364994D01*
X186251065Y-93367250D01*
X186661122Y-93362229D01*
X187091039Y-93349918D01*
X187540434Y-93330305D01*
X188008920Y-93303377D01*
X188160278Y-93293385D01*
X188252502Y-93287041D01*
X188336914Y-93281097D01*
X188410423Y-93275781D01*
X188469940Y-93271320D01*
X188512373Y-93267945D01*
X188534632Y-93265883D01*
X188537086Y-93265514D01*
X188531735Y-93258566D01*
X188509017Y-93241962D01*
X188472680Y-93218276D01*
X188431751Y-93193221D01*
X188384010Y-93163427D01*
X188344333Y-93136217D01*
X188317391Y-93114949D01*
X188308090Y-93104328D01*
X188302941Y-93079053D01*
X188300591Y-93044110D01*
X188300576Y-93041367D01*
X188300576Y-92997985D01*
X188233996Y-93005810D01*
X187873410Y-93044779D01*
X187530865Y-93074469D01*
X187201844Y-93094909D01*
X186881832Y-93106128D01*
X186566315Y-93108155D01*
X186250777Y-93101018D01*
X185930703Y-93084746D01*
X185601578Y-93059367D01*
X185258887Y-93024911D01*
X185256724Y-93024670D01*
X184930334Y-92985404D01*
X184610235Y-92941029D01*
X184299996Y-92892146D01*
X184003187Y-92839355D01*
X183723378Y-92783254D01*
X183464137Y-92724443D01*
X183452176Y-92721539D01*
X183218692Y-92660447D01*
X183008036Y-92596230D01*
X182818758Y-92528155D01*
X182649405Y-92455492D01*
X182498523Y-92377508D01*
X182364662Y-92293472D01*
X182246369Y-92202653D01*
X182142191Y-92104320D01*
X182074502Y-92027716D01*
X182040671Y-91985245D01*
X182020086Y-91955135D01*
X182009844Y-91931453D01*
X182007043Y-91908269D01*
X182007785Y-91891356D01*
X182011575Y-91841176D01*
X182066474Y-91917063D01*
X182148005Y-92018984D01*
X182240188Y-92113217D01*
X182344456Y-92200466D01*
X182462241Y-92281435D01*
X182594978Y-92356827D01*
X182744098Y-92427347D01*
X182911036Y-92493697D01*
X183097223Y-92556582D01*
X183304092Y-92616705D01*
X183533078Y-92674769D01*
X183676849Y-92707839D01*
X183986087Y-92772173D01*
X184307714Y-92830650D01*
X184638059Y-92882907D01*
X184973452Y-92928582D01*
X185310223Y-92967309D01*
X185644701Y-92998726D01*
X185973216Y-93022470D01*
X186292098Y-93038177D01*
X186597677Y-93045483D01*
X186886283Y-93044026D01*
X187028349Y-93039688D01*
X187154822Y-93033924D01*
X187286223Y-93026684D01*
X187419992Y-93018203D01*
X187553571Y-93008715D01*
X187684401Y-92998457D01*
X187809924Y-92987663D01*
X187927581Y-92976569D01*
X188034813Y-92965409D01*
X188129062Y-92954419D01*
X188207769Y-92943834D01*
X188268376Y-92933888D01*
X188308323Y-92924818D01*
X188318876Y-92921085D01*
X188342059Y-92912286D01*
X188384088Y-92897790D01*
X188440491Y-92879083D01*
X188506795Y-92857649D01*
X188572854Y-92836750D01*
X188745854Y-92780093D01*
X188899513Y-92723799D01*
X189038709Y-92665281D01*
X189168320Y-92601948D01*
X189293226Y-92531212D01*
X189418304Y-92450482D01*
X189548434Y-92357171D01*
X189688494Y-92248687D01*
X189703554Y-92236648D01*
X189868251Y-92104659D01*
X189471758Y-92096017D01*
X189146781Y-92086128D01*
X188829975Y-92070564D01*
X188515009Y-92048831D01*
X188195555Y-92020433D01*
X187865282Y-91984874D01*
X187544188Y-91945116D01*
X187224939Y-91901079D01*
X186920214Y-91854436D01*
X186631009Y-91805416D01*
X186358321Y-91754249D01*
X186103146Y-91701165D01*
X185866482Y-91646392D01*
X185649324Y-91590160D01*
X185452669Y-91532699D01*
X185277514Y-91474238D01*
X185124855Y-91415007D01*
X185006628Y-91360782D01*
X184848074Y-91271563D01*
X184710629Y-91172959D01*
X184592045Y-91062652D01*
X184490076Y-90938321D01*
X184402476Y-90797647D01*
X184342774Y-90675305D01*
X184320620Y-90622022D01*
X184307457Y-90580058D01*
X184301031Y-90539080D01*
X184299089Y-90488753D01*
X184299039Y-90474808D01*
X184299152Y-90472678D01*
X184360038Y-90472678D01*
X184360937Y-90514477D01*
X184364918Y-90548926D01*
X184373908Y-90583031D01*
X184389832Y-90623797D01*
X184414618Y-90678229D01*
X184419292Y-90688160D01*
X184491494Y-90825042D01*
X184571534Y-90943680D01*
X184662762Y-91047437D01*
X184768524Y-91139675D01*
X184892169Y-91223757D01*
X185026061Y-91297539D01*
X185172360Y-91364454D01*
X185342133Y-91429439D01*
X185535484Y-91492520D01*
X185752517Y-91553720D01*
X185993335Y-91613066D01*
X186258044Y-91670583D01*
X186546747Y-91726295D01*
X186859548Y-91780228D01*
X187196551Y-91832406D01*
X187306292Y-91848278D01*
X187718510Y-91903310D01*
X188113520Y-91948644D01*
X188490205Y-91984180D01*
X188847446Y-92009818D01*
X189184127Y-92025459D01*
X189331460Y-92029263D01*
X189476086Y-92031795D01*
X189603678Y-92033622D01*
X189713100Y-92034740D01*
X189803212Y-92035146D01*
X189872876Y-92034837D01*
X189920955Y-92033810D01*
X189946310Y-92032061D01*
X189950037Y-92031007D01*
X189964513Y-92027446D01*
X189997024Y-92023882D01*
X190041214Y-92020966D01*
X190052718Y-92020442D01*
X190136488Y-92009703D01*
X190227905Y-91985619D01*
X190322357Y-91950569D01*
X190415230Y-91906930D01*
X190501910Y-91857083D01*
X190577785Y-91803405D01*
X190638240Y-91748276D01*
X190675788Y-91699158D01*
X190702009Y-91630735D01*
X190707899Y-91551216D01*
X190693275Y-91463267D01*
X190692278Y-91459673D01*
X190675558Y-91400278D01*
X190613499Y-91407477D01*
X190561771Y-91412953D01*
X190489879Y-91419813D01*
X190401999Y-91427719D01*
X190302305Y-91436331D01*
X190194972Y-91445310D01*
X190084175Y-91454317D01*
X189974090Y-91463013D01*
X189868891Y-91471057D01*
X189772753Y-91478112D01*
X189689851Y-91483836D01*
X189624360Y-91487892D01*
X189623308Y-91487951D01*
X189317853Y-91501744D01*
X189009584Y-91509356D01*
X188700736Y-91510948D01*
X188393543Y-91506684D01*
X188090240Y-91496723D01*
X187793060Y-91481229D01*
X187504238Y-91460362D01*
X187226009Y-91434286D01*
X186960607Y-91403160D01*
X186710265Y-91367147D01*
X186477219Y-91326410D01*
X186263703Y-91281109D01*
X186071951Y-91231406D01*
X186069499Y-91230699D01*
X185884795Y-91171742D01*
X185707029Y-91102928D01*
X185531566Y-91022027D01*
X185353764Y-90926808D01*
X185168987Y-90815042D01*
X185067627Y-90748991D01*
X184990434Y-90697545D01*
X184931330Y-90657846D01*
X184888145Y-90628042D01*
X184858709Y-90606283D01*
X184840851Y-90590718D01*
X184832402Y-90579495D01*
X184831191Y-90570763D01*
X184835049Y-90562671D01*
X184840470Y-90555218D01*
X184847891Y-90546950D01*
X184857221Y-90543783D01*
X184871656Y-90547265D01*
X184894394Y-90558943D01*
X184928631Y-90580364D01*
X184977565Y-90613076D01*
X185020730Y-90642467D01*
X185172830Y-90743798D01*
X185311966Y-90830753D01*
X185442857Y-90905774D01*
X185570218Y-90971299D01*
X185698768Y-91029769D01*
X185833222Y-91083624D01*
X185964313Y-91130550D01*
X186138749Y-91183871D01*
X186335283Y-91232644D01*
X186552014Y-91276745D01*
X186787044Y-91316051D01*
X187038474Y-91350436D01*
X187304406Y-91379777D01*
X187582941Y-91403950D01*
X187872180Y-91422830D01*
X188170225Y-91436293D01*
X188475176Y-91444215D01*
X188785135Y-91446472D01*
X189098203Y-91442940D01*
X189412482Y-91433493D01*
X189726072Y-91418009D01*
X190032949Y-91396693D01*
X190154939Y-91386687D01*
X190269714Y-91376761D01*
X190374954Y-91367151D01*
X190468339Y-91358094D01*
X190547549Y-91349825D01*
X190610263Y-91342582D01*
X190654160Y-91336599D01*
X190676921Y-91332114D01*
X190679539Y-91330861D01*
X190693197Y-91319860D01*
X190718547Y-91302933D01*
X190722238Y-91300626D01*
X190817666Y-91232470D01*
X190909266Y-91150254D01*
X190991281Y-91059952D01*
X191057955Y-90967539D01*
X191080247Y-90929067D01*
X191109298Y-90861087D01*
X191117134Y-90802665D01*
X191103063Y-90750161D01*
X191066393Y-90699935D01*
X191030386Y-90667012D01*
X190978262Y-90624300D01*
X190686286Y-90708862D01*
X190436976Y-90779448D01*
X190207195Y-90840905D01*
X189994051Y-90893722D01*
X189794649Y-90938387D01*
X189606094Y-90975387D01*
X189425493Y-91005211D01*
X189249950Y-91028348D01*
X189076572Y-91045284D01*
X188902465Y-91056509D01*
X188724733Y-91062510D01*
X188581172Y-91063878D01*
X188201282Y-91053501D01*
X187814940Y-91022904D01*
X187427514Y-90972847D01*
X187044377Y-90904091D01*
X186670898Y-90817394D01*
X186490976Y-90767996D01*
X186257592Y-90694146D01*
X186036336Y-90610577D01*
X185821830Y-90514783D01*
X185608697Y-90404259D01*
X185391559Y-90276500D01*
X185271245Y-90199788D01*
X185210561Y-90160446D01*
X185164852Y-90132250D01*
X185128788Y-90112813D01*
X185097044Y-90099745D01*
X185064291Y-90090660D01*
X185025202Y-90083168D01*
X185002849Y-90079473D01*
X184871625Y-90064169D01*
X184757532Y-90064165D01*
X184658312Y-90079943D01*
X184571710Y-90111987D01*
X184495471Y-90160779D01*
X184455504Y-90196551D01*
X184410010Y-90252672D01*
X184380069Y-90316959D01*
X184364014Y-90394238D01*
X184360038Y-90472678D01*
X184299152Y-90472678D01*
X184304166Y-90377790D01*
X184320647Y-90298040D01*
X184350135Y-90230442D01*
X184394280Y-90169877D01*
X184399211Y-90164396D01*
X184474409Y-90096805D01*
X184560335Y-90047867D01*
X184659011Y-90016897D01*
X184772454Y-90003213D01*
X184872430Y-90004094D01*
X184959365Y-90009932D01*
X185028295Y-90017962D01*
X185085614Y-90030198D01*
X185137718Y-90048654D01*
X185190998Y-90075341D01*
X185251851Y-90112274D01*
X185285513Y-90134157D01*
X185486881Y-90261354D01*
X185679411Y-90371470D01*
X185868574Y-90467192D01*
X186059835Y-90551208D01*
X186258662Y-90626204D01*
X186348607Y-90656597D01*
X186599383Y-90732313D01*
X186863083Y-90799428D01*
X187142082Y-90858423D01*
X187438756Y-90909778D01*
X187755480Y-90953972D01*
X187910182Y-90972210D01*
X187980733Y-90978418D01*
X188070015Y-90983669D01*
X188174139Y-90987943D01*
X188289219Y-90991219D01*
X188411369Y-90993479D01*
X188536702Y-90994701D01*
X188661331Y-90994866D01*
X188781369Y-90993953D01*
X188892929Y-90991942D01*
X188992125Y-90988814D01*
X189075070Y-90984548D01*
X189137876Y-90979124D01*
X189142363Y-90978583D01*
X189361534Y-90948809D01*
X189575260Y-90914264D01*
X189787841Y-90873990D01*
X190003579Y-90827032D01*
X190226774Y-90772432D01*
X190461728Y-90709233D01*
X190712741Y-90636478D01*
X190804587Y-90608761D01*
X190856003Y-90593206D01*
X190891108Y-90580219D01*
X190912200Y-90565189D01*
X190921579Y-90543504D01*
X190921545Y-90510553D01*
X190914396Y-90461724D01*
X190904981Y-90407434D01*
X190879660Y-90275522D01*
X190850336Y-90157286D01*
X190815160Y-90049660D01*
X190772285Y-89949576D01*
X190719863Y-89853965D01*
X190656045Y-89759761D01*
X190578983Y-89663895D01*
X190486830Y-89563300D01*
X190377736Y-89454909D01*
X190270845Y-89354848D01*
X190161047Y-89254123D01*
X190002449Y-89304372D01*
X189854745Y-89346653D01*
X189707277Y-89380331D01*
X189564678Y-89404691D01*
X189431582Y-89419017D01*
X189312621Y-89422596D01*
X189254725Y-89419710D01*
X189160663Y-89411689D01*
X189233861Y-89459784D01*
X189323613Y-89531584D01*
X189394874Y-89615982D01*
X189445510Y-89710214D01*
X189460456Y-89753224D01*
X189469765Y-89787645D01*
X189469888Y-89806019D01*
X189458573Y-89815695D01*
X189439283Y-89822260D01*
X189420396Y-89824180D01*
X189409807Y-89810951D01*
X189404245Y-89790226D01*
X189375108Y-89707645D01*
X189326417Y-89629071D01*
X189262884Y-89561060D01*
X189212475Y-89523478D01*
X189165409Y-89494010D01*
X189115691Y-89462817D01*
X189091202Y-89447422D01*
X189058205Y-89424494D01*
X189034607Y-89404086D01*
X189027535Y-89394693D01*
X189011238Y-89379548D01*
X189003078Y-89378002D01*
X188978552Y-89373790D01*
X188936585Y-89362310D01*
X188882412Y-89345297D01*
X188821268Y-89324487D01*
X188758391Y-89301614D01*
X188699016Y-89278414D01*
X188684673Y-89272490D01*
X188631577Y-89248793D01*
X188598820Y-89230232D01*
X188583381Y-89214887D01*
X188581172Y-89206704D01*
X188586348Y-89184346D01*
X188591961Y-89177577D01*
X188606671Y-89179403D01*
X188639457Y-89189063D01*
X188685839Y-89205076D01*
X188741340Y-89225965D01*
X188756618Y-89231975D01*
X188855354Y-89270048D01*
X188938530Y-89298835D01*
X189012601Y-89319573D01*
X189084022Y-89333498D01*
X189159248Y-89341846D01*
X189244733Y-89345852D01*
X189346932Y-89346753D01*
X189355859Y-89346729D01*
X189441780Y-89346096D01*
X189509191Y-89344492D01*
X189563982Y-89341388D01*
X189612038Y-89336254D01*
X189659247Y-89328562D01*
X189711497Y-89317782D01*
X189734020Y-89312738D01*
X189933617Y-89259787D01*
X190124285Y-89194056D01*
X190302180Y-89117168D01*
X190463456Y-89030748D01*
X190575840Y-88957338D01*
X190628248Y-88918008D01*
X190685146Y-88872324D01*
X190743389Y-88823154D01*
X190799832Y-88773367D01*
X190851330Y-88725831D01*
X190894739Y-88683416D01*
X190926913Y-88648990D01*
X190944709Y-88625421D01*
X190947234Y-88618564D01*
X190954336Y-88600448D01*
X190961709Y-88597214D01*
X190977801Y-88592112D01*
X191010503Y-88578320D01*
X191054626Y-88558112D01*
X191092167Y-88540075D01*
X191208814Y-88471286D01*
X191306187Y-88388037D01*
X191385712Y-88288786D01*
X191448813Y-88171991D01*
X191462248Y-88139721D01*
X191486310Y-88078722D01*
X191415369Y-88147183D01*
X191336177Y-88215739D01*
X191248054Y-88276329D01*
X191148924Y-88329676D01*
X191036713Y-88376504D01*
X190909345Y-88417538D01*
X190764744Y-88453501D01*
X190600836Y-88485117D01*
X190415544Y-88513111D01*
X190337944Y-88523091D01*
X190028592Y-88554017D01*
X189734224Y-88568803D01*
X189455587Y-88567467D01*
X189193424Y-88550024D01*
X188948481Y-88516487D01*
X188825168Y-88492032D01*
X188767300Y-88477922D01*
X188693635Y-88458068D01*
X188610899Y-88434466D01*
X188525820Y-88409118D01*
X188445127Y-88384021D01*
X188375546Y-88361175D01*
X188329531Y-88344777D01*
X188322067Y-88351308D01*
X188317999Y-88378903D01*
X188317124Y-88429065D01*
X188317204Y-88435411D01*
X188310849Y-88521930D01*
X188287706Y-88593256D01*
X188245894Y-88653511D01*
X188198356Y-88696051D01*
X188137553Y-88734252D01*
X188062130Y-88767263D01*
X187969893Y-88795716D01*
X187858650Y-88820242D01*
X187726206Y-88841474D01*
X187666186Y-88849261D01*
X187596294Y-88855864D01*
X187506010Y-88861375D01*
X187399319Y-88865774D01*
X187280204Y-88869040D01*
X187152650Y-88871154D01*
X187020641Y-88872094D01*
X186888161Y-88871840D01*
X186759195Y-88870373D01*
X186637727Y-88867671D01*
X186527741Y-88863714D01*
X186433221Y-88858481D01*
X186397406Y-88855757D01*
X186193933Y-88836053D01*
X186011347Y-88812696D01*
X185846305Y-88784897D01*
X185695461Y-88751865D01*
X185555472Y-88712811D01*
X185422994Y-88666946D01*
X185294684Y-88613478D01*
X185217732Y-88577137D01*
X185155470Y-88546307D01*
X185112124Y-88523935D01*
X185084682Y-88507787D01*
X185070128Y-88495629D01*
X185065446Y-88485227D01*
X185067624Y-88474345D01*
X185070386Y-88467932D01*
X185082612Y-88447156D01*
X185091079Y-88441479D01*
X185104031Y-88448055D01*
X185134368Y-88463518D01*
X185177747Y-88485653D01*
X185229824Y-88512243D01*
X185237272Y-88516048D01*
X185368487Y-88577344D01*
X185507471Y-88630728D01*
X185656079Y-88676504D01*
X185816168Y-88714976D01*
X185989592Y-88746449D01*
X186178207Y-88771228D01*
X186383868Y-88789618D01*
X186608432Y-88801923D01*
X186853753Y-88808448D01*
X187025696Y-88809734D01*
X187235348Y-88808029D01*
X187421958Y-88802395D01*
X187586600Y-88792621D01*
X187730348Y-88778498D01*
X187854275Y-88759816D01*
X187959454Y-88736364D01*
X188046958Y-88707934D01*
X188117861Y-88674315D01*
X188173236Y-88635297D01*
X188214157Y-88590671D01*
X188224253Y-88575371D01*
X188242332Y-88528534D01*
X188251705Y-88466737D01*
X188251662Y-88398074D01*
X188244534Y-88344455D01*
X188237292Y-88308243D01*
X188082170Y-88365880D01*
X187862374Y-88442135D01*
X187653592Y-88502811D01*
X187449330Y-88549321D01*
X187243094Y-88583081D01*
X187028391Y-88605508D01*
X186960946Y-88610263D01*
X186694577Y-88616625D01*
X186436526Y-88601616D01*
X186187999Y-88565396D01*
X185950206Y-88508125D01*
X185789606Y-88455162D01*
X185721708Y-88428216D01*
X185639684Y-88392656D01*
X185547748Y-88350580D01*
X185450113Y-88304086D01*
X185350994Y-88255271D01*
X185254604Y-88206235D01*
X185165157Y-88159074D01*
X185086867Y-88115888D01*
X185023948Y-88078773D01*
X184992225Y-88058164D01*
X184961605Y-88044694D01*
X184909548Y-88032191D01*
X184834759Y-88020364D01*
X184809228Y-88017092D01*
X184673766Y-87997747D01*
X184638373Y-87990793D01*
X185004582Y-87990793D01*
X185106253Y-88049838D01*
X185190328Y-88097039D01*
X185286632Y-88148413D01*
X185389600Y-88201208D01*
X185493668Y-88252670D01*
X185593271Y-88300049D01*
X185682846Y-88340590D01*
X185755849Y-88371158D01*
X185929711Y-88432395D01*
X186109706Y-88481140D01*
X186301923Y-88518864D01*
X186458405Y-88540885D01*
X186499859Y-88543748D01*
X186561161Y-88545207D01*
X186637807Y-88545391D01*
X186725294Y-88544427D01*
X186819118Y-88542443D01*
X186914775Y-88539567D01*
X187007763Y-88535927D01*
X187093577Y-88531650D01*
X187167714Y-88526865D01*
X187225671Y-88521699D01*
X187251393Y-88518378D01*
X187380608Y-88495716D01*
X187515263Y-88467807D01*
X187645587Y-88436830D01*
X187761808Y-88404965D01*
X187767042Y-88403397D01*
X187807745Y-88390554D01*
X187861047Y-88372883D01*
X187922741Y-88351873D01*
X187988620Y-88329012D01*
X188054479Y-88305791D01*
X188116110Y-88283698D01*
X188130040Y-88278598D01*
X188305956Y-88278598D01*
X188306157Y-88289667D01*
X188312360Y-88287135D01*
X188312776Y-88282885D01*
X188323607Y-88281158D01*
X188353694Y-88287062D01*
X188399426Y-88299715D01*
X188456124Y-88317877D01*
X188666176Y-88383181D01*
X188862544Y-88432448D01*
X189020365Y-88462256D01*
X189090453Y-88473196D01*
X189147986Y-88481422D01*
X189198708Y-88487361D01*
X189248360Y-88491440D01*
X189302684Y-88494085D01*
X189367423Y-88495723D01*
X189448319Y-88496781D01*
X189490057Y-88497169D01*
X189697454Y-88498986D01*
X189681409Y-88493516D01*
X189971950Y-88493516D01*
X189978050Y-88499616D01*
X189984150Y-88493516D01*
X189979361Y-88488727D01*
X189990249Y-88488727D01*
X190093948Y-88481783D01*
X190149416Y-88477318D01*
X190219276Y-88470607D01*
X190293737Y-88462635D01*
X190350144Y-88455999D01*
X190455266Y-88441326D01*
X190566526Y-88422837D01*
X190678148Y-88401706D01*
X190784362Y-88379113D01*
X190879393Y-88356233D01*
X190957470Y-88334243D01*
X190974857Y-88328625D01*
X191112654Y-88274812D01*
X191230746Y-88211540D01*
X191332776Y-88136434D01*
X191422387Y-88047118D01*
X191441581Y-88024368D01*
X191511030Y-87939480D01*
X191439929Y-87851356D01*
X191339357Y-87744278D01*
X191218727Y-87647680D01*
X191077679Y-87561408D01*
X190915851Y-87485310D01*
X190732884Y-87419231D01*
X190528417Y-87363020D01*
X190302091Y-87316522D01*
X190112248Y-87287182D01*
X190063448Y-87280597D01*
X190136647Y-87319452D01*
X190198175Y-87359302D01*
X190262737Y-87413194D01*
X190324237Y-87474968D01*
X190376583Y-87538465D01*
X190413679Y-87597527D01*
X190415538Y-87601316D01*
X190435889Y-87651303D01*
X190455406Y-87711798D01*
X190469027Y-87766014D01*
X190480403Y-87879548D01*
X190469034Y-87991554D01*
X190436545Y-88099305D01*
X190384562Y-88200075D01*
X190314710Y-88291138D01*
X190228614Y-88369768D01*
X190127899Y-88433239D01*
X190051408Y-88466525D01*
X189990249Y-88488727D01*
X189979361Y-88488727D01*
X189978050Y-88487416D01*
X189971950Y-88493516D01*
X189681409Y-88493516D01*
X189617450Y-88471711D01*
X189497994Y-88419386D01*
X189395629Y-88349657D01*
X189310277Y-88262456D01*
X189241859Y-88157716D01*
X189232975Y-88140333D01*
X189208519Y-88075787D01*
X189496658Y-88075787D01*
X189502143Y-88103007D01*
X189514984Y-88117215D01*
X189542892Y-88124594D01*
X189571374Y-88113722D01*
X189589710Y-88089969D01*
X189588421Y-88065140D01*
X189569596Y-88045735D01*
X189540082Y-88038063D01*
X189533801Y-88038456D01*
X189507944Y-88051205D01*
X189496658Y-88075787D01*
X189208519Y-88075787D01*
X189190026Y-88026978D01*
X189170444Y-87909883D01*
X189174266Y-87791955D01*
X189174386Y-87791446D01*
X190021047Y-87791446D01*
X190031010Y-87841496D01*
X190058612Y-87883101D01*
X190087682Y-87911370D01*
X190115373Y-87923890D01*
X190143437Y-87926225D01*
X190182790Y-87922734D01*
X190216574Y-87914207D01*
X190219456Y-87912985D01*
X190257225Y-87883426D01*
X190280542Y-87839718D01*
X190287196Y-87788818D01*
X190275065Y-87737873D01*
X190245415Y-87698898D01*
X190203262Y-87675524D01*
X190154862Y-87667750D01*
X190106473Y-87675577D01*
X190064352Y-87699005D01*
X190034829Y-87737873D01*
X190021047Y-87791446D01*
X189174386Y-87791446D01*
X189201531Y-87676103D01*
X189206662Y-87663397D01*
X189454369Y-87663397D01*
X189468703Y-87704000D01*
X189488298Y-87726509D01*
X189532603Y-87750818D01*
X189579125Y-87751830D01*
X189621673Y-87730879D01*
X189652774Y-87693827D01*
X189663563Y-87652220D01*
X189655991Y-87611494D01*
X189632007Y-87577086D01*
X189593560Y-87554430D01*
X189556233Y-87548419D01*
X189511395Y-87558228D01*
X189477969Y-87584600D01*
X189458209Y-87621627D01*
X189454369Y-87663397D01*
X189206662Y-87663397D01*
X189226154Y-87615129D01*
X189261486Y-87554410D01*
X189311123Y-87488642D01*
X189368549Y-87425496D01*
X189427246Y-87372641D01*
X189441258Y-87362005D01*
X189469216Y-87341264D01*
X189478573Y-87332001D01*
X189470571Y-87331497D01*
X189453458Y-87335346D01*
X189370679Y-87359469D01*
X189273087Y-87394846D01*
X189166127Y-87439132D01*
X189055244Y-87489982D01*
X188945885Y-87545050D01*
X188870116Y-87586581D01*
X188820671Y-87615368D01*
X188762172Y-87650382D01*
X188698365Y-87689274D01*
X188632997Y-87729696D01*
X188569816Y-87769298D01*
X188512569Y-87805733D01*
X188465001Y-87836652D01*
X188430862Y-87859705D01*
X188413901Y-87872540D01*
X188406381Y-87888275D01*
X188394906Y-87922335D01*
X188380692Y-87970014D01*
X188364955Y-88026607D01*
X188348910Y-88087409D01*
X188333772Y-88147714D01*
X188320757Y-88202817D01*
X188311080Y-88248013D01*
X188305956Y-88278598D01*
X188130040Y-88278598D01*
X188169306Y-88264222D01*
X188209861Y-88248852D01*
X188233568Y-88239077D01*
X188237758Y-88236781D01*
X188241820Y-88224318D01*
X188250835Y-88191583D01*
X188263908Y-88141997D01*
X188280144Y-88078976D01*
X188298648Y-88005939D01*
X188308251Y-87967612D01*
X188374463Y-87702400D01*
X188334470Y-87660627D01*
X188280082Y-87611454D01*
X188209667Y-87559158D01*
X188130248Y-87508606D01*
X188058464Y-87469416D01*
X187938216Y-87417271D01*
X187798126Y-87370367D01*
X187642318Y-87329359D01*
X187474915Y-87294903D01*
X187300041Y-87267656D01*
X187121820Y-87248273D01*
X186944375Y-87237412D01*
X186771829Y-87235728D01*
X186630222Y-87242140D01*
X186460050Y-87259587D01*
X186299276Y-87286640D01*
X186144959Y-87324549D01*
X185994157Y-87374566D01*
X185843928Y-87437944D01*
X185691333Y-87515934D01*
X185533429Y-87609787D01*
X185367275Y-87720755D01*
X185189930Y-87850089D01*
X185175032Y-87861372D01*
X185004582Y-87990793D01*
X184638373Y-87990793D01*
X184561745Y-87975737D01*
X184472314Y-87950711D01*
X184404626Y-87922321D01*
X184357831Y-87890218D01*
X184331079Y-87854055D01*
X184324369Y-87822004D01*
X184386662Y-87822004D01*
X184391609Y-87839444D01*
X184408081Y-87854866D01*
X184446509Y-87876561D01*
X184507725Y-87897675D01*
X184592267Y-87918363D01*
X184700671Y-87938779D01*
X184700845Y-87938808D01*
X184777508Y-87951612D01*
X184835613Y-87959536D01*
X184880736Y-87961273D01*
X184918456Y-87955514D01*
X184954348Y-87940954D01*
X184993992Y-87916285D01*
X185042965Y-87880199D01*
X185083639Y-87849086D01*
X185265356Y-87714008D01*
X185434619Y-87596949D01*
X185594127Y-87496800D01*
X185746574Y-87412452D01*
X185894657Y-87342797D01*
X186041073Y-87286727D01*
X186188517Y-87243131D01*
X186339687Y-87210903D01*
X186497278Y-87188934D01*
X186663987Y-87176114D01*
X186726801Y-87173524D01*
X186958077Y-87173912D01*
X187192611Y-87189477D01*
X187424622Y-87219424D01*
X187648333Y-87262961D01*
X187857962Y-87319294D01*
X187909282Y-87335883D01*
X188069781Y-87400862D01*
X188213669Y-87482277D01*
X188339868Y-87579440D01*
X188425245Y-87665621D01*
X188455632Y-87699070D01*
X188479885Y-87723557D01*
X188493674Y-87734770D01*
X188494921Y-87735015D01*
X188507132Y-87728207D01*
X188536471Y-87710725D01*
X188579331Y-87684750D01*
X188632103Y-87652467D01*
X188672670Y-87627492D01*
X188869626Y-87513017D01*
X189060525Y-87416220D01*
X189243517Y-87337916D01*
X189416751Y-87278919D01*
X189532757Y-87249208D01*
X189594738Y-87239106D01*
X189675018Y-87231028D01*
X189767564Y-87225156D01*
X189866344Y-87221670D01*
X189965326Y-87220753D01*
X190058478Y-87222586D01*
X190139769Y-87227351D01*
X190167571Y-87230113D01*
X190344854Y-87256391D01*
X190523691Y-87294047D01*
X190699166Y-87341562D01*
X190866360Y-87397415D01*
X191020357Y-87460090D01*
X191156237Y-87528065D01*
X191184225Y-87544179D01*
X191266071Y-87600362D01*
X191355372Y-87675921D01*
X191404145Y-87722455D01*
X191524861Y-87841981D01*
X191517456Y-87779463D01*
X191507746Y-87732140D01*
X191490860Y-87678448D01*
X191478406Y-87647821D01*
X191451682Y-87596488D01*
X191419489Y-87545199D01*
X191385305Y-87498414D01*
X191352609Y-87460596D01*
X191324878Y-87436206D01*
X191308082Y-87429356D01*
X191289497Y-87425351D01*
X191251978Y-87413948D01*
X191199388Y-87396440D01*
X191135593Y-87374123D01*
X191064458Y-87348289D01*
X191050042Y-87342945D01*
X190852728Y-87272988D01*
X190665198Y-87213359D01*
X190490628Y-87164985D01*
X190332192Y-87128790D01*
X190283045Y-87119508D01*
X190225758Y-87109938D01*
X190172847Y-87102744D01*
X190119201Y-87097597D01*
X190059711Y-87094169D01*
X189989265Y-87092133D01*
X189902754Y-87091162D01*
X189837752Y-87090948D01*
X189714405Y-87092218D01*
X189597808Y-87096751D01*
X189484469Y-87105106D01*
X189370896Y-87117844D01*
X189253597Y-87135526D01*
X189129081Y-87158713D01*
X188993855Y-87187966D01*
X188844429Y-87223844D01*
X188677309Y-87266909D01*
X188580359Y-87292842D01*
X188501640Y-87313869D01*
X188431073Y-87332250D01*
X188371956Y-87347165D01*
X188327587Y-87357793D01*
X188301265Y-87363314D01*
X188295378Y-87363759D01*
X188289596Y-87349152D01*
X188286486Y-87335277D01*
X188286977Y-87326899D01*
X188292913Y-87318628D01*
X188306369Y-87309790D01*
X188329422Y-87299714D01*
X188364148Y-87287728D01*
X188412621Y-87273160D01*
X188476918Y-87255338D01*
X188559113Y-87233589D01*
X188661283Y-87207242D01*
X188758069Y-87182587D01*
X188953758Y-87135076D01*
X189131271Y-87096868D01*
X189294751Y-87067407D01*
X189448342Y-87046140D01*
X189596187Y-87032513D01*
X189742430Y-87025970D01*
X189891214Y-87025958D01*
X189922855Y-87026724D01*
X190054407Y-87032935D01*
X190181497Y-87044514D01*
X190307534Y-87062254D01*
X190435925Y-87086950D01*
X190570079Y-87119396D01*
X190713404Y-87160388D01*
X190869308Y-87210719D01*
X191041197Y-87271184D01*
X191160035Y-87315140D01*
X191212571Y-87334742D01*
X191256089Y-87350724D01*
X191285907Y-87361385D01*
X191297283Y-87365033D01*
X191299928Y-87354114D01*
X191301520Y-87326469D01*
X191301729Y-87309742D01*
X191297752Y-87258051D01*
X191284122Y-87213494D01*
X191258294Y-87173230D01*
X191217720Y-87134416D01*
X191159852Y-87094210D01*
X191082145Y-87049773D01*
X191056607Y-87036249D01*
X191027058Y-87020729D01*
X191001378Y-87007653D01*
X190977162Y-86996594D01*
X190952004Y-86987125D01*
X190923500Y-86978819D01*
X190889244Y-86971249D01*
X190846830Y-86963990D01*
X190793853Y-86956613D01*
X190727908Y-86948692D01*
X190646590Y-86939800D01*
X190547493Y-86929511D01*
X190428212Y-86917398D01*
X190331844Y-86907648D01*
X190122049Y-86887638D01*
X189933767Y-86872513D01*
X189764585Y-86862362D01*
X189612092Y-86857276D01*
X189473876Y-86857342D01*
X189347525Y-86862651D01*
X189230629Y-86873292D01*
X189120776Y-86889354D01*
X189015553Y-86910927D01*
X188912549Y-86938100D01*
X188832192Y-86963241D01*
X188777648Y-86983542D01*
X188706909Y-87013049D01*
X188625210Y-87049294D01*
X188537781Y-87089811D01*
X188449857Y-87132132D01*
X188366669Y-87173790D01*
X188293450Y-87212319D01*
X188240537Y-87242199D01*
X188174399Y-87281466D01*
X187947742Y-87213863D01*
X187735261Y-87153504D01*
X187541045Y-87105027D01*
X187362195Y-87068177D01*
X187195813Y-87042696D01*
X187038999Y-87028326D01*
X186888853Y-87024812D01*
X186742477Y-87031895D01*
X186596970Y-87049319D01*
X186449434Y-87076826D01*
X186435857Y-87079810D01*
X186341923Y-87102501D01*
X186247844Y-87129147D01*
X186151043Y-87160802D01*
X186048939Y-87198521D01*
X185938955Y-87243359D01*
X185818512Y-87296371D01*
X185685031Y-87358612D01*
X185535933Y-87431135D01*
X185368639Y-87514997D01*
X185355084Y-87521876D01*
X185258234Y-87570469D01*
X185168617Y-87614278D01*
X185088990Y-87652029D01*
X185022108Y-87682442D01*
X184970727Y-87704243D01*
X184937603Y-87716154D01*
X184933429Y-87717233D01*
X184837688Y-87732873D01*
X184730961Y-87740201D01*
X184625369Y-87738747D01*
X184555978Y-87731872D01*
X184498027Y-87725033D01*
X184458329Y-87726089D01*
X184431427Y-87737174D01*
X184411864Y-87760426D01*
X184395544Y-87794668D01*
X184386662Y-87822004D01*
X184324369Y-87822004D01*
X184323439Y-87817561D01*
X184330510Y-87791330D01*
X184348755Y-87753571D01*
X184373718Y-87711494D01*
X184400946Y-87672309D01*
X184425983Y-87643224D01*
X184436479Y-87634601D01*
X184455583Y-87628287D01*
X184478124Y-87636623D01*
X184495450Y-87648456D01*
X184512254Y-87659621D01*
X184530318Y-87667280D01*
X184554396Y-87672060D01*
X184589239Y-87674592D01*
X184639599Y-87675503D01*
X184699605Y-87675468D01*
X184774413Y-87673927D01*
X184839142Y-87669003D01*
X184898542Y-87659274D01*
X184957363Y-87643318D01*
X185020356Y-87619714D01*
X185092269Y-87587039D01*
X185177853Y-87543874D01*
X185228817Y-87517085D01*
X185427245Y-87413736D01*
X185608154Y-87323641D01*
X185773904Y-87245905D01*
X185926851Y-87179630D01*
X186069355Y-87123920D01*
X186203771Y-87077876D01*
X186332459Y-87040603D01*
X186457777Y-87011204D01*
X186582082Y-86988781D01*
X186638977Y-86980640D01*
X186792841Y-86965989D01*
X186949686Y-86962750D01*
X187112404Y-86971271D01*
X187283885Y-86991901D01*
X187467021Y-87024985D01*
X187664702Y-87070874D01*
X187879683Y-87129873D01*
X187970145Y-87156323D01*
X188039927Y-87176430D01*
X188091807Y-87190559D01*
X188128565Y-87199074D01*
X188152979Y-87202340D01*
X188167828Y-87200722D01*
X188175890Y-87194585D01*
X188179946Y-87184292D01*
X188182774Y-87170209D01*
X188182883Y-87169664D01*
X188181278Y-87118168D01*
X188170777Y-87088675D01*
X188145752Y-87053439D01*
X188105060Y-87014119D01*
X188055543Y-86976041D01*
X188004046Y-86944530D01*
X187962208Y-86926361D01*
X187925126Y-86910892D01*
X187895668Y-86892442D01*
X187889912Y-86887063D01*
X187866367Y-86870601D01*
X187829453Y-86854144D01*
X187807386Y-86846978D01*
X187744737Y-86833385D01*
X187661424Y-86821227D01*
X187561151Y-86810609D01*
X187447618Y-86801641D01*
X187324526Y-86794430D01*
X187195576Y-86789083D01*
X187064470Y-86785707D01*
X186934909Y-86784410D01*
X186810594Y-86785300D01*
X186695226Y-86788484D01*
X186592506Y-86794069D01*
X186506136Y-86802163D01*
X186465271Y-86808003D01*
X186286716Y-86845531D01*
X186106435Y-86898849D01*
X185934337Y-86963103D01*
X185886257Y-86982953D01*
X185839862Y-87002828D01*
X185792293Y-87024112D01*
X185740692Y-87048189D01*
X185682201Y-87076442D01*
X185613961Y-87110256D01*
X185533116Y-87151013D01*
X185436807Y-87200098D01*
X185322175Y-87258894D01*
X185302679Y-87268916D01*
X185196797Y-87322173D01*
X185107262Y-87364272D01*
X185029682Y-87396903D01*
X184959662Y-87421757D01*
X184892808Y-87440526D01*
X184824727Y-87454901D01*
X184814861Y-87456657D01*
X184758792Y-87466390D01*
X184722515Y-87471810D01*
X184701734Y-87472503D01*
X184692155Y-87468053D01*
X184689482Y-87458047D01*
X184689433Y-87444565D01*
X184690034Y-87430378D01*
X184694572Y-87420302D01*
X184707147Y-87412707D01*
X184731859Y-87405962D01*
X184772808Y-87398437D01*
X184827928Y-87389490D01*
X184871152Y-87381431D01*
X184914414Y-87370609D01*
X184960621Y-87355801D01*
X185012677Y-87335789D01*
X185073488Y-87309352D01*
X185145959Y-87275268D01*
X185232996Y-87232319D01*
X185337504Y-87179282D01*
X185378722Y-87158124D01*
X185539197Y-87076632D01*
X185681801Y-87006763D01*
X185809499Y-86947440D01*
X185925253Y-86897585D01*
X186032027Y-86856119D01*
X186132783Y-86821965D01*
X186230486Y-86794044D01*
X186328098Y-86771280D01*
X186428582Y-86752595D01*
X186534902Y-86736909D01*
X186537704Y-86736540D01*
X186632338Y-86727289D01*
X186746391Y-86721341D01*
X186875123Y-86718587D01*
X187013793Y-86718918D01*
X187157661Y-86722224D01*
X187301987Y-86728397D01*
X187442029Y-86737328D01*
X187573047Y-86748907D01*
X187690300Y-86763025D01*
X187690586Y-86763065D01*
X187745485Y-86770819D01*
X187623487Y-86664869D01*
X187449552Y-86518732D01*
X187332174Y-86427688D01*
X187440490Y-86427688D01*
X187477089Y-86458456D01*
X187498719Y-86476781D01*
X187534818Y-86507519D01*
X187581330Y-86547208D01*
X187634196Y-86592387D01*
X187668965Y-86622134D01*
X187720866Y-86666183D01*
X187766336Y-86704064D01*
X187802164Y-86733156D01*
X187825135Y-86750841D01*
X187831969Y-86755043D01*
X187844674Y-86762293D01*
X187870010Y-86781162D01*
X187897792Y-86803683D01*
X187941650Y-86836621D01*
X187980076Y-86855186D01*
X188021249Y-86863935D01*
X188034492Y-86871931D01*
X188056870Y-86890194D01*
X188059227Y-86892291D01*
X188085946Y-86915502D01*
X188122059Y-86945960D01*
X188147171Y-86966735D01*
X188204834Y-87029122D01*
X188246481Y-87106819D01*
X188255934Y-87134377D01*
X188261723Y-87139582D01*
X188276054Y-87138415D01*
X188301588Y-87129841D01*
X188340986Y-87112826D01*
X188396908Y-87086335D01*
X188462802Y-87053913D01*
X188540927Y-87016615D01*
X188625170Y-86978952D01*
X188707794Y-86944221D01*
X188781061Y-86915721D01*
X188816036Y-86903405D01*
X188913681Y-86873099D01*
X189010577Y-86847828D01*
X189109005Y-86827522D01*
X189211242Y-86812108D01*
X189319566Y-86801516D01*
X189436255Y-86795673D01*
X189563589Y-86794509D01*
X189703845Y-86797953D01*
X189859301Y-86805933D01*
X190032237Y-86818377D01*
X190224929Y-86835215D01*
X190411143Y-86853456D01*
X190506572Y-86863163D01*
X190597907Y-86872433D01*
X190681249Y-86880870D01*
X190752696Y-86888080D01*
X190808350Y-86893670D01*
X190844311Y-86897245D01*
X190848275Y-86897632D01*
X190925514Y-86905154D01*
X190921474Y-86870634D01*
X190916987Y-86855224D01*
X190905233Y-86838416D01*
X190883310Y-86817657D01*
X190848316Y-86790391D01*
X190797350Y-86754065D01*
X190758837Y-86727503D01*
X190599562Y-86623061D01*
X190449290Y-86535057D01*
X190303928Y-86462199D01*
X190159378Y-86403193D01*
X190011545Y-86356745D01*
X189856333Y-86321561D01*
X189689644Y-86296347D01*
X189507384Y-86279810D01*
X189313160Y-86270873D01*
X189117639Y-86269225D01*
X188901522Y-86274827D01*
X188667475Y-86287566D01*
X188418164Y-86307328D01*
X188385975Y-86310295D01*
X188328760Y-86315990D01*
X188256600Y-86323706D01*
X188172963Y-86333023D01*
X188081317Y-86343524D01*
X187985130Y-86354787D01*
X187887868Y-86366396D01*
X187792999Y-86377931D01*
X187703991Y-86388973D01*
X187624312Y-86399104D01*
X187557429Y-86407903D01*
X187506810Y-86414954D01*
X187475922Y-86419836D01*
X187470989Y-86420822D01*
X187440490Y-86427688D01*
X187332174Y-86427688D01*
X187286484Y-86392249D01*
X187132347Y-86284302D01*
X186985204Y-86193775D01*
X186843117Y-86119551D01*
X186704151Y-86060513D01*
X186566366Y-86015545D01*
X186448504Y-85987506D01*
X186315126Y-85965984D01*
X186181253Y-85954913D01*
X186044908Y-85954713D01*
X185904117Y-85965807D01*
X185756903Y-85988617D01*
X185601290Y-86023565D01*
X185435302Y-86071073D01*
X185256963Y-86131563D01*
X185064297Y-86205457D01*
X184855330Y-86293177D01*
X184705369Y-86359826D01*
X184638437Y-86389941D01*
X184590163Y-86410838D01*
X184557067Y-86423564D01*
X184535674Y-86429170D01*
X184522504Y-86428703D01*
X184514081Y-86423213D01*
X184510364Y-86418642D01*
X184501173Y-86397706D01*
X184503403Y-86387202D01*
X184521806Y-86375415D01*
X184559784Y-86356075D01*
X184614188Y-86330513D01*
X184681868Y-86300059D01*
X184759674Y-86266046D01*
X184844457Y-86229803D01*
X184933068Y-86192663D01*
X185022356Y-86155956D01*
X185109173Y-86121014D01*
X185190369Y-86089168D01*
X185262794Y-86061749D01*
X185323299Y-86040087D01*
X185330328Y-86037695D01*
X185476588Y-85990748D01*
X185607370Y-85954559D01*
X185728550Y-85928081D01*
X185846006Y-85910266D01*
X185965612Y-85900067D01*
X186093245Y-85896436D01*
X186122910Y-85896414D01*
X186212894Y-85897490D01*
X186285223Y-85900364D01*
X186346610Y-85905595D01*
X186403769Y-85913740D01*
X186458405Y-85924289D01*
X186628282Y-85967987D01*
X186791403Y-86026385D01*
X186951829Y-86101393D01*
X187113618Y-86194916D01*
X187280828Y-86308863D01*
X187287992Y-86314096D01*
X187340186Y-86350835D01*
X187378710Y-86374785D01*
X187401710Y-86384876D01*
X187407594Y-86383064D01*
X187421181Y-86367120D01*
X187435043Y-86360943D01*
X187450264Y-86350069D01*
X187457741Y-86325653D01*
X187457570Y-86285005D01*
X187449846Y-86225436D01*
X187441483Y-86178745D01*
X187428618Y-86122605D01*
X187409536Y-86057784D01*
X187383262Y-85981589D01*
X187348821Y-85891328D01*
X187305237Y-85784308D01*
X187259074Y-85675360D01*
X187229321Y-85606753D01*
X187206666Y-85557025D01*
X187188879Y-85522508D01*
X187173732Y-85499535D01*
X187162520Y-85488050D01*
X187251393Y-85488050D01*
X187255979Y-85501844D01*
X187268737Y-85534366D01*
X187288168Y-85581943D01*
X187312770Y-85640902D01*
X187341043Y-85707571D01*
X187341473Y-85708575D01*
X187395721Y-85839212D01*
X187438745Y-85951452D01*
X187471431Y-86048083D01*
X187494666Y-86131888D01*
X187509337Y-86205653D01*
X187515056Y-86253640D01*
X187519567Y-86302197D01*
X187524216Y-86330989D01*
X187530683Y-86344601D01*
X187540648Y-86347618D01*
X187548975Y-86346257D01*
X187567901Y-86343209D01*
X187607403Y-86337723D01*
X187663830Y-86330275D01*
X187733535Y-86321340D01*
X187812867Y-86311396D01*
X187873583Y-86303916D01*
X188095697Y-86277690D01*
X188297147Y-86255992D01*
X188481199Y-86238607D01*
X188651123Y-86225319D01*
X188810188Y-86215912D01*
X188961661Y-86210172D01*
X189108813Y-86207881D01*
X189254910Y-86208825D01*
X189300960Y-86209752D01*
X189445025Y-86214880D01*
X189580299Y-86223197D01*
X189703538Y-86234367D01*
X189811497Y-86248052D01*
X189900933Y-86263915D01*
X189956700Y-86277869D01*
X189986873Y-86283687D01*
X189996349Y-86277366D01*
X189991721Y-86257829D01*
X189978938Y-86220051D01*
X189959658Y-86168130D01*
X189935536Y-86106165D01*
X189908228Y-86038257D01*
X189879390Y-85968503D01*
X189850679Y-85901005D01*
X189823749Y-85839859D01*
X189800258Y-85789166D01*
X189793733Y-85775813D01*
X189708149Y-85620223D01*
X189616537Y-85487128D01*
X189516991Y-85374978D01*
X189407608Y-85282219D01*
X189286485Y-85207299D01*
X189151717Y-85148666D01*
X189001401Y-85104767D01*
X188959366Y-85095540D01*
X188906383Y-85085370D01*
X188858967Y-85078445D01*
X188810802Y-85074374D01*
X188755577Y-85072763D01*
X188686977Y-85073220D01*
X188623871Y-85074658D01*
X188515250Y-85079524D01*
X188415345Y-85088757D01*
X188318378Y-85103473D01*
X188218574Y-85124791D01*
X188110155Y-85153829D01*
X187987346Y-85191703D01*
X187941915Y-85206583D01*
X187882523Y-85227093D01*
X187812878Y-85252498D01*
X187736179Y-85281494D01*
X187655627Y-85312776D01*
X187574422Y-85345039D01*
X187495764Y-85376980D01*
X187422854Y-85407293D01*
X187358891Y-85434674D01*
X187307076Y-85457819D01*
X187270609Y-85475424D01*
X187252691Y-85486183D01*
X187251393Y-85488050D01*
X187162520Y-85488050D01*
X187158994Y-85484438D01*
X187142437Y-85473550D01*
X187133586Y-85468941D01*
X187066313Y-85436097D01*
X186984346Y-85397266D01*
X186893178Y-85354943D01*
X186798302Y-85311621D01*
X186705210Y-85269796D01*
X186619394Y-85231963D01*
X186546347Y-85200615D01*
X186507204Y-85184450D01*
X186319251Y-85112491D01*
X186146933Y-85054811D01*
X185986677Y-85010647D01*
X185834910Y-84979233D01*
X185688057Y-84959806D01*
X185542545Y-84951601D01*
X185423514Y-84952644D01*
X185274841Y-84963967D01*
X185134094Y-84987901D01*
X184995371Y-85026055D01*
X184852768Y-85080034D01*
X184708876Y-85147161D01*
X184516977Y-85255849D01*
X184328598Y-85386344D01*
X184146386Y-85536068D01*
X183972985Y-85702443D01*
X183811045Y-85882892D01*
X183663209Y-86074837D01*
X183532126Y-86275701D01*
X183508327Y-86316414D01*
X183432569Y-86457380D01*
X183364479Y-86603479D01*
X183303230Y-86757423D01*
X183247993Y-86921924D01*
X183197939Y-87099695D01*
X183152241Y-87293446D01*
X183110069Y-87505891D01*
X183070596Y-87739740D01*
X183067540Y-87759390D01*
X183052576Y-87853399D01*
X183039959Y-87925665D01*
X183029064Y-87978667D01*
X183019268Y-88014878D01*
X183009945Y-88036776D01*
X183000473Y-88046836D01*
X182994724Y-88048223D01*
X182977788Y-88039328D01*
X182963915Y-88020320D01*
X182961237Y-88002710D01*
X182961804Y-88001617D01*
X182965752Y-87986455D01*
X182972453Y-87951271D01*
X182981197Y-87900197D01*
X182991271Y-87837363D01*
X183000254Y-87778436D01*
X183013804Y-87691335D01*
X183029619Y-87595744D01*
X183046050Y-87501284D01*
X183061448Y-87417581D01*
X183066871Y-87389662D01*
X183078881Y-87327302D01*
X183088492Y-87273973D01*
X183094979Y-87233979D01*
X183097618Y-87211625D01*
X183097350Y-87208461D01*
X183082886Y-87208950D01*
X183051252Y-87217521D01*
X183007551Y-87232296D01*
X182956889Y-87251400D01*
X182904370Y-87272956D01*
X182855097Y-87295087D01*
X182835062Y-87304876D01*
X182776246Y-87337055D01*
X182720928Y-87373152D01*
X182667613Y-87415000D01*
X182614805Y-87464433D01*
X182561007Y-87523284D01*
X182504724Y-87593386D01*
X182444460Y-87676574D01*
X182378719Y-87774681D01*
X182306005Y-87889540D01*
X182224821Y-88022985D01*
X182159609Y-88132750D01*
X182005475Y-88394174D01*
X182005475Y-88331498D01*
X182006292Y-88309417D01*
X182009785Y-88287950D01*
X182017516Y-88263746D01*
X182031051Y-88233454D01*
X182051950Y-88193721D01*
X182081779Y-88141198D01*
X182122101Y-88072533D01*
X182141649Y-88039574D01*
X182232261Y-87889194D01*
X182313993Y-87758905D01*
X182388659Y-87646868D01*
X182458075Y-87551243D01*
X182524057Y-87470190D01*
X182588420Y-87401871D01*
X182652978Y-87344447D01*
X182719547Y-87296076D01*
X182789943Y-87254921D01*
X182865981Y-87219141D01*
X182949475Y-87186898D01*
X183000088Y-87169727D01*
X183122415Y-87129832D01*
X183160553Y-86993862D01*
X183210843Y-86829923D01*
X183268038Y-86674701D01*
X183336251Y-86517461D01*
X183371266Y-86443948D01*
X183480630Y-86241187D01*
X183606139Y-86046633D01*
X183745932Y-85861831D01*
X183898152Y-85688322D01*
X184060940Y-85527649D01*
X184232436Y-85381354D01*
X184410784Y-85250981D01*
X184594123Y-85138072D01*
X184780596Y-85044169D01*
X184968344Y-84970815D01*
X185155508Y-84919553D01*
X185223496Y-84906618D01*
X185320798Y-84895245D01*
X185434195Y-84889984D01*
X185556211Y-84890640D01*
G37*
G36*
X187656088Y-88972672D02*
G01*
X187665681Y-88986665D01*
X187668442Y-88996320D01*
X187664390Y-89006932D01*
X187650872Y-89020576D01*
X187625232Y-89039331D01*
X187584816Y-89065275D01*
X187526971Y-89100483D01*
X187498363Y-89117623D01*
X187335346Y-89212010D01*
X187184615Y-89292393D01*
X187040509Y-89361297D01*
X186897363Y-89421246D01*
X186749516Y-89474763D01*
X186591303Y-89524373D01*
X186575201Y-89529069D01*
X186495786Y-89551832D01*
X186436477Y-89568049D01*
X186394058Y-89578359D01*
X186365315Y-89583399D01*
X186347036Y-89583806D01*
X186336006Y-89580220D01*
X186332340Y-89577265D01*
X186325116Y-89559125D01*
X186324207Y-89548996D01*
X186330850Y-89536677D01*
X186353135Y-89525143D01*
X186394600Y-89512826D01*
X186418756Y-89507001D01*
X186629352Y-89448992D01*
X186847919Y-89370950D01*
X187070927Y-89274362D01*
X187294846Y-89160713D01*
X187444722Y-89075107D01*
X187505553Y-89039090D01*
X187559329Y-89007889D01*
X187602498Y-88983515D01*
X187631508Y-88967977D01*
X187642540Y-88963208D01*
X187656088Y-88972672D01*
G37*
G36*
X186770095Y-87309473D02*
G01*
X186885646Y-87342257D01*
X186994136Y-87391709D01*
X187092729Y-87457377D01*
X187178593Y-87538811D01*
X187248895Y-87635560D01*
X187271099Y-87676570D01*
X187291414Y-87718523D01*
X187304894Y-87751135D01*
X187312940Y-87781428D01*
X187316954Y-87816424D01*
X187318337Y-87863145D01*
X187318492Y-87914025D01*
X187318206Y-87975291D01*
X187316418Y-88019176D01*
X187311727Y-88052699D01*
X187302735Y-88082880D01*
X187288043Y-88116736D01*
X187271204Y-88151268D01*
X187206641Y-88255270D01*
X187124330Y-88344572D01*
X187026778Y-88418077D01*
X186916492Y-88474688D01*
X186795980Y-88513307D01*
X186667750Y-88532835D01*
X186534311Y-88532177D01*
X186433366Y-88517983D01*
X186313138Y-88482382D01*
X186199802Y-88426203D01*
X186098042Y-88352343D01*
X186012543Y-88263696D01*
X186003897Y-88252596D01*
X185950399Y-88171573D01*
X186348346Y-88171573D01*
X186355103Y-88196696D01*
X186357300Y-88199247D01*
X186374869Y-88204591D01*
X186396950Y-88204330D01*
X186422947Y-88193460D01*
X186432114Y-88170904D01*
X186427343Y-88139994D01*
X186407774Y-88120741D01*
X186380302Y-88118656D01*
X186371321Y-88122323D01*
X186354535Y-88142484D01*
X186348346Y-88171573D01*
X185950399Y-88171573D01*
X185948480Y-88168666D01*
X185912552Y-88085285D01*
X185892963Y-87993905D01*
X185888079Y-87938424D01*
X185891953Y-87830026D01*
X185908303Y-87763166D01*
X186104611Y-87763166D01*
X186114927Y-87808423D01*
X186141957Y-87842070D01*
X186179828Y-87861721D01*
X186222664Y-87864988D01*
X186264590Y-87849484D01*
X186282062Y-87835281D01*
X186292718Y-87818413D01*
X186775679Y-87818413D01*
X186786805Y-87867655D01*
X186812995Y-87909958D01*
X186852640Y-87938301D01*
X186853534Y-87938668D01*
X186896498Y-87948995D01*
X186939477Y-87941955D01*
X186964961Y-87931382D01*
X187001918Y-87903450D01*
X187025597Y-87869811D01*
X187039165Y-87818449D01*
X187032509Y-87771686D01*
X187009727Y-87732173D01*
X186974918Y-87702559D01*
X186932180Y-87685495D01*
X186885611Y-87683631D01*
X186839309Y-87699616D01*
X186805060Y-87727203D01*
X186781228Y-87769255D01*
X186775679Y-87818413D01*
X186292718Y-87818413D01*
X186307635Y-87794799D01*
X186311946Y-87750556D01*
X186296024Y-87708719D01*
X186260895Y-87675454D01*
X186254860Y-87672021D01*
X186213687Y-87658917D01*
X186174766Y-87667290D01*
X186142146Y-87689413D01*
X186114765Y-87719437D01*
X186104968Y-87752823D01*
X186104611Y-87763166D01*
X185908303Y-87763166D01*
X185916455Y-87729833D01*
X185962623Y-87635497D01*
X186031494Y-87544671D01*
X186087157Y-87488056D01*
X186185577Y-87411359D01*
X186293937Y-87354037D01*
X186409402Y-87315638D01*
X186529139Y-87295712D01*
X186650314Y-87293807D01*
X186770095Y-87309473D01*
G37*
%TO.C,D12*%
X203415000Y-63900000D02*
X203415000Y-67785000D01*
X206585000Y-67785000D02*
X206585000Y-63900000D01*
X203415000Y-67785000D02*
X206585000Y-67785000D01*
%TO.C,D11*%
X210915000Y-63900000D02*
X210915000Y-67785000D01*
X214085000Y-67785000D02*
X214085000Y-63900000D01*
X210915000Y-67785000D02*
X214085000Y-67785000D01*
%TO.C,D10*%
X214084999Y-71900000D02*
X214084999Y-68015000D01*
X210914999Y-68015000D02*
X210914999Y-71900000D01*
X214084999Y-68015000D02*
X210914999Y-68015000D01*
%TO.C,D9*%
X207215000Y-63900000D02*
X207215000Y-67785000D01*
X210385000Y-67785000D02*
X210385000Y-63900000D01*
X207215000Y-67785000D02*
X210385000Y-67785000D01*
%TO.C,D8*%
X206585000Y-71900000D02*
X206585000Y-68015000D01*
X203415000Y-68015000D02*
X203415000Y-71900000D01*
X206585000Y-68015000D02*
X203415000Y-68015000D01*
%TO.C,D6*%
X210385002Y-71900002D02*
X210385002Y-68015002D01*
X207215002Y-68015002D02*
X207215002Y-71900002D01*
X210385002Y-68015002D02*
X207215002Y-68015002D01*
%TO.C,D5*%
X202985004Y-71900004D02*
X202985004Y-68015004D01*
X199815004Y-68015004D02*
X199815004Y-71900004D01*
X202985004Y-68015004D02*
X199815004Y-68015004D01*
%TO.C,J4*%
X183030000Y-97930000D02*
X183030000Y-96600000D01*
X184360000Y-97930000D02*
X183030000Y-97930000D01*
X185630000Y-97930000D02*
X190770000Y-97930000D01*
X185630000Y-97930000D02*
X185630000Y-95270000D01*
X190770000Y-97930000D02*
X190770000Y-95270000D01*
X185630000Y-95270000D02*
X190770000Y-95270000D01*
%TO.C,C13*%
X184940580Y-61610000D02*
X184659420Y-61610000D01*
X184940580Y-60590000D02*
X184659420Y-60590000D01*
%TO.C,C17*%
X192412164Y-68540000D02*
X192627836Y-68540000D01*
X192412164Y-69260000D02*
X192627836Y-69260000D01*
%TO.C,C9*%
X190960000Y-80712164D02*
X190960000Y-80927836D01*
X190240000Y-80712164D02*
X190240000Y-80927836D01*
%TO.C,C11*%
X186440000Y-66107836D02*
X186440000Y-65892164D01*
X187160000Y-66107836D02*
X187160000Y-65892164D01*
%TO.C,R4*%
X188880000Y-67946359D02*
X188880000Y-68253641D01*
X188120000Y-67946359D02*
X188120000Y-68253641D01*
%TO.C,R5*%
X186863641Y-79580000D02*
X186556359Y-79580000D01*
X186863641Y-78820000D02*
X186556359Y-78820000D01*
%TO.C,C12*%
X184115580Y-56110000D02*
X183834420Y-56110000D01*
X184115580Y-55090000D02*
X183834420Y-55090000D01*
%TO.C,C16*%
X190240000Y-68507836D02*
X190240000Y-68292164D01*
X190960000Y-68507836D02*
X190960000Y-68292164D01*
%TO.C,R3*%
X187880000Y-67946359D02*
X187880000Y-68253641D01*
X187120000Y-67946359D02*
X187120000Y-68253641D01*
%TO.C,C5*%
X189940000Y-64727836D02*
X189940000Y-64512164D01*
X190660000Y-64727836D02*
X190660000Y-64512164D01*
%TO.C,C7*%
X181892164Y-62050000D02*
X182107836Y-62050000D01*
X181892164Y-62770000D02*
X182107836Y-62770000D01*
%TO.C,C10*%
X189140000Y-68507836D02*
X189140000Y-68292164D01*
X189860000Y-68507836D02*
X189860000Y-68292164D01*
%TO.C,C1*%
X188660000Y-79492164D02*
X188660000Y-79707836D01*
X187940000Y-79492164D02*
X187940000Y-79707836D01*
%TO.C,C8*%
X191892164Y-69640000D02*
X192107836Y-69640000D01*
X191892164Y-70360000D02*
X192107836Y-70360000D01*
%TO.C,J2*%
X175070000Y-46950000D02*
X176400000Y-46950000D01*
X175070000Y-48280000D02*
X175070000Y-46950000D01*
X175070000Y-49550000D02*
X175070000Y-97870000D01*
X175070000Y-49550000D02*
X177730000Y-49550000D01*
X175070000Y-97870000D02*
X177730000Y-97870000D01*
X177730000Y-49550000D02*
X177730000Y-97870000D01*
%TO.C,U1*%
X183290000Y-77472500D02*
X183290000Y-76822500D01*
X183940000Y-70252500D02*
X183290000Y-70252500D01*
X183940000Y-77472500D02*
X183290000Y-77472500D01*
X189860000Y-70252500D02*
X190510000Y-70252500D01*
X189860000Y-77472500D02*
X190510000Y-77472500D01*
X190510000Y-70252500D02*
X190510000Y-70902500D01*
X190510000Y-77472500D02*
X190510000Y-76822500D01*
%TO.C,C15*%
X187940000Y-81687836D02*
X187940000Y-81472164D01*
X188660000Y-81687836D02*
X188660000Y-81472164D01*
%TO.C,C6*%
X182127836Y-65270000D02*
X181912164Y-65270000D01*
X182127836Y-64550000D02*
X181912164Y-64550000D01*
%TO.C,R7*%
X184000000Y-63856359D02*
X184000000Y-64163641D01*
X183240000Y-63856359D02*
X183240000Y-64163641D01*
%TO.C,C2*%
X188840000Y-64727836D02*
X188840000Y-64512164D01*
X189560000Y-64727836D02*
X189560000Y-64512164D01*
%TO.C,C14*%
X182440000Y-80907836D02*
X182440000Y-80692164D01*
X183160000Y-80907836D02*
X183160000Y-80692164D01*
%TO.C,R6*%
X182173641Y-63990000D02*
X181866359Y-63990000D01*
X182173641Y-63230000D02*
X181866359Y-63230000D01*
%TO.C,Y1*%
X183500000Y-80000000D02*
X183500000Y-83300000D01*
X183500000Y-83300000D02*
X187500000Y-83300000D01*
%TO.C,C3*%
X181087836Y-75260000D02*
X180872164Y-75260000D01*
X181087836Y-74540000D02*
X180872164Y-74540000D01*
%TO.C,J1*%
X212160000Y-55299994D02*
X214160000Y-55299994D01*
X216060000Y-55299994D02*
X217960000Y-55299994D01*
X217960000Y-55299994D02*
X217960000Y-45899994D01*
X212160000Y-45899994D02*
X214160000Y-45899994D01*
X216060000Y-45899994D02*
X217960000Y-45899994D01*
%TO.C,SW1*%
X193070000Y-60770000D02*
X188930000Y-60770000D01*
X193070000Y-60470000D02*
X193070000Y-60770000D01*
X193070000Y-57630000D02*
X193070000Y-57930000D01*
X188930000Y-60770000D02*
X188930000Y-60470000D01*
X188930000Y-57930000D02*
X188930000Y-57630000D01*
X188930000Y-57630000D02*
X193070000Y-57630000D01*
%TO.C,C4*%
X191769190Y-67221693D02*
X191921693Y-67069190D01*
X192278307Y-67730810D02*
X192430810Y-67578307D01*
%TO.C,U4*%
X183240000Y-58337500D02*
X183240000Y-60012500D01*
X183240000Y-58337500D02*
X183240000Y-57687500D01*
X186360000Y-58337500D02*
X186360000Y-58987500D01*
X186360000Y-58337500D02*
X186360000Y-57687500D01*
%TO.C,R2*%
X207053641Y-52280000D02*
X206746359Y-52280000D01*
X207053641Y-51520000D02*
X206746359Y-51520000D01*
%TO.C,U3*%
X182412500Y-67960000D02*
X185412500Y-67960000D01*
X183912500Y-65740000D02*
X185412500Y-65740000D01*
%TD*%
M02*
