%TF.GenerationSoftware,KiCad,Pcbnew,7.0.10*%
%TF.CreationDate,2025-11-23T12:01:09-06:00*%
%TF.ProjectId,FrankDevBoard,4672616e-6b44-4657-9642-6f6172642e6b,rev?*%
%TF.SameCoordinates,Original*%
%TF.FileFunction,Copper,L1,Top*%
%TF.FilePolarity,Positive*%
%FSLAX46Y46*%
G04 Gerber Fmt 4.6, Leading zero omitted, Abs format (unit mm)*
G04 Created by KiCad (PCBNEW 7.0.10) date 2025-11-23 12:01:09*
%MOMM*%
%LPD*%
G01*
G04 APERTURE LIST*
G04 Aperture macros list*
%AMRoundRect*
0 Rectangle with rounded corners*
0 $1 Rounding radius*
0 $2 $3 $4 $5 $6 $7 $8 $9 X,Y pos of 4 corners*
0 Add a 4 corners polygon primitive as box body*
4,1,4,$2,$3,$4,$5,$6,$7,$8,$9,$2,$3,0*
0 Add four circle primitives for the rounded corners*
1,1,$1+$1,$2,$3*
1,1,$1+$1,$4,$5*
1,1,$1+$1,$6,$7*
1,1,$1+$1,$8,$9*
0 Add four rect primitives between the rounded corners*
20,1,$1+$1,$2,$3,$4,$5,0*
20,1,$1+$1,$4,$5,$6,$7,0*
20,1,$1+$1,$6,$7,$8,$9,0*
20,1,$1+$1,$8,$9,$2,$3,0*%
G04 Aperture macros list end*
%TA.AperFunction,SMDPad,CuDef*%
%ADD10R,0.675000X0.250000*%
%TD*%
%TA.AperFunction,SMDPad,CuDef*%
%ADD11R,0.250000X0.675000*%
%TD*%
%TA.AperFunction,SMDPad,CuDef*%
%ADD12RoundRect,0.135000X-0.185000X0.135000X-0.185000X-0.135000X0.185000X-0.135000X0.185000X0.135000X0*%
%TD*%
%TA.AperFunction,SMDPad,CuDef*%
%ADD13RoundRect,0.140000X0.140000X0.170000X-0.140000X0.170000X-0.140000X-0.170000X0.140000X-0.170000X0*%
%TD*%
%TA.AperFunction,SMDPad,CuDef*%
%ADD14RoundRect,0.140000X-0.140000X-0.170000X0.140000X-0.170000X0.140000X0.170000X-0.140000X0.170000X0*%
%TD*%
%TA.AperFunction,SMDPad,CuDef*%
%ADD15RoundRect,0.250000X1.075000X-0.375000X1.075000X0.375000X-1.075000X0.375000X-1.075000X-0.375000X0*%
%TD*%
%TA.AperFunction,ComponentPad*%
%ADD16R,1.700000X1.700000*%
%TD*%
%TA.AperFunction,ComponentPad*%
%ADD17O,1.700000X1.700000*%
%TD*%
%TA.AperFunction,SMDPad,CuDef*%
%ADD18RoundRect,0.135000X0.135000X0.185000X-0.135000X0.185000X-0.135000X-0.185000X0.135000X-0.185000X0*%
%TD*%
%TA.AperFunction,SMDPad,CuDef*%
%ADD19RoundRect,0.250000X-1.075000X0.375000X-1.075000X-0.375000X1.075000X-0.375000X1.075000X0.375000X0*%
%TD*%
%TA.AperFunction,SMDPad,CuDef*%
%ADD20RoundRect,0.225000X0.225000X0.250000X-0.225000X0.250000X-0.225000X-0.250000X0.225000X-0.250000X0*%
%TD*%
%TA.AperFunction,SMDPad,CuDef*%
%ADD21RoundRect,0.140000X-0.170000X0.140000X-0.170000X-0.140000X0.170000X-0.140000X0.170000X0.140000X0*%
%TD*%
%TA.AperFunction,SMDPad,CuDef*%
%ADD22RoundRect,0.140000X0.170000X-0.140000X0.170000X0.140000X-0.170000X0.140000X-0.170000X-0.140000X0*%
%TD*%
%TA.AperFunction,SMDPad,CuDef*%
%ADD23RoundRect,0.050000X-0.387500X-0.050000X0.387500X-0.050000X0.387500X0.050000X-0.387500X0.050000X0*%
%TD*%
%TA.AperFunction,SMDPad,CuDef*%
%ADD24RoundRect,0.050000X-0.050000X-0.387500X0.050000X-0.387500X0.050000X0.387500X-0.050000X0.387500X0*%
%TD*%
%TA.AperFunction,SMDPad,CuDef*%
%ADD25R,3.200000X3.200000*%
%TD*%
%TA.AperFunction,SMDPad,CuDef*%
%ADD26R,1.400000X1.200000*%
%TD*%
%TA.AperFunction,SMDPad,CuDef*%
%ADD27R,1.450000X0.600000*%
%TD*%
%TA.AperFunction,SMDPad,CuDef*%
%ADD28R,1.450000X0.300000*%
%TD*%
%TA.AperFunction,ComponentPad*%
%ADD29O,2.100000X1.000000*%
%TD*%
%TA.AperFunction,ComponentPad*%
%ADD30O,1.600000X1.000000*%
%TD*%
%TA.AperFunction,SMDPad,CuDef*%
%ADD31RoundRect,0.200000X0.200000X0.800000X-0.200000X0.800000X-0.200000X-0.800000X0.200000X-0.800000X0*%
%TD*%
%TA.AperFunction,SMDPad,CuDef*%
%ADD32RoundRect,0.140000X0.021213X-0.219203X0.219203X-0.021213X-0.021213X0.219203X-0.219203X0.021213X0*%
%TD*%
%TA.AperFunction,SMDPad,CuDef*%
%ADD33RoundRect,0.150000X0.150000X-0.587500X0.150000X0.587500X-0.150000X0.587500X-0.150000X-0.587500X0*%
%TD*%
%TA.AperFunction,SMDPad,CuDef*%
%ADD34RoundRect,0.087500X-0.175000X-0.087500X0.175000X-0.087500X0.175000X0.087500X-0.175000X0.087500X0*%
%TD*%
%TA.AperFunction,SMDPad,CuDef*%
%ADD35R,1.400000X1.600000*%
%TD*%
%TA.AperFunction,ViaPad*%
%ADD36C,0.800000*%
%TD*%
%TA.AperFunction,ViaPad*%
%ADD37C,0.600000*%
%TD*%
%TA.AperFunction,Conductor*%
%ADD38C,0.200000*%
%TD*%
%TA.AperFunction,Conductor*%
%ADD39C,0.250000*%
%TD*%
G04 APERTURE END LIST*
D10*
%TO.P,U2,1,SDO*%
%TO.N,unconnected-(U2-SDO-Pad1)*%
X187562500Y-50350000D03*
%TO.P,U2,2,ASDx*%
%TO.N,unconnected-(U2-ASDx-Pad2)*%
X187562500Y-49850000D03*
%TO.P,U2,3,ASCx*%
%TO.N,unconnected-(U2-ASCx-Pad3)*%
X187562500Y-49350000D03*
%TO.P,U2,4,INT1*%
%TO.N,unconnected-(U2-INT1-Pad4)*%
X187562500Y-48850000D03*
D11*
%TO.P,U2,5,VDDIO*%
%TO.N,+3.3V*%
X186800000Y-48587500D03*
%TO.P,U2,6,GNDIO*%
%TO.N,GND*%
X186300000Y-48587500D03*
%TO.P,U2,7,GND*%
X185800000Y-48587500D03*
D10*
%TO.P,U2,8,VDD*%
%TO.N,+3.3V*%
X185037500Y-48850000D03*
%TO.P,U2,9,INT2*%
%TO.N,unconnected-(U2-INT2-Pad9)*%
X185037500Y-49350000D03*
%TO.P,U2,10,OCSB*%
%TO.N,unconnected-(U2-OCSB-Pad10)*%
X185037500Y-49850000D03*
%TO.P,U2,11,OSDO*%
%TO.N,unconnected-(U2-OSDO-Pad11)*%
X185037500Y-50350000D03*
D11*
%TO.P,U2,12,CSB*%
%TO.N,+3.3V*%
X185800000Y-50612500D03*
%TO.P,U2,13,SCx*%
%TO.N,GPIO1*%
X186300000Y-50612500D03*
%TO.P,U2,14,SDx*%
%TO.N,GPIO0*%
X186800000Y-50612500D03*
%TD*%
D12*
%TO.P,R9,1*%
%TO.N,GPIO1*%
X189780000Y-49310000D03*
%TO.P,R9,2*%
%TO.N,+3.3V*%
X189780000Y-50330000D03*
%TD*%
%TO.P,R8,1*%
%TO.N,GPIO0*%
X190780000Y-49310000D03*
%TO.P,R8,2*%
%TO.N,+3.3V*%
X190780000Y-50330000D03*
%TD*%
D13*
%TO.P,C19,1*%
%TO.N,GND*%
X192780000Y-50320000D03*
%TO.P,C19,2*%
%TO.N,+3.3V*%
X191820000Y-50320000D03*
%TD*%
D14*
%TO.P,C18,1*%
%TO.N,+3.3V*%
X191820000Y-49320000D03*
%TO.P,C18,2*%
%TO.N,GND*%
X192780000Y-49320000D03*
%TD*%
D15*
%TO.P,D1,1,K*%
%TO.N,GND*%
X201400000Y-66900000D03*
%TO.P,D1,2,A*%
%TO.N,+3.3V*%
X201400000Y-64100000D03*
%TD*%
D16*
%TO.P,J3,1,Pin_1*%
%TO.N,VBUS*%
X197200000Y-48540000D03*
D17*
%TO.P,J3,2,Pin_2*%
%TO.N,GPIO29_ADC3*%
X197200000Y-51080000D03*
%TO.P,J3,3,Pin_3*%
%TO.N,GND*%
X197200000Y-53620000D03*
%TO.P,J3,4,Pin_4*%
%TO.N,GPIO28_ADC2*%
X197200000Y-56160000D03*
%TO.P,J3,5,Pin_5*%
%TO.N,+3.3V*%
X197200000Y-58700000D03*
%TO.P,J3,6,Pin_6*%
%TO.N,GPIO27_ADC1*%
X197200000Y-61240000D03*
%TO.P,J3,7,Pin_7*%
%TO.N,GPIO26_ADC0*%
X197200000Y-63780000D03*
%TO.P,J3,8,Pin_8*%
%TO.N,GND*%
X197200000Y-66320000D03*
%TO.P,J3,9,Pin_9*%
%TO.N,GPIO24*%
X197200000Y-68860000D03*
%TO.P,J3,10,Pin_10*%
%TO.N,GPIO23*%
X197200000Y-71400000D03*
%TO.P,J3,11,Pin_11*%
%TO.N,RUN*%
X197200000Y-73940000D03*
%TO.P,J3,12,Pin_12*%
%TO.N,GPIO22*%
X197200000Y-76480000D03*
%TO.P,J3,13,Pin_13*%
%TO.N,GND*%
X197200000Y-79020000D03*
%TO.P,J3,14,Pin_14*%
%TO.N,GPIO21*%
X197200000Y-81560000D03*
%TO.P,J3,15,Pin_15*%
%TO.N,GPIO20*%
X197200000Y-84100000D03*
%TO.P,J3,16,Pin_16*%
%TO.N,GPIO19*%
X197200000Y-86640000D03*
%TO.P,J3,17,Pin_17*%
%TO.N,GPIO18*%
X197200000Y-89180000D03*
%TO.P,J3,18,Pin_18*%
%TO.N,GND*%
X197200000Y-91720000D03*
%TO.P,J3,19,Pin_19*%
%TO.N,GPIO17*%
X197200000Y-94260000D03*
%TO.P,J3,20,Pin_20*%
%TO.N,GPIO16*%
X197200000Y-96800000D03*
%TD*%
D18*
%TO.P,R1,1*%
%TO.N,Net-(J1-CC2)*%
X207410000Y-48900000D03*
%TO.P,R1,2*%
%TO.N,GND*%
X206390000Y-48900000D03*
%TD*%
D15*
%TO.P,D12,2,A*%
%TO.N,+3.3V*%
X205000000Y-64100000D03*
%TO.P,D12,1,K*%
%TO.N,GND*%
X205000000Y-66900000D03*
%TD*%
%TO.P,D11,2,A*%
%TO.N,+3.3V*%
X212500000Y-64100000D03*
%TO.P,D11,1,K*%
%TO.N,GND*%
X212500000Y-66900000D03*
%TD*%
D19*
%TO.P,D10,2,A*%
%TO.N,+3.3V*%
X212499999Y-71700000D03*
%TO.P,D10,1,K*%
%TO.N,GND*%
X212499999Y-68900000D03*
%TD*%
D15*
%TO.P,D9,2,A*%
%TO.N,+3.3V*%
X208800000Y-64100000D03*
%TO.P,D9,1,K*%
%TO.N,GND*%
X208800000Y-66900000D03*
%TD*%
D19*
%TO.P,D8,2,A*%
%TO.N,+3.3V*%
X205000000Y-71700000D03*
%TO.P,D8,1,K*%
%TO.N,GND*%
X205000000Y-68900000D03*
%TD*%
%TO.P,D6,2,A*%
%TO.N,+3.3V*%
X208800002Y-71700002D03*
%TO.P,D6,1,K*%
%TO.N,GND*%
X208800002Y-68900002D03*
%TD*%
%TO.P,D5,2,A*%
%TO.N,+3.3V*%
X201400004Y-71700004D03*
%TO.P,D5,1,K*%
%TO.N,GND*%
X201400004Y-68900004D03*
%TD*%
D16*
%TO.P,J4,1,Pin_1*%
%TO.N,SWCLK*%
X184360000Y-96600000D03*
D17*
%TO.P,J4,2,Pin_2*%
%TO.N,GND*%
X186900000Y-96600000D03*
%TO.P,J4,3,Pin_3*%
%TO.N,SWD*%
X189440000Y-96600000D03*
%TD*%
D20*
%TO.P,C13,1*%
%TO.N,+3.3V*%
X185575000Y-61100000D03*
%TO.P,C13,2*%
%TO.N,GND*%
X184025000Y-61100000D03*
%TD*%
D14*
%TO.P,C17,1*%
%TO.N,+3.3V*%
X192040000Y-68900000D03*
%TO.P,C17,2*%
%TO.N,GND*%
X193000000Y-68900000D03*
%TD*%
D21*
%TO.P,C9,1*%
%TO.N,+1V0*%
X190600000Y-80340000D03*
%TO.P,C9,2*%
%TO.N,GND*%
X190600000Y-81300000D03*
%TD*%
D22*
%TO.P,C11,1*%
%TO.N,+1V0*%
X186800000Y-66480000D03*
%TO.P,C11,2*%
%TO.N,GND*%
X186800000Y-65520000D03*
%TD*%
D12*
%TO.P,R4,1*%
%TO.N,USB_D-*%
X188500000Y-67590000D03*
%TO.P,R4,2*%
%TO.N,Net-(U1-USB_DM)*%
X188500000Y-68610000D03*
%TD*%
D18*
%TO.P,R5,1*%
%TO.N,Net-(C15-Pad2)*%
X187220000Y-79200000D03*
%TO.P,R5,2*%
%TO.N,XOUT*%
X186200000Y-79200000D03*
%TD*%
D20*
%TO.P,C12,1*%
%TO.N,VBUS*%
X184750000Y-55600000D03*
%TO.P,C12,2*%
%TO.N,GND*%
X183200000Y-55600000D03*
%TD*%
D22*
%TO.P,C16,1*%
%TO.N,+3.3V*%
X190600000Y-68880000D03*
%TO.P,C16,2*%
%TO.N,GND*%
X190600000Y-67920000D03*
%TD*%
D12*
%TO.P,R3,1*%
%TO.N,USB_D+*%
X187500000Y-67590000D03*
%TO.P,R3,2*%
%TO.N,Net-(U1-USB_DP)*%
X187500000Y-68610000D03*
%TD*%
D22*
%TO.P,C5,1*%
%TO.N,+3.3V*%
X190300000Y-65100000D03*
%TO.P,C5,2*%
%TO.N,GND*%
X190300000Y-64140000D03*
%TD*%
D14*
%TO.P,C7,1*%
%TO.N,+3.3V*%
X181520000Y-62410000D03*
%TO.P,C7,2*%
%TO.N,GND*%
X182480000Y-62410000D03*
%TD*%
D22*
%TO.P,C10,1*%
%TO.N,+1V0*%
X189500000Y-68880000D03*
%TO.P,C10,2*%
%TO.N,GND*%
X189500000Y-67920000D03*
%TD*%
D21*
%TO.P,C1,1*%
%TO.N,+3.3V*%
X188300000Y-79120000D03*
%TO.P,C1,2*%
%TO.N,GND*%
X188300000Y-80080000D03*
%TD*%
D14*
%TO.P,C8,1*%
%TO.N,+3.3V*%
X191520000Y-70000000D03*
%TO.P,C8,2*%
%TO.N,GND*%
X192480000Y-70000000D03*
%TD*%
D16*
%TO.P,J2,1,Pin_1*%
%TO.N,GPIO0*%
X176400000Y-48280000D03*
D17*
%TO.P,J2,2,Pin_2*%
%TO.N,GPIO1*%
X176400000Y-50820000D03*
%TO.P,J2,3,Pin_3*%
%TO.N,GND*%
X176400000Y-53360000D03*
%TO.P,J2,4,Pin_4*%
%TO.N,GPIO2*%
X176400000Y-55900000D03*
%TO.P,J2,5,Pin_5*%
%TO.N,GPIO3*%
X176400000Y-58440000D03*
%TO.P,J2,6,Pin_6*%
%TO.N,GPIO4*%
X176400000Y-60980000D03*
%TO.P,J2,7,Pin_7*%
%TO.N,GPIO5*%
X176400000Y-63520000D03*
%TO.P,J2,8,Pin_8*%
%TO.N,GND*%
X176400000Y-66060000D03*
%TO.P,J2,9,Pin_9*%
%TO.N,GPIO8*%
X176400000Y-68600000D03*
%TO.P,J2,10,Pin_10*%
%TO.N,GPIO7*%
X176400000Y-71140000D03*
%TO.P,J2,11,Pin_11*%
%TO.N,GPIO6*%
X176400000Y-73680000D03*
%TO.P,J2,12,Pin_12*%
%TO.N,GPIO9*%
X176400000Y-76220000D03*
%TO.P,J2,13,Pin_13*%
%TO.N,GND*%
X176400000Y-78760000D03*
%TO.P,J2,14,Pin_14*%
%TO.N,GPIO10*%
X176400000Y-81300000D03*
%TO.P,J2,15,Pin_15*%
%TO.N,GPIO11*%
X176400000Y-83840000D03*
%TO.P,J2,16,Pin_16*%
%TO.N,GPIO12*%
X176400000Y-86380000D03*
%TO.P,J2,17,Pin_17*%
%TO.N,GPIO13*%
X176400000Y-88920000D03*
%TO.P,J2,18,Pin_18*%
%TO.N,GND*%
X176400000Y-91460000D03*
%TO.P,J2,19,Pin_19*%
%TO.N,GPIO14*%
X176400000Y-94000000D03*
%TO.P,J2,20,Pin_20*%
%TO.N,GPIO15*%
X176400000Y-96540000D03*
%TD*%
D23*
%TO.P,U1,1,IOVDD*%
%TO.N,+3.3V*%
X183462500Y-71262500D03*
%TO.P,U1,2,GPIO0*%
%TO.N,GPIO0*%
X183462500Y-71662500D03*
%TO.P,U1,3,GPIO1*%
%TO.N,GPIO1*%
X183462500Y-72062500D03*
%TO.P,U1,4,GPIO2*%
%TO.N,GPIO2*%
X183462500Y-72462500D03*
%TO.P,U1,5,GPIO3*%
%TO.N,GPIO3*%
X183462500Y-72862500D03*
%TO.P,U1,6,GPIO4*%
%TO.N,GPIO4*%
X183462500Y-73262500D03*
%TO.P,U1,7,GPIO5*%
%TO.N,GPIO5*%
X183462500Y-73662500D03*
%TO.P,U1,8,GPIO6*%
%TO.N,GPIO6*%
X183462500Y-74062500D03*
%TO.P,U1,9,GPIO7*%
%TO.N,GPIO7*%
X183462500Y-74462500D03*
%TO.P,U1,10,IOVDD*%
%TO.N,+3.3V*%
X183462500Y-74862500D03*
%TO.P,U1,11,GPIO8*%
%TO.N,GPIO8*%
X183462500Y-75262500D03*
%TO.P,U1,12,GPIO9*%
%TO.N,GPIO9*%
X183462500Y-75662500D03*
%TO.P,U1,13,GPIO10*%
%TO.N,GPIO10*%
X183462500Y-76062500D03*
%TO.P,U1,14,GPIO11*%
%TO.N,GPIO11*%
X183462500Y-76462500D03*
D24*
%TO.P,U1,15,GPIO12*%
%TO.N,GPIO12*%
X184300000Y-77300000D03*
%TO.P,U1,16,GPIO13*%
%TO.N,GPIO13*%
X184700000Y-77300000D03*
%TO.P,U1,17,GPIO14*%
%TO.N,GPIO14*%
X185100000Y-77300000D03*
%TO.P,U1,18,GPIO15*%
%TO.N,GPIO15*%
X185500000Y-77300000D03*
%TO.P,U1,19,TESTEN*%
%TO.N,GND*%
X185900000Y-77300000D03*
%TO.P,U1,20,XIN*%
%TO.N,XIN*%
X186300000Y-77300000D03*
%TO.P,U1,21,XOUT*%
%TO.N,XOUT*%
X186700000Y-77300000D03*
%TO.P,U1,22,IOVDD*%
%TO.N,+3.3V*%
X187100000Y-77300000D03*
%TO.P,U1,23,DVDD*%
%TO.N,+1V0*%
X187500000Y-77300000D03*
%TO.P,U1,24,SWCLK*%
%TO.N,SWCLK*%
X187900000Y-77300000D03*
%TO.P,U1,25,SWD*%
%TO.N,SWD*%
X188300000Y-77300000D03*
%TO.P,U1,26,RUN*%
%TO.N,RUN*%
X188700000Y-77300000D03*
%TO.P,U1,27,GPIO16*%
%TO.N,GPIO16*%
X189100000Y-77300000D03*
%TO.P,U1,28,GPIO17*%
%TO.N,GPIO17*%
X189500000Y-77300000D03*
D23*
%TO.P,U1,29,GPIO18*%
%TO.N,GPIO18*%
X190337500Y-76462500D03*
%TO.P,U1,30,GPIO19*%
%TO.N,GPIO19*%
X190337500Y-76062500D03*
%TO.P,U1,31,GPIO20*%
%TO.N,GPIO20*%
X190337500Y-75662500D03*
%TO.P,U1,32,GPIO21*%
%TO.N,GPIO21*%
X190337500Y-75262500D03*
%TO.P,U1,33,IOVDD*%
%TO.N,+3.3V*%
X190337500Y-74862500D03*
%TO.P,U1,34,GPIO22*%
%TO.N,GPIO22*%
X190337500Y-74462500D03*
%TO.P,U1,35,GPIO23*%
%TO.N,GPIO23*%
X190337500Y-74062500D03*
%TO.P,U1,36,GPIO24*%
%TO.N,GPIO24*%
X190337500Y-73662500D03*
%TO.P,U1,37,GPIO25*%
%TO.N,unconnected-(U1-GPIO25-Pad37)*%
X190337500Y-73262500D03*
%TO.P,U1,38,GPIO26_ADC0*%
%TO.N,GPIO26_ADC0*%
X190337500Y-72862500D03*
%TO.P,U1,39,GPIO27_ADC1*%
%TO.N,GPIO27_ADC1*%
X190337500Y-72462500D03*
%TO.P,U1,40,GPIO28_ADC2*%
%TO.N,GPIO28_ADC2*%
X190337500Y-72062500D03*
%TO.P,U1,41,GPIO29_ADC3*%
%TO.N,GPIO29_ADC3*%
X190337500Y-71662500D03*
%TO.P,U1,42,IOVDD*%
%TO.N,+3.3V*%
X190337500Y-71262500D03*
D24*
%TO.P,U1,43,ADC_AVDD*%
X189500000Y-70425000D03*
%TO.P,U1,44,VREG_IN*%
X189100000Y-70425000D03*
%TO.P,U1,45,VREG_VOUT*%
%TO.N,+1V0*%
X188700000Y-70425000D03*
%TO.P,U1,46,USB_DM*%
%TO.N,Net-(U1-USB_DM)*%
X188300000Y-70425000D03*
%TO.P,U1,47,USB_DP*%
%TO.N,Net-(U1-USB_DP)*%
X187900000Y-70425000D03*
%TO.P,U1,48,USB_VDD*%
%TO.N,+3.3V*%
X187500000Y-70425000D03*
%TO.P,U1,49,IOVDD*%
X187100000Y-70425000D03*
%TO.P,U1,50,DVDD*%
%TO.N,+1V0*%
X186700000Y-70425000D03*
%TO.P,U1,51,QSPI_SD3*%
%TO.N,QSPI_SD3*%
X186300000Y-70425000D03*
%TO.P,U1,52,QSPI_SCLK*%
%TO.N,QSPI_SCLK*%
X185900000Y-70425000D03*
%TO.P,U1,53,QSPI_SD0*%
%TO.N,QSPI_SD0*%
X185500000Y-70425000D03*
%TO.P,U1,54,QSPI_SD2*%
%TO.N,QSPI_SD2*%
X185100000Y-70425000D03*
%TO.P,U1,55,QSPI_SD1*%
%TO.N,QSPI_SD1*%
X184700000Y-70425000D03*
%TO.P,U1,56,QSPI_SS*%
%TO.N,QSPI_SS*%
X184300000Y-70425000D03*
D25*
%TO.P,U1,57,GND*%
%TO.N,GND*%
X186900000Y-73862500D03*
%TD*%
D22*
%TO.P,C15,1*%
%TO.N,GND*%
X188300000Y-82060000D03*
%TO.P,C15,2*%
%TO.N,Net-(C15-Pad2)*%
X188300000Y-81100000D03*
%TD*%
D13*
%TO.P,C6,1*%
%TO.N,+3.3V*%
X182500000Y-64910000D03*
%TO.P,C6,2*%
%TO.N,GND*%
X181540000Y-64910000D03*
%TD*%
D12*
%TO.P,R7,1*%
%TO.N,Net-(R7-Pad1)*%
X183620000Y-63500000D03*
%TO.P,R7,2*%
%TO.N,QSPI_SS*%
X183620000Y-64520000D03*
%TD*%
D22*
%TO.P,C2,1*%
%TO.N,+3.3V*%
X189200000Y-65100000D03*
%TO.P,C2,2*%
%TO.N,GND*%
X189200000Y-64140000D03*
%TD*%
%TO.P,C14,1*%
%TO.N,GND*%
X182800000Y-81280000D03*
%TO.P,C14,2*%
%TO.N,XIN*%
X182800000Y-80320000D03*
%TD*%
D18*
%TO.P,R6,1*%
%TO.N,QSPI_SS*%
X182530000Y-63610000D03*
%TO.P,R6,2*%
%TO.N,+3.3V*%
X181510000Y-63610000D03*
%TD*%
D26*
%TO.P,Y1,1,1*%
%TO.N,Net-(C15-Pad2)*%
X184400000Y-82500000D03*
%TO.P,Y1,2,2*%
%TO.N,GND*%
X186600000Y-82500000D03*
%TO.P,Y1,3,3*%
%TO.N,XIN*%
X186600000Y-80800000D03*
%TO.P,Y1,4,4*%
%TO.N,GND*%
X184400000Y-80800000D03*
%TD*%
D13*
%TO.P,C3,1*%
%TO.N,+3.3V*%
X181460000Y-74900000D03*
%TO.P,C3,2*%
%TO.N,GND*%
X180500000Y-74900000D03*
%TD*%
D27*
%TO.P,J1,A1,GND*%
%TO.N,GND*%
X210015000Y-53849994D03*
%TO.P,J1,A4,VBUS*%
%TO.N,VBUS*%
X210015000Y-53049994D03*
D28*
%TO.P,J1,A5,CC1*%
%TO.N,Net-(J1-CC1)*%
X210015000Y-51849994D03*
%TO.P,J1,A6,D+*%
%TO.N,USB_D+*%
X210015000Y-50849994D03*
%TO.P,J1,A7,D-*%
%TO.N,USB_D-*%
X210015000Y-50349994D03*
%TO.P,J1,A8*%
%TO.N,N/C*%
X210015000Y-49349994D03*
D27*
%TO.P,J1,A9,VBUS*%
%TO.N,VBUS*%
X210015000Y-48149994D03*
%TO.P,J1,A12,GND*%
%TO.N,GND*%
X210015000Y-47349994D03*
%TO.P,J1,B1,GND*%
X210015000Y-47349994D03*
%TO.P,J1,B4,VBUS*%
%TO.N,VBUS*%
X210015000Y-48149994D03*
D28*
%TO.P,J1,B5,CC2*%
%TO.N,Net-(J1-CC2)*%
X210015000Y-48849994D03*
%TO.P,J1,B6,D+*%
%TO.N,USB_D+*%
X210015000Y-49849994D03*
%TO.P,J1,B7,D-*%
%TO.N,USB_D-*%
X210015000Y-51349994D03*
%TO.P,J1,B8*%
%TO.N,N/C*%
X210015000Y-52349994D03*
D27*
%TO.P,J1,B9,VBUS*%
%TO.N,VBUS*%
X210015000Y-53049994D03*
%TO.P,J1,B12,GND*%
%TO.N,GND*%
X210015000Y-53849994D03*
D29*
%TO.P,J1,S1,SHIELD*%
X210930000Y-54919994D03*
D30*
X215110000Y-54919994D03*
D29*
X210930000Y-46279994D03*
D30*
X215110000Y-46279994D03*
%TD*%
D31*
%TO.P,SW1,1,1*%
%TO.N,GND*%
X193100000Y-59200000D03*
%TO.P,SW1,2,2*%
%TO.N,Net-(R7-Pad1)*%
X188900000Y-59200000D03*
%TD*%
D32*
%TO.P,C4,1*%
%TO.N,+3.3V*%
X191760589Y-67739411D03*
%TO.P,C4,2*%
%TO.N,GND*%
X192439411Y-67060589D03*
%TD*%
D33*
%TO.P,U4,1,GND*%
%TO.N,GND*%
X183850000Y-59275000D03*
%TO.P,U4,2,VO*%
%TO.N,+3.3V*%
X185750000Y-59275000D03*
%TO.P,U4,3,VI*%
%TO.N,VBUS*%
X184800000Y-57400000D03*
%TD*%
D18*
%TO.P,R2,1*%
%TO.N,Net-(J1-CC1)*%
X207410000Y-51900000D03*
%TO.P,R2,2*%
%TO.N,GND*%
X206390000Y-51900000D03*
%TD*%
D34*
%TO.P,U3,1,~{CS}*%
%TO.N,QSPI_SS*%
X182625000Y-66100000D03*
%TO.P,U3,2,DO(IO1)*%
%TO.N,QSPI_SD1*%
X182625000Y-66600000D03*
%TO.P,U3,3,IO2*%
%TO.N,QSPI_SD2*%
X182625000Y-67100000D03*
%TO.P,U3,4,GND*%
%TO.N,GND*%
X182625000Y-67600000D03*
%TO.P,U3,5,DI(IO0)*%
%TO.N,QSPI_SD0*%
X185200000Y-67600000D03*
%TO.P,U3,6,CLK*%
%TO.N,QSPI_SCLK*%
X185200000Y-67100000D03*
%TO.P,U3,7,IO3*%
%TO.N,QSPI_SD3*%
X185200000Y-66600000D03*
%TO.P,U3,8,VCC*%
%TO.N,+3.3V*%
X185200000Y-66100000D03*
D35*
%TO.P,U3,9*%
%TO.N,N/C*%
X183912500Y-66850000D03*
%TD*%
D36*
%TO.N,GPIO1*%
X179490000Y-53910000D03*
X186000000Y-52915000D03*
%TO.N,GPIO0*%
X180310000Y-52190000D03*
X187025000Y-51400000D03*
%TO.N,GND*%
X193700000Y-50320000D03*
X186075267Y-49175000D03*
%TO.N,+3.3V*%
X182500000Y-59400000D03*
X185500000Y-64200000D03*
X183500000Y-70600000D03*
X194665091Y-77734909D03*
X186500000Y-59800000D03*
X185500000Y-62800000D03*
D37*
X181000000Y-73900000D03*
D36*
X189200000Y-65800000D03*
X184750000Y-59400000D03*
X189494975Y-80305025D03*
D37*
X187300000Y-69394219D03*
D36*
%TO.N,GND*%
X199000000Y-66300000D03*
X191300000Y-65200000D03*
X182500000Y-61500000D03*
X205400000Y-49000000D03*
X188900000Y-72900000D03*
X205400000Y-51900000D03*
X188900000Y-73800000D03*
X193200000Y-57000000D03*
X207700000Y-47400000D03*
X181099244Y-65526251D03*
X185349441Y-76270170D03*
X190600000Y-67000000D03*
X186600000Y-82500000D03*
X184900000Y-72700000D03*
X186600000Y-64800000D03*
X183200000Y-54200000D03*
D37*
X182733652Y-67793896D03*
D36*
X189200000Y-82600000D03*
X178900000Y-74962500D03*
X191700000Y-64200000D03*
X182400000Y-82100000D03*
X193000000Y-70400000D03*
%TO.N,+1V0*%
X186700000Y-71662498D03*
D37*
X187200000Y-76300000D03*
D36*
%TO.N,USB_D+*%
X189500000Y-62000000D03*
X199400000Y-54600000D03*
%TO.N,USB_D-*%
X190100002Y-62800002D03*
X199300000Y-56000000D03*
%TO.N,GPIO8*%
X184426307Y-75214745D03*
%TO.N,GPIO6*%
X184492932Y-74216964D03*
%TO.N,RUN*%
X189310108Y-75027102D03*
%TO.N,SWCLK*%
X186327297Y-76062502D03*
D37*
%TO.N,SWD*%
X189000000Y-75922370D03*
%TD*%
D38*
%TO.N,+3.3V*%
X181850000Y-60050000D02*
X181850000Y-54560050D01*
X181850000Y-54560050D02*
X185797550Y-50612500D01*
X181850000Y-60050000D02*
X182500000Y-59400000D01*
X181520000Y-60380000D02*
X181850000Y-60050000D01*
X185797550Y-50612500D02*
X185800000Y-50612500D01*
D39*
X184425000Y-48850000D02*
X185037500Y-48850000D01*
X185612500Y-50800000D02*
X184375000Y-50800000D01*
X184375000Y-50800000D02*
X184300000Y-50725000D01*
X184300000Y-48975000D02*
X184425000Y-48850000D01*
X185800000Y-50612500D02*
X185612500Y-50800000D01*
X184300000Y-50725000D02*
X184300000Y-48975000D01*
D38*
%TO.N,GPIO1*%
X180000000Y-54420000D02*
X179490000Y-53910000D01*
X179490000Y-53910000D02*
X176400000Y-50820000D01*
D39*
X186000000Y-52800000D02*
X186000000Y-52915000D01*
X186600000Y-52200000D02*
X186000000Y-52800000D01*
%TO.N,GPIO0*%
X187025000Y-51375000D02*
X187025000Y-51400000D01*
X187293750Y-51106250D02*
X187025000Y-51375000D01*
D38*
X180400000Y-52280000D02*
X180310000Y-52190000D01*
X180310000Y-52190000D02*
X176400000Y-48280000D01*
D39*
X187293750Y-51106250D02*
X187487500Y-51300000D01*
X186800000Y-50612500D02*
X187293750Y-51106250D01*
%TO.N,GPIO1*%
X188900000Y-50190000D02*
X189780000Y-49310000D01*
X187461396Y-52200000D02*
X188900000Y-50761396D01*
X188900000Y-50761396D02*
X188900000Y-50190000D01*
X186600000Y-52200000D02*
X187461396Y-52200000D01*
X186300000Y-51900000D02*
X186600000Y-52200000D01*
X186300000Y-50612500D02*
X186300000Y-51900000D01*
%TO.N,+3.3V*%
X190750000Y-48250000D02*
X191820000Y-49320000D01*
X187137500Y-48250000D02*
X190750000Y-48250000D01*
X186800000Y-48587500D02*
X187137500Y-48250000D01*
%TO.N,GPIO0*%
X189415720Y-48700000D02*
X190170000Y-48700000D01*
X190170000Y-48700000D02*
X190780000Y-49310000D01*
X188400000Y-49715720D02*
X189415720Y-48700000D01*
X187725000Y-51300000D02*
X188400000Y-50625000D01*
X187487500Y-51300000D02*
X187725000Y-51300000D01*
X188400000Y-50625000D02*
X188400000Y-49715720D01*
%TO.N,GPIO1*%
X190099999Y-49310000D02*
X190135000Y-49345001D01*
%TO.N,+3.3V*%
X186800267Y-49599733D02*
X186800000Y-49599466D01*
X186500000Y-49900000D02*
X186800267Y-49599733D01*
X186500000Y-49900000D02*
X185900000Y-49900000D01*
X186800000Y-49599466D02*
X186800000Y-48587500D01*
X189790000Y-50320000D02*
X189780000Y-50330000D01*
X191820000Y-50320000D02*
X189790000Y-50320000D01*
X191820000Y-49320000D02*
X191820000Y-50320000D01*
%TO.N,GND*%
X192780000Y-50320000D02*
X193700000Y-50320000D01*
X192780000Y-49320000D02*
X192780000Y-50320000D01*
%TO.N,+3.3V*%
X191800000Y-50300000D02*
X191820000Y-50320000D01*
%TO.N,GND*%
X186300000Y-48950267D02*
X186075267Y-49175000D01*
X186300000Y-48587500D02*
X186300000Y-48950267D01*
X185800000Y-48899733D02*
X186075267Y-49175000D01*
X185800000Y-48587500D02*
X185800000Y-48899733D01*
%TO.N,+3.3V*%
X185900000Y-49900000D02*
X185800000Y-50000000D01*
X185800000Y-50000000D02*
X185800000Y-50612500D01*
D38*
X201400008Y-71700000D02*
X201400004Y-71700004D01*
X212499999Y-71700000D02*
X201400008Y-71700000D01*
D39*
%TO.N,GND*%
X212500000Y-66900000D02*
X212499999Y-68900000D01*
X208700000Y-68800000D02*
X208800002Y-68900002D01*
X208700000Y-66900000D02*
X208700000Y-68800000D01*
X205000000Y-68700000D02*
X205200000Y-68900000D01*
X205000000Y-66900000D02*
X205000000Y-68700000D01*
X201300000Y-68800000D02*
X201400004Y-68900004D01*
X201300000Y-66900000D02*
X201300000Y-68800000D01*
X201300000Y-66900000D02*
X212500000Y-66900000D01*
X201400008Y-68900000D02*
X201400004Y-68900004D01*
X212499999Y-68900000D02*
X201400008Y-68900000D01*
D38*
%TO.N,+3.3V*%
X214124999Y-70075000D02*
X212499999Y-71700000D01*
X214124999Y-65724999D02*
X214124999Y-70075000D01*
X212500000Y-64100000D02*
X214124999Y-65724999D01*
X201300000Y-64100000D02*
X212500000Y-64100000D01*
D39*
%TO.N,GND*%
X199600000Y-66900000D02*
X199000000Y-66300000D01*
X201300000Y-66900000D02*
X199600000Y-66900000D01*
D38*
%TO.N,+3.3V*%
X198600000Y-62900000D02*
X199800000Y-64100000D01*
X197200000Y-58700000D02*
X198600000Y-60100000D01*
X198600000Y-60100000D02*
X198600000Y-62900000D01*
X199800000Y-64100000D02*
X201300000Y-64100000D01*
X187500000Y-69594219D02*
X187500000Y-70425000D01*
X185500000Y-62800000D02*
X185500000Y-61175000D01*
X182500000Y-65115444D02*
X182500000Y-64910000D01*
X188309950Y-79120000D02*
X189494975Y-80305025D01*
X191050000Y-70550000D02*
X191600000Y-71100000D01*
X187100000Y-78100000D02*
X187100000Y-77300000D01*
X181520000Y-62410000D02*
X181520000Y-60380000D01*
X192290000Y-68610000D02*
X191300000Y-69600000D01*
X193700000Y-70767157D02*
X193700000Y-67500000D01*
X186500000Y-59800000D02*
X186275000Y-59800000D01*
X185500000Y-61175000D02*
X185575000Y-61100000D01*
X190600000Y-68880000D02*
X189500000Y-69980000D01*
X185500000Y-65800000D02*
X185500000Y-64200000D01*
X180862500Y-68693871D02*
X180862500Y-66752945D01*
X191300000Y-69600000D02*
X191300000Y-70300000D01*
X193700000Y-67500000D02*
X192100000Y-65900000D01*
X187300000Y-69394219D02*
X187300000Y-69500000D01*
X193367157Y-71100000D02*
X193700000Y-70767157D01*
X182284314Y-70115686D02*
X180862500Y-68693871D01*
X183300000Y-70600000D02*
X182815686Y-70115686D01*
X181460000Y-74900000D02*
X181460000Y-74360000D01*
X182500000Y-64600000D02*
X181510000Y-63610000D01*
X189500000Y-70425000D02*
X189100000Y-70425000D01*
X190337500Y-74862500D02*
X191792682Y-74862500D01*
X181497500Y-74862500D02*
X181460000Y-74900000D01*
X187300000Y-69394219D02*
X187100000Y-69594219D01*
X191790000Y-67910000D02*
X192290000Y-68410000D01*
X182815686Y-70115686D02*
X182284314Y-70115686D01*
X189500000Y-69980000D02*
X189500000Y-70425000D01*
X185625000Y-59400000D02*
X185750000Y-59275000D01*
X188300000Y-79120000D02*
X188309950Y-79120000D01*
X189200000Y-65100000D02*
X190300000Y-65100000D01*
X189200000Y-65800000D02*
X189200000Y-65100000D01*
X188120000Y-79120000D02*
X187100000Y-78100000D01*
X187300000Y-69500000D02*
X187400000Y-69600000D01*
X190300000Y-65379999D02*
X190300000Y-65100000D01*
X182500000Y-65110000D02*
X182500000Y-64910000D01*
X185200000Y-66100000D02*
X185500000Y-65800000D01*
X184750000Y-59400000D02*
X185625000Y-59400000D01*
X187300000Y-69394219D02*
X187500000Y-69594219D01*
X181510000Y-62420000D02*
X181520000Y-62410000D01*
X191792682Y-74862500D02*
X194665091Y-77734909D01*
X187100000Y-69594219D02*
X187100000Y-70425000D01*
X190820001Y-65900000D02*
X190300000Y-65379999D01*
X192100000Y-65900000D02*
X190820001Y-65900000D01*
X185750000Y-60925000D02*
X185575000Y-61100000D01*
X190600000Y-68880000D02*
X190720000Y-68880000D01*
X191300000Y-70300000D02*
X191050000Y-70550000D01*
X192290000Y-68410000D02*
X192290000Y-68610000D01*
X183462500Y-71262500D02*
X183431129Y-71262500D01*
X188300000Y-79120000D02*
X188120000Y-79120000D01*
X189500000Y-70425000D02*
X189500000Y-70558860D01*
X183462500Y-74862500D02*
X181497500Y-74862500D01*
X181510000Y-63610000D02*
X181510000Y-62420000D01*
X190720000Y-68880000D02*
X191790000Y-67810000D01*
X186275000Y-59800000D02*
X185750000Y-59275000D01*
X183431129Y-71262500D02*
X182284314Y-70115686D01*
X181460000Y-74360000D02*
X181000000Y-73900000D01*
X182500000Y-64910000D02*
X182500000Y-64600000D01*
X180862500Y-66752945D02*
X182500000Y-65115444D01*
X185750000Y-59275000D02*
X185750000Y-60925000D01*
X183500000Y-70600000D02*
X183300000Y-70600000D01*
X191600000Y-71100000D02*
X193367157Y-71100000D01*
X191050000Y-70550000D02*
X190337500Y-71262500D01*
%TO.N,GND*%
X189200000Y-64140000D02*
X190300000Y-64140000D01*
X197200000Y-66320000D02*
X198980000Y-66320000D01*
X193000000Y-67621178D02*
X192439411Y-67060589D01*
X193100000Y-59200000D02*
X193100000Y-57100000D01*
X206390000Y-48900000D02*
X205500000Y-48900000D01*
X193000000Y-68900000D02*
X193000000Y-69480000D01*
X191459411Y-67060589D02*
X192439411Y-67060589D01*
X182800000Y-81700000D02*
X182400000Y-82100000D01*
X188837500Y-73862500D02*
X188900000Y-73800000D01*
X193000000Y-69480000D02*
X192480000Y-70000000D01*
X188840000Y-82060000D02*
X189600000Y-81300000D01*
X207750006Y-47349994D02*
X207700000Y-47400000D01*
X193000000Y-68900000D02*
X193000000Y-67621178D01*
X186800000Y-65000000D02*
X186600000Y-64800000D01*
X191300000Y-65140000D02*
X191300000Y-65200000D01*
X185349441Y-76270170D02*
X185404030Y-76270170D01*
X210015000Y-47349994D02*
X207750006Y-47349994D01*
X186900000Y-73862500D02*
X187937500Y-73862500D01*
X190600000Y-67920000D02*
X191459411Y-67060589D01*
X184400000Y-80800000D02*
X183280000Y-80800000D01*
X189600000Y-81300000D02*
X190600000Y-81300000D01*
X188300000Y-80100000D02*
X189500000Y-81300000D01*
X185404030Y-76270170D02*
X185900000Y-76766140D01*
X185900000Y-76766140D02*
X185900000Y-77300000D01*
X189500000Y-67920000D02*
X190600000Y-67920000D01*
X191640000Y-64140000D02*
X191700000Y-64200000D01*
X183790000Y-61100000D02*
X182480000Y-62410000D01*
X206390000Y-51900000D02*
X205400000Y-51900000D01*
X190600000Y-67920000D02*
X190600000Y-67000000D01*
X205500000Y-48900000D02*
X205400000Y-49000000D01*
X181540000Y-65085495D02*
X181099244Y-65526251D01*
X184025000Y-61100000D02*
X183790000Y-61100000D01*
X182480000Y-62410000D02*
X182480000Y-61520000D01*
X184025000Y-59450000D02*
X183850000Y-59275000D01*
X186800000Y-65520000D02*
X186800000Y-65000000D01*
X186900000Y-73862500D02*
X185737500Y-72700000D01*
X190300000Y-64140000D02*
X191640000Y-64140000D01*
X193000000Y-70400000D02*
X192880000Y-70400000D01*
X180500000Y-74900000D02*
X178962500Y-74900000D01*
X183280000Y-80800000D02*
X182800000Y-81280000D01*
X185737500Y-72700000D02*
X184900000Y-72700000D01*
X181540000Y-64910000D02*
X181540000Y-65085495D01*
X190300000Y-64140000D02*
X191300000Y-65140000D01*
X188660000Y-82060000D02*
X189200000Y-82600000D01*
X178962500Y-74900000D02*
X178900000Y-74962500D01*
X188300000Y-80080000D02*
X188300000Y-80100000D01*
X182480000Y-61520000D02*
X182500000Y-61500000D01*
X186900000Y-73862500D02*
X188837500Y-73862500D01*
X188300000Y-82060000D02*
X188660000Y-82060000D01*
X182800000Y-81280000D02*
X182800000Y-81700000D01*
X184025000Y-61100000D02*
X184025000Y-59450000D01*
X192880000Y-70400000D02*
X192480000Y-70000000D01*
X183850000Y-56250000D02*
X183200000Y-55600000D01*
X183850000Y-59275000D02*
X183850000Y-56250000D01*
X183200000Y-55600000D02*
X183200000Y-54200000D01*
X193100000Y-57100000D02*
X193200000Y-57000000D01*
X189500000Y-81300000D02*
X189600000Y-81300000D01*
X187937500Y-73862500D02*
X188900000Y-72900000D01*
X188300000Y-82060000D02*
X188840000Y-82060000D01*
X198980000Y-66320000D02*
X199000000Y-66300000D01*
%TO.N,+1V0*%
X187500000Y-77300000D02*
X187500000Y-77934314D01*
X188700000Y-70425000D02*
X188700000Y-70958860D01*
X186700000Y-70425000D02*
X186700000Y-66580000D01*
X187500000Y-76600000D02*
X187200000Y-76300000D01*
X187996362Y-71662498D02*
X186700000Y-71662498D01*
X188700000Y-69680000D02*
X188700000Y-70425000D01*
X188760000Y-78500000D02*
X190600000Y-80340000D01*
X188065686Y-78500000D02*
X188760000Y-78500000D01*
X186700000Y-66580000D02*
X186800000Y-66480000D01*
X188700000Y-70958860D02*
X187996362Y-71662498D01*
X186700000Y-70425000D02*
X186700000Y-71662498D01*
X187500000Y-77934314D02*
X188065686Y-78500000D01*
X189500000Y-68880000D02*
X188700000Y-69680000D01*
X187500000Y-77300000D02*
X187500000Y-76600000D01*
%TO.N,VBUS*%
X192867157Y-55600000D02*
X184750000Y-55600000D01*
X211440000Y-48740000D02*
X210849994Y-48149994D01*
X193767157Y-54700000D02*
X192867157Y-55600000D01*
X211440000Y-52549994D02*
X211440000Y-48740000D01*
X210015000Y-48149994D02*
X197590006Y-48149994D01*
X184800000Y-57400000D02*
X184800000Y-55650000D01*
X197200000Y-48540000D02*
X193767157Y-51972843D01*
X210940000Y-53049994D02*
X211440000Y-52549994D01*
X193767157Y-51972843D02*
X193767157Y-54700000D01*
X210849994Y-48149994D02*
X210015000Y-48149994D01*
X197590006Y-48149994D02*
X197200000Y-48540000D01*
X210015000Y-53049994D02*
X210940000Y-53049994D01*
X184800000Y-55650000D02*
X184750000Y-55600000D01*
%TO.N,XIN*%
X182800000Y-80320000D02*
X183720000Y-79400000D01*
X186300000Y-77300000D02*
X186300000Y-77930917D01*
X186300000Y-77930917D02*
X185630000Y-78600917D01*
X183720000Y-79400000D02*
X185630000Y-79400000D01*
X185630000Y-79830000D02*
X186600000Y-80800000D01*
X185630000Y-79400000D02*
X185630000Y-79830000D01*
X185630000Y-78600917D02*
X185630000Y-79400000D01*
%TO.N,Net-(C15-Pad2)*%
X187600000Y-80400000D02*
X188300000Y-81100000D01*
X187220000Y-79200000D02*
X187600000Y-79580000D01*
X188300000Y-81100000D02*
X187600000Y-81800000D01*
X187600000Y-81800000D02*
X187600000Y-83400000D01*
X185400000Y-83500000D02*
X184400000Y-82500000D01*
X187500000Y-83500000D02*
X185400000Y-83500000D01*
X187600000Y-83400000D02*
X187500000Y-83500000D01*
X187600000Y-79580000D02*
X187600000Y-80400000D01*
%TO.N,Net-(J1-CC1)*%
X207410000Y-51900000D02*
X209964994Y-51900000D01*
X209964994Y-51900000D02*
X210015000Y-51849994D01*
%TO.N,USB_D+*%
X204788609Y-49874994D02*
X200063603Y-54600000D01*
X189500000Y-62000000D02*
X187500000Y-64000000D01*
X210015000Y-50849994D02*
X210990000Y-50849994D01*
X211040000Y-49899994D02*
X210990000Y-49849994D01*
X187500000Y-64000000D02*
X187500000Y-67590000D01*
X208902499Y-49874994D02*
X204788609Y-49874994D01*
X200063603Y-54600000D02*
X199400000Y-54600000D01*
X208927499Y-49849994D02*
X208902499Y-49874994D01*
X210990000Y-50849994D02*
X211040000Y-50799994D01*
X210990000Y-49849994D02*
X210015000Y-49849994D01*
X211040000Y-50799994D02*
X211040000Y-49899994D01*
X210015000Y-49849994D02*
X208927499Y-49849994D01*
%TO.N,USB_D-*%
X210015000Y-50349994D02*
X209040000Y-50349994D01*
X190100002Y-62800002D02*
X189265684Y-62800002D01*
X210015000Y-50349994D02*
X208927499Y-50349994D01*
X209040000Y-50349994D02*
X208990000Y-50399994D01*
X189265684Y-62800002D02*
X187900000Y-64165686D01*
X208902499Y-50324994D02*
X204975006Y-50324994D01*
X204975006Y-50324994D02*
X199300000Y-56000000D01*
X209049994Y-51349994D02*
X210015000Y-51349994D01*
X208990000Y-50399994D02*
X208990000Y-51290000D01*
X209049994Y-51349994D02*
X208980000Y-51280000D01*
X208990000Y-51290000D02*
X209049994Y-51349994D01*
X187900000Y-64165686D02*
X187900000Y-66990000D01*
X187900000Y-66990000D02*
X188500000Y-67590000D01*
X208927499Y-50349994D02*
X208902499Y-50324994D01*
%TO.N,Net-(J1-CC2)*%
X207410000Y-48900000D02*
X209964994Y-48900000D01*
X209964994Y-48900000D02*
X210015000Y-48849994D01*
%TO.N,GPIO0*%
X183462500Y-71662500D02*
X182928640Y-71662500D01*
X182928640Y-71662500D02*
X180400000Y-69133860D01*
X180400000Y-69133860D02*
X180400000Y-52280000D01*
%TO.N,GPIO1*%
X183462500Y-72062500D02*
X182690930Y-72062500D01*
X182690930Y-72062500D02*
X180000000Y-69371570D01*
X180000000Y-69371570D02*
X180000000Y-54420000D01*
%TO.N,GPIO2*%
X179600000Y-69537256D02*
X179600000Y-59100000D01*
X183462500Y-72462500D02*
X182525244Y-72462500D01*
X179600000Y-59100000D02*
X176400000Y-55900000D01*
X182525244Y-72462500D02*
X179600000Y-69537256D01*
%TO.N,GPIO3*%
X179200000Y-61240000D02*
X176400000Y-58440000D01*
X182359558Y-72862500D02*
X179200000Y-69702942D01*
X179200000Y-69702942D02*
X179200000Y-61240000D01*
X183462500Y-72862500D02*
X182359558Y-72862500D01*
%TO.N,GPIO4*%
X178800000Y-63380000D02*
X176400000Y-60980000D01*
X182193872Y-73262500D02*
X179271372Y-70340000D01*
X179271372Y-70340000D02*
X179255686Y-70340000D01*
X178800000Y-69884314D02*
X178800000Y-63380000D01*
X183462500Y-73262500D02*
X182193872Y-73262500D01*
X179255686Y-70340000D02*
X178800000Y-69884314D01*
%TO.N,GPIO5*%
X178400000Y-65520000D02*
X176400000Y-63520000D01*
X179090000Y-70740000D02*
X178400000Y-70050000D01*
X179105686Y-70740000D02*
X179090000Y-70740000D01*
X178400000Y-70050000D02*
X178400000Y-65520000D01*
X182028186Y-73662500D02*
X179105686Y-70740000D01*
X183462500Y-73662500D02*
X182028186Y-73662500D01*
%TO.N,GPIO8*%
X183462500Y-75262500D02*
X184378552Y-75262500D01*
X184378552Y-75262500D02*
X184426307Y-75214745D01*
%TO.N,GPIO7*%
X182678634Y-74462500D02*
X182416134Y-74200000D01*
X178940000Y-71140000D02*
X176400000Y-71140000D01*
X182416134Y-74200000D02*
X182000000Y-74200000D01*
X182000000Y-74200000D02*
X178940000Y-71140000D01*
X183462500Y-74462500D02*
X182678634Y-74462500D01*
%TO.N,GPIO6*%
X184338468Y-74062500D02*
X184492932Y-74216964D01*
X183462500Y-74062500D02*
X184338468Y-74062500D01*
%TO.N,GPIO9*%
X176957500Y-75662500D02*
X176400000Y-76220000D01*
X183462500Y-75662500D02*
X176957500Y-75662500D01*
%TO.N,GPIO10*%
X183462500Y-76062500D02*
X181637500Y-76062500D01*
X181637500Y-76062500D02*
X176400000Y-81300000D01*
%TO.N,GPIO11*%
X178000000Y-80265686D02*
X178000000Y-82240000D01*
X178000000Y-82240000D02*
X176400000Y-83840000D01*
X183462500Y-76462500D02*
X181803186Y-76462500D01*
X181803186Y-76462500D02*
X178000000Y-80265686D01*
%TO.N,GPIO12*%
X181531372Y-77300000D02*
X178400000Y-80431372D01*
X178400000Y-80431372D02*
X178400000Y-84380000D01*
X178400000Y-84380000D02*
X176400000Y-86380000D01*
X184300000Y-77300000D02*
X181531372Y-77300000D01*
%TO.N,GPIO13*%
X184700000Y-77833860D02*
X184433860Y-78100000D01*
X178800000Y-86520000D02*
X176400000Y-88920000D01*
X181297058Y-78100000D02*
X178800000Y-80597058D01*
X178800000Y-80597058D02*
X178800000Y-86520000D01*
X184700000Y-77300000D02*
X184700000Y-77833860D01*
X184433860Y-78100000D02*
X181297058Y-78100000D01*
%TO.N,GPIO14*%
X179200000Y-80800000D02*
X179200000Y-91200000D01*
X185100000Y-77999546D02*
X184518174Y-78581372D01*
X184518174Y-78581372D02*
X181418628Y-78581372D01*
X179200000Y-91200000D02*
X176400000Y-94000000D01*
X181418628Y-78581372D02*
X179200000Y-80800000D01*
X185100000Y-77300000D02*
X185100000Y-77999546D01*
%TO.N,GPIO15*%
X184683859Y-78981372D02*
X181584314Y-78981372D01*
X185500000Y-78165232D02*
X184683859Y-78981372D01*
X179600000Y-80965686D02*
X179600000Y-93340000D01*
X181584314Y-78981372D02*
X179600000Y-80965686D01*
X185500000Y-77300000D02*
X185500000Y-78165232D01*
X179600000Y-93340000D02*
X176400000Y-96540000D01*
%TO.N,GPIO29_ADC3*%
X195225686Y-51080000D02*
X197200000Y-51080000D01*
X194167157Y-71332843D02*
X194167157Y-52138529D01*
X194167157Y-52138529D02*
X195225686Y-51080000D01*
X190337500Y-71662500D02*
X193837500Y-71662500D01*
X193837500Y-71662500D02*
X194167157Y-71332843D01*
%TO.N,GPIO28_ADC2*%
X194137500Y-72062500D02*
X194567157Y-71632843D01*
X194567157Y-71632843D02*
X194567157Y-58792843D01*
X190337500Y-72062500D02*
X194137500Y-72062500D01*
X194567157Y-58792843D02*
X197200000Y-56160000D01*
%TO.N,GPIO27_ADC1*%
X194967157Y-63472843D02*
X197200000Y-61240000D01*
X194967157Y-71832843D02*
X194967157Y-63472843D01*
X190337500Y-72462500D02*
X194337500Y-72462500D01*
X194337500Y-72462500D02*
X194967157Y-71832843D01*
%TO.N,GPIO26_ADC0*%
X195367157Y-71998529D02*
X195367157Y-65612843D01*
X195367157Y-65612843D02*
X197200000Y-63780000D01*
X194503186Y-72862500D02*
X195367157Y-71998529D01*
X190337500Y-72862500D02*
X194503186Y-72862500D01*
%TO.N,GPIO24*%
X194268872Y-73662500D02*
X195767157Y-72164215D01*
X190337500Y-73662500D02*
X194268872Y-73662500D01*
X195767157Y-72164215D02*
X195767157Y-70292843D01*
X195767157Y-70292843D02*
X197200000Y-68860000D01*
%TO.N,GPIO23*%
X195037500Y-74062500D02*
X197200000Y-71900000D01*
X190337500Y-74062500D02*
X195037500Y-74062500D01*
X197200000Y-71900000D02*
X197200000Y-71400000D01*
%TO.N,RUN*%
X189600000Y-75316994D02*
X189600000Y-76200000D01*
X188903640Y-76562500D02*
X188700000Y-76766140D01*
X188700000Y-77300000D02*
X188700000Y-77833860D01*
X189237500Y-76562500D02*
X188903640Y-76562500D01*
X189600000Y-76200000D02*
X189237500Y-76562500D01*
X189310108Y-75027102D02*
X189600000Y-75316994D01*
X188700000Y-76766140D02*
X188700000Y-77300000D01*
%TO.N,GPIO22*%
X195182500Y-74462500D02*
X197200000Y-76480000D01*
X190337500Y-74462500D02*
X195182500Y-74462500D01*
%TO.N,GPIO21*%
X195600000Y-79659768D02*
X191202732Y-75262500D01*
X195600000Y-81200000D02*
X195600000Y-79659768D01*
X191202732Y-75262500D02*
X190337500Y-75262500D01*
X195960000Y-81560000D02*
X195600000Y-81200000D01*
X197200000Y-81560000D02*
X195960000Y-81560000D01*
%TO.N,GPIO20*%
X191037046Y-75662500D02*
X195200000Y-79825454D01*
X190337500Y-75662500D02*
X191037046Y-75662500D01*
X195200000Y-82100000D02*
X197200000Y-84100000D01*
X195200000Y-79825454D02*
X195200000Y-82100000D01*
%TO.N,GPIO19*%
X194800000Y-79991140D02*
X194800000Y-84240000D01*
X190871360Y-76062500D02*
X194800000Y-79991140D01*
X194800000Y-84240000D02*
X197200000Y-86640000D01*
X190337500Y-76062500D02*
X190871360Y-76062500D01*
%TO.N,GPIO18*%
X190337500Y-76462500D02*
X194400000Y-80525000D01*
X194400000Y-86380000D02*
X197200000Y-89180000D01*
X194400000Y-80525000D02*
X194400000Y-86380000D01*
%TO.N,GPIO17*%
X194000000Y-81800000D02*
X194000000Y-91060000D01*
X194000000Y-91060000D02*
X197200000Y-94260000D01*
X189500000Y-77300000D02*
X194000000Y-81800000D01*
%TO.N,GPIO16*%
X189303640Y-78037500D02*
X189100000Y-77833860D01*
X193600000Y-81965686D02*
X189671814Y-78037500D01*
X189671814Y-78037500D02*
X189303640Y-78037500D01*
X189100000Y-77833860D02*
X189100000Y-77300000D01*
X197200000Y-96800000D02*
X193600000Y-93200000D01*
X193600000Y-93200000D02*
X193600000Y-81965686D01*
%TO.N,SWCLK*%
X186489799Y-75900000D02*
X187714622Y-75900000D01*
X187900000Y-76085378D02*
X187900000Y-77300000D01*
X187714622Y-75900000D02*
X187900000Y-76085378D01*
X186327297Y-76062502D02*
X186489799Y-75900000D01*
%TO.N,SWD*%
X189000000Y-75922370D02*
X188978084Y-75922370D01*
X188300000Y-76600454D02*
X188300000Y-77300000D01*
X188978084Y-75922370D02*
X188300000Y-76600454D01*
%TO.N,Net-(U1-USB_DP)*%
X187500000Y-68610000D02*
X187900000Y-69010000D01*
X187900000Y-69010000D02*
X187900000Y-70425000D01*
%TO.N,Net-(U1-USB_DM)*%
X188500000Y-68610000D02*
X188300000Y-68810000D01*
X188300000Y-68810000D02*
X188300000Y-70425000D01*
%TO.N,XOUT*%
X186200000Y-79200000D02*
X186700000Y-78700000D01*
X186700000Y-78700000D02*
X186700000Y-77300000D01*
%TO.N,QSPI_SS*%
X181934315Y-69200000D02*
X183900000Y-69200000D01*
X181262500Y-66918630D02*
X181262500Y-68528186D01*
X183900000Y-69200000D02*
X184300000Y-69600000D01*
X183440000Y-64520000D02*
X182530000Y-63610000D01*
X181262500Y-68528186D02*
X181934315Y-69200000D01*
X183620000Y-65105000D02*
X182625000Y-66100000D01*
X182081130Y-66100000D02*
X181262500Y-66918630D01*
X183620000Y-64520000D02*
X183440000Y-64520000D01*
X183620000Y-64520000D02*
X183620000Y-65105000D01*
X184300000Y-69600000D02*
X184300000Y-70425000D01*
X182625000Y-66100000D02*
X182081130Y-66100000D01*
%TO.N,Net-(R7-Pad1)*%
X188800000Y-62100000D02*
X187400000Y-63500000D01*
X188800000Y-59300000D02*
X188800000Y-62100000D01*
X188900000Y-59200000D02*
X188800000Y-59300000D01*
X187400000Y-63500000D02*
X183620000Y-63500000D01*
%TO.N,QSPI_SD3*%
X186300000Y-70425000D02*
X186300000Y-67087500D01*
X186300000Y-67087500D02*
X185812500Y-66600000D01*
X185812500Y-66600000D02*
X185200000Y-66600000D01*
%TO.N,QSPI_SCLK*%
X185512500Y-67100000D02*
X185200000Y-67100000D01*
X185900000Y-67487500D02*
X185512500Y-67100000D01*
X185900000Y-70425000D02*
X185900000Y-67487500D01*
%TO.N,QSPI_SD0*%
X185500000Y-67900000D02*
X185200000Y-67600000D01*
X185500000Y-70425000D02*
X185500000Y-67900000D01*
%TO.N,QSPI_SD2*%
X182625000Y-67100000D02*
X182212500Y-67100000D01*
X182062500Y-67250000D02*
X182062500Y-68162500D01*
X185100000Y-68934315D02*
X185100000Y-70425000D01*
X182212500Y-67100000D02*
X182062500Y-67250000D01*
X182300000Y-68400000D02*
X184565686Y-68400000D01*
X184565686Y-68400000D02*
X185100000Y-68934315D01*
X182062500Y-68162500D02*
X182300000Y-68400000D01*
%TO.N,QSPI_SD1*%
X182100000Y-68800000D02*
X184400000Y-68800000D01*
X184700000Y-69100000D02*
X184700000Y-70425000D01*
X181662500Y-67084315D02*
X181662500Y-68362500D01*
X182146814Y-66600000D02*
X181662500Y-67084315D01*
X184400000Y-68800000D02*
X184700000Y-69100000D01*
X182625000Y-66600000D02*
X182146814Y-66600000D01*
X181662500Y-68362500D02*
X182100000Y-68800000D01*
%TD*%
M02*
