%TF.GenerationSoftware,KiCad,Pcbnew,7.0.10*%
%TF.CreationDate,2025-11-23T12:01:09-06:00*%
%TF.ProjectId,FrankDevBoard,4672616e-6b44-4657-9642-6f6172642e6b,rev?*%
%TF.SameCoordinates,Original*%
%TF.FileFunction,Copper,L2,Bot*%
%TF.FilePolarity,Positive*%
%FSLAX46Y46*%
G04 Gerber Fmt 4.6, Leading zero omitted, Abs format (unit mm)*
G04 Created by KiCad (PCBNEW 7.0.10) date 2025-11-23 12:01:09*
%MOMM*%
%LPD*%
G01*
G04 APERTURE LIST*
%TA.AperFunction,ComponentPad*%
%ADD10R,1.700000X1.700000*%
%TD*%
%TA.AperFunction,ComponentPad*%
%ADD11O,1.700000X1.700000*%
%TD*%
%TA.AperFunction,ComponentPad*%
%ADD12O,2.100000X1.000000*%
%TD*%
%TA.AperFunction,ComponentPad*%
%ADD13O,1.600000X1.000000*%
%TD*%
%TA.AperFunction,ViaPad*%
%ADD14C,0.800000*%
%TD*%
%TA.AperFunction,ViaPad*%
%ADD15C,0.600000*%
%TD*%
%TA.AperFunction,Conductor*%
%ADD16C,0.250000*%
%TD*%
%TA.AperFunction,Conductor*%
%ADD17C,0.200000*%
%TD*%
G04 APERTURE END LIST*
D10*
%TO.P,J3,1,Pin_1*%
%TO.N,VBUS*%
X197200000Y-48540000D03*
D11*
%TO.P,J3,2,Pin_2*%
%TO.N,GPIO29_ADC3*%
X197200000Y-51080000D03*
%TO.P,J3,3,Pin_3*%
%TO.N,GND*%
X197200000Y-53620000D03*
%TO.P,J3,4,Pin_4*%
%TO.N,GPIO28_ADC2*%
X197200000Y-56160000D03*
%TO.P,J3,5,Pin_5*%
%TO.N,+3.3V*%
X197200000Y-58700000D03*
%TO.P,J3,6,Pin_6*%
%TO.N,GPIO27_ADC1*%
X197200000Y-61240000D03*
%TO.P,J3,7,Pin_7*%
%TO.N,GPIO26_ADC0*%
X197200000Y-63780000D03*
%TO.P,J3,8,Pin_8*%
%TO.N,GND*%
X197200000Y-66320000D03*
%TO.P,J3,9,Pin_9*%
%TO.N,GPIO24*%
X197200000Y-68860000D03*
%TO.P,J3,10,Pin_10*%
%TO.N,GPIO23*%
X197200000Y-71400000D03*
%TO.P,J3,11,Pin_11*%
%TO.N,RUN*%
X197200000Y-73940000D03*
%TO.P,J3,12,Pin_12*%
%TO.N,GPIO22*%
X197200000Y-76480000D03*
%TO.P,J3,13,Pin_13*%
%TO.N,GND*%
X197200000Y-79020000D03*
%TO.P,J3,14,Pin_14*%
%TO.N,GPIO21*%
X197200000Y-81560000D03*
%TO.P,J3,15,Pin_15*%
%TO.N,GPIO20*%
X197200000Y-84100000D03*
%TO.P,J3,16,Pin_16*%
%TO.N,GPIO19*%
X197200000Y-86640000D03*
%TO.P,J3,17,Pin_17*%
%TO.N,GPIO18*%
X197200000Y-89180000D03*
%TO.P,J3,18,Pin_18*%
%TO.N,GND*%
X197200000Y-91720000D03*
%TO.P,J3,19,Pin_19*%
%TO.N,GPIO17*%
X197200000Y-94260000D03*
%TO.P,J3,20,Pin_20*%
%TO.N,GPIO16*%
X197200000Y-96800000D03*
%TD*%
D10*
%TO.P,J4,1,Pin_1*%
%TO.N,SWCLK*%
X184360000Y-96600000D03*
D11*
%TO.P,J4,2,Pin_2*%
%TO.N,GND*%
X186900000Y-96600000D03*
%TO.P,J4,3,Pin_3*%
%TO.N,SWD*%
X189440000Y-96600000D03*
%TD*%
D10*
%TO.P,J2,1,Pin_1*%
%TO.N,GPIO0*%
X176400000Y-48280000D03*
D11*
%TO.P,J2,2,Pin_2*%
%TO.N,GPIO1*%
X176400000Y-50820000D03*
%TO.P,J2,3,Pin_3*%
%TO.N,GND*%
X176400000Y-53360000D03*
%TO.P,J2,4,Pin_4*%
%TO.N,GPIO2*%
X176400000Y-55900000D03*
%TO.P,J2,5,Pin_5*%
%TO.N,GPIO3*%
X176400000Y-58440000D03*
%TO.P,J2,6,Pin_6*%
%TO.N,GPIO4*%
X176400000Y-60980000D03*
%TO.P,J2,7,Pin_7*%
%TO.N,GPIO5*%
X176400000Y-63520000D03*
%TO.P,J2,8,Pin_8*%
%TO.N,GND*%
X176400000Y-66060000D03*
%TO.P,J2,9,Pin_9*%
%TO.N,GPIO8*%
X176400000Y-68600000D03*
%TO.P,J2,10,Pin_10*%
%TO.N,GPIO7*%
X176400000Y-71140000D03*
%TO.P,J2,11,Pin_11*%
%TO.N,GPIO6*%
X176400000Y-73680000D03*
%TO.P,J2,12,Pin_12*%
%TO.N,GPIO9*%
X176400000Y-76220000D03*
%TO.P,J2,13,Pin_13*%
%TO.N,GND*%
X176400000Y-78760000D03*
%TO.P,J2,14,Pin_14*%
%TO.N,GPIO10*%
X176400000Y-81300000D03*
%TO.P,J2,15,Pin_15*%
%TO.N,GPIO11*%
X176400000Y-83840000D03*
%TO.P,J2,16,Pin_16*%
%TO.N,GPIO12*%
X176400000Y-86380000D03*
%TO.P,J2,17,Pin_17*%
%TO.N,GPIO13*%
X176400000Y-88920000D03*
%TO.P,J2,18,Pin_18*%
%TO.N,GND*%
X176400000Y-91460000D03*
%TO.P,J2,19,Pin_19*%
%TO.N,GPIO14*%
X176400000Y-94000000D03*
%TO.P,J2,20,Pin_20*%
%TO.N,GPIO15*%
X176400000Y-96540000D03*
%TD*%
D12*
%TO.P,J1,S1,SHIELD*%
%TO.N,GND*%
X210930000Y-54919994D03*
D13*
X215110000Y-54919994D03*
D12*
X210930000Y-46279994D03*
D13*
X215110000Y-46279994D03*
%TD*%
D14*
%TO.N,GPIO1*%
X179490000Y-53910000D03*
X186000000Y-52915000D03*
%TO.N,GPIO0*%
X180310000Y-52190000D03*
X187025000Y-51400000D03*
%TO.N,GND*%
X193700000Y-50320000D03*
X186075267Y-49175000D03*
%TO.N,+3.3V*%
X182500000Y-59400000D03*
X185500000Y-64200000D03*
X183500000Y-70600000D03*
X194665091Y-77734909D03*
X186500000Y-59800000D03*
X185500000Y-62800000D03*
D15*
X181000000Y-73900000D03*
D14*
X189200000Y-65800000D03*
X184750000Y-59400000D03*
X189494975Y-80305025D03*
D15*
X187300000Y-69394219D03*
D14*
%TO.N,GND*%
X199000000Y-66300000D03*
X191300000Y-65200000D03*
X182500000Y-61500000D03*
X205400000Y-49000000D03*
X188900000Y-72900000D03*
X205400000Y-51900000D03*
X188900000Y-73800000D03*
X193200000Y-57000000D03*
X207700000Y-47400000D03*
X181099244Y-65526251D03*
X185349441Y-76270170D03*
X190600000Y-67000000D03*
X186600000Y-82500000D03*
X184900000Y-72700000D03*
X186600000Y-64800000D03*
X183200000Y-54200000D03*
D15*
X182733652Y-67793896D03*
D14*
X189200000Y-82600000D03*
X178900000Y-74962500D03*
X191700000Y-64200000D03*
X182400000Y-82100000D03*
X193000000Y-70400000D03*
%TO.N,+1V0*%
X186700000Y-71662498D03*
D15*
X187200000Y-76300000D03*
D14*
%TO.N,USB_D+*%
X189500000Y-62000000D03*
X199400000Y-54600000D03*
%TO.N,USB_D-*%
X190100002Y-62800002D03*
X199300000Y-56000000D03*
%TO.N,GPIO8*%
X184426307Y-75214745D03*
%TO.N,GPIO6*%
X184492932Y-74216964D03*
%TO.N,RUN*%
X189310108Y-75027102D03*
%TO.N,SWCLK*%
X186327297Y-76062502D03*
D15*
%TO.N,SWD*%
X189000000Y-75922370D03*
%TD*%
D16*
%TO.N,GPIO1*%
X186000000Y-52915000D02*
X180485000Y-52915000D01*
X180485000Y-52915000D02*
X179490000Y-53910000D01*
%TO.N,GPIO0*%
X186235000Y-52190000D02*
X180310000Y-52190000D01*
X187025000Y-51400000D02*
X186235000Y-52190000D01*
D17*
%TO.N,+3.3V*%
X189200000Y-67494219D02*
X189200000Y-65800000D01*
X189200000Y-65800000D02*
X190300000Y-64700000D01*
X194665091Y-78534909D02*
X194665091Y-77734909D01*
X189810052Y-63500002D02*
X186500000Y-60189950D01*
X195400000Y-59100000D02*
X190999998Y-63500002D01*
X186500000Y-60189950D02*
X186500000Y-59800000D01*
X181000000Y-73900000D02*
X181000000Y-73500000D01*
X185500000Y-64200000D02*
X185500000Y-62800000D01*
X196800000Y-59100000D02*
X195400000Y-59100000D01*
X197200000Y-58700000D02*
X196800000Y-59100000D01*
X181000000Y-73500000D02*
X183500000Y-71000000D01*
X183500000Y-71000000D02*
X183500000Y-70600000D01*
X190300000Y-64700000D02*
X190300000Y-63500002D01*
X192894975Y-80305025D02*
X194665091Y-78534909D01*
X190999998Y-63500002D02*
X190300000Y-63500002D01*
X182500000Y-59400000D02*
X184750000Y-59400000D01*
X189494975Y-80305025D02*
X192894975Y-80305025D01*
X187300000Y-69394219D02*
X189200000Y-67494219D01*
X190300000Y-63500002D02*
X189810052Y-63500002D01*
%TO.N,+1V0*%
X187200000Y-72162498D02*
X186700000Y-71662498D01*
X187200000Y-76300000D02*
X187200000Y-72162498D01*
%TO.N,USB_D+*%
X191181800Y-62000000D02*
X189500000Y-62000000D01*
X196723654Y-55010000D02*
X196050000Y-55683654D01*
X197676346Y-55010000D02*
X196723654Y-55010000D01*
X196050000Y-55683654D02*
X196050000Y-56636346D01*
X199400000Y-54600000D02*
X198875001Y-55124999D01*
X197791345Y-55124999D02*
X197676346Y-55010000D01*
X196297727Y-56884073D02*
X191181800Y-62000000D01*
X198875001Y-55124999D02*
X197791345Y-55124999D01*
X199230000Y-54770000D02*
X199400000Y-54600000D01*
X196050000Y-56636346D02*
X196297727Y-56884073D01*
%TO.N,USB_D-*%
X199300000Y-56000000D02*
X198875001Y-55575001D01*
X196615927Y-57202273D02*
X190993200Y-62825000D01*
X198875001Y-55575001D02*
X198875001Y-56111345D01*
X196723654Y-57310000D02*
X196615927Y-57202273D01*
X198875001Y-56111345D02*
X197676346Y-57310000D01*
X197676346Y-57310000D02*
X196723654Y-57310000D01*
X190993200Y-62825000D02*
X189800000Y-62825000D01*
%TO.N,GPIO8*%
X177550000Y-69750000D02*
X176400000Y-68600000D01*
X181514745Y-75214745D02*
X177550000Y-71250000D01*
X184426307Y-75214745D02*
X181514745Y-75214745D01*
X177550000Y-71250000D02*
X177550000Y-69750000D01*
%TO.N,GPIO6*%
X184492932Y-74216964D02*
X185126307Y-74850339D01*
X179380000Y-73680000D02*
X176400000Y-73680000D01*
X184716257Y-75914745D02*
X181614745Y-75914745D01*
X185126307Y-75504695D02*
X184716257Y-75914745D01*
X185126307Y-74850339D02*
X185126307Y-75504695D01*
X181614745Y-75914745D02*
X179380000Y-73680000D01*
%TO.N,RUN*%
X194803029Y-76263029D02*
X194840000Y-76300000D01*
X190546035Y-76263029D02*
X194803029Y-76263029D01*
X189310108Y-75027102D02*
X190546035Y-76263029D01*
X194840000Y-76300000D02*
X197200000Y-73940000D01*
%TO.N,SWCLK*%
X186327297Y-76062502D02*
X186049441Y-76340358D01*
X184360000Y-79442475D02*
X184360000Y-96600000D01*
X185900000Y-76709561D02*
X185900000Y-77902475D01*
X185900000Y-77902475D02*
X184360000Y-79442475D01*
X186049441Y-76560120D02*
X185900000Y-76709561D01*
X186049441Y-76340358D02*
X186049441Y-76560120D01*
%TO.N,SWD*%
X184760000Y-79608161D02*
X184800000Y-79648161D01*
X187284080Y-77084081D02*
X184760000Y-79608161D01*
X184800000Y-79648161D02*
X184800000Y-91960000D01*
X188369920Y-76552450D02*
X188239975Y-76552450D01*
X188239975Y-76552450D02*
X187708344Y-77084081D01*
X184800000Y-91960000D02*
X189440000Y-96600000D01*
X189000000Y-75922370D02*
X188369920Y-76552450D01*
X187708344Y-77084081D02*
X187284080Y-77084081D01*
%TD*%
%TA.AperFunction,Conductor*%
%TO.N,GND*%
G36*
X218243039Y-44619685D02*
G01*
X218288794Y-44672489D01*
X218300000Y-44724000D01*
X218300000Y-56875356D01*
X218280315Y-56942395D01*
X218227511Y-56988150D01*
X218175358Y-56999354D01*
X199967366Y-56905012D01*
X199900429Y-56884981D01*
X199854948Y-56831940D01*
X199845363Y-56762731D01*
X199874717Y-56699327D01*
X199895121Y-56680697D01*
X199905871Y-56672888D01*
X200032533Y-56532216D01*
X200127179Y-56368284D01*
X200185674Y-56188256D01*
X200205460Y-56000000D01*
X200185674Y-55811744D01*
X200127179Y-55631716D01*
X200032533Y-55467784D01*
X200006165Y-55438500D01*
X199975937Y-55375511D01*
X199984562Y-55306176D01*
X200006161Y-55272564D01*
X200098517Y-55169994D01*
X209406634Y-55169994D01*
X209406931Y-55171940D01*
X209406933Y-55171946D01*
X209477562Y-55362651D01*
X209477565Y-55362658D01*
X209585149Y-55535261D01*
X209725264Y-55682662D01*
X209725266Y-55682663D01*
X209892195Y-55798850D01*
X210079092Y-55879053D01*
X210278310Y-55919994D01*
X210680000Y-55919994D01*
X210680000Y-55219994D01*
X211180000Y-55219994D01*
X211180000Y-55919994D01*
X211530713Y-55919994D01*
X211682338Y-55904575D01*
X211876381Y-55843694D01*
X211876391Y-55843689D01*
X212054215Y-55744988D01*
X212054216Y-55744988D01*
X212208530Y-55612515D01*
X212208531Y-55612514D01*
X212333018Y-55451689D01*
X212422588Y-55269087D01*
X212448246Y-55169994D01*
X213836634Y-55169994D01*
X213836931Y-55171940D01*
X213836933Y-55171946D01*
X213907562Y-55362651D01*
X213907565Y-55362658D01*
X214015149Y-55535261D01*
X214155264Y-55682662D01*
X214155266Y-55682663D01*
X214322195Y-55798850D01*
X214509092Y-55879053D01*
X214708310Y-55919994D01*
X214860000Y-55919994D01*
X214860000Y-55219994D01*
X215360000Y-55219994D01*
X215360000Y-55919994D01*
X215460713Y-55919994D01*
X215612338Y-55904575D01*
X215806381Y-55843694D01*
X215806391Y-55843689D01*
X215984215Y-55744988D01*
X215984216Y-55744988D01*
X216138530Y-55612515D01*
X216138531Y-55612514D01*
X216263018Y-55451689D01*
X216352588Y-55269087D01*
X216378246Y-55169994D01*
X215576111Y-55169994D01*
X215615610Y-55145537D01*
X215683201Y-55056032D01*
X215713895Y-54948154D01*
X215703546Y-54836473D01*
X215653552Y-54736072D01*
X215581069Y-54669994D01*
X216383366Y-54669994D01*
X216383068Y-54668047D01*
X216383066Y-54668041D01*
X216312437Y-54477336D01*
X216312434Y-54477329D01*
X216204850Y-54304726D01*
X216064735Y-54157325D01*
X216064733Y-54157324D01*
X215897804Y-54041137D01*
X215710907Y-53960934D01*
X215511690Y-53919994D01*
X215360000Y-53919994D01*
X215360000Y-54619994D01*
X214860000Y-54619994D01*
X214860000Y-53919994D01*
X214759287Y-53919994D01*
X214607661Y-53935412D01*
X214413618Y-53996293D01*
X214413608Y-53996298D01*
X214235784Y-54094999D01*
X214235783Y-54094999D01*
X214081469Y-54227472D01*
X214081468Y-54227473D01*
X213956981Y-54388298D01*
X213867411Y-54570900D01*
X213841754Y-54669994D01*
X214643889Y-54669994D01*
X214604390Y-54694451D01*
X214536799Y-54783956D01*
X214506105Y-54891834D01*
X214516454Y-55003515D01*
X214566448Y-55103916D01*
X214638931Y-55169994D01*
X213836634Y-55169994D01*
X212448246Y-55169994D01*
X211646111Y-55169994D01*
X211685610Y-55145537D01*
X211753201Y-55056032D01*
X211783895Y-54948154D01*
X211773546Y-54836473D01*
X211723552Y-54736072D01*
X211651069Y-54669994D01*
X212453366Y-54669994D01*
X212453068Y-54668047D01*
X212453066Y-54668041D01*
X212382437Y-54477336D01*
X212382434Y-54477329D01*
X212274850Y-54304726D01*
X212134735Y-54157325D01*
X212134733Y-54157324D01*
X211967804Y-54041137D01*
X211959924Y-54037756D01*
X211906080Y-53993229D01*
X211884857Y-53926660D01*
X211902992Y-53859186D01*
X211910443Y-53848326D01*
X211962698Y-53780227D01*
X212020687Y-53640230D01*
X212040466Y-53489994D01*
X212020687Y-53339758D01*
X211962698Y-53199761D01*
X211870451Y-53079543D01*
X211750233Y-52987296D01*
X211750229Y-52987294D01*
X211641893Y-52942420D01*
X211610236Y-52929307D01*
X211596171Y-52927455D01*
X211497727Y-52914494D01*
X211497720Y-52914494D01*
X211422280Y-52914494D01*
X211422272Y-52914494D01*
X211309764Y-52929307D01*
X211309763Y-52929307D01*
X211169770Y-52987294D01*
X211169767Y-52987295D01*
X211169767Y-52987296D01*
X211049549Y-53079543D01*
X210960919Y-53195048D01*
X210957300Y-53199764D01*
X210899313Y-53339757D01*
X210899312Y-53339759D01*
X210879534Y-53489993D01*
X210879534Y-53489994D01*
X210899312Y-53640228D01*
X210899313Y-53640230D01*
X210944177Y-53748541D01*
X210951646Y-53818011D01*
X210920371Y-53880490D01*
X210860282Y-53916142D01*
X210829616Y-53919994D01*
X210329287Y-53919994D01*
X210177661Y-53935412D01*
X209983618Y-53996293D01*
X209983608Y-53996298D01*
X209805784Y-54094999D01*
X209805783Y-54094999D01*
X209651469Y-54227472D01*
X209651468Y-54227473D01*
X209526981Y-54388298D01*
X209437411Y-54570900D01*
X209411754Y-54669994D01*
X210213889Y-54669994D01*
X210174390Y-54694451D01*
X210106799Y-54783956D01*
X210076105Y-54891834D01*
X210086454Y-55003515D01*
X210136448Y-55103916D01*
X210208931Y-55169994D01*
X209406634Y-55169994D01*
X200098517Y-55169994D01*
X200132533Y-55132216D01*
X200227179Y-54968284D01*
X200285674Y-54788256D01*
X200305460Y-54600000D01*
X200285674Y-54411744D01*
X200227179Y-54231716D01*
X200132533Y-54067784D01*
X200005871Y-53927112D01*
X199990772Y-53916142D01*
X199852734Y-53815851D01*
X199852729Y-53815848D01*
X199679807Y-53738857D01*
X199679802Y-53738855D01*
X199534001Y-53707865D01*
X199494646Y-53699500D01*
X199305354Y-53699500D01*
X199272897Y-53706398D01*
X199120197Y-53738855D01*
X199120192Y-53738857D01*
X198947270Y-53815848D01*
X198947265Y-53815851D01*
X198794129Y-53927111D01*
X198794128Y-53927112D01*
X198742820Y-53984095D01*
X198683333Y-54020743D01*
X198613476Y-54019412D01*
X198555428Y-53980525D01*
X198527619Y-53916428D01*
X198530812Y-53870230D01*
X198530636Y-53870000D01*
X197633686Y-53870000D01*
X197659493Y-53829844D01*
X197700000Y-53691889D01*
X197700000Y-53548111D01*
X197659493Y-53410156D01*
X197633686Y-53370000D01*
X198530636Y-53370000D01*
X198530635Y-53369999D01*
X198473432Y-53156513D01*
X198473429Y-53156507D01*
X198373600Y-52942422D01*
X198373599Y-52942420D01*
X198238113Y-52748926D01*
X198238108Y-52748920D01*
X198071078Y-52581890D01*
X197885405Y-52451879D01*
X197841780Y-52397302D01*
X197834588Y-52327804D01*
X197866110Y-52265449D01*
X197885406Y-52248730D01*
X197966596Y-52191880D01*
X198071401Y-52118495D01*
X198238495Y-51951401D01*
X198374035Y-51757830D01*
X198473903Y-51543663D01*
X198535063Y-51315408D01*
X198555659Y-51080000D01*
X198535063Y-50844592D01*
X198473903Y-50616337D01*
X198374035Y-50402171D01*
X198341940Y-50356335D01*
X198238496Y-50208600D01*
X198238495Y-50208599D01*
X198116567Y-50086671D01*
X198083084Y-50025351D01*
X198088068Y-49955659D01*
X198129939Y-49899725D01*
X198160915Y-49882810D01*
X198292331Y-49833796D01*
X198407546Y-49747546D01*
X198493796Y-49632331D01*
X198544091Y-49497483D01*
X198550500Y-49437873D01*
X198550499Y-47642128D01*
X198544091Y-47582517D01*
X198535602Y-47559758D01*
X198493797Y-47447671D01*
X198493793Y-47447664D01*
X198407547Y-47332455D01*
X198407544Y-47332452D01*
X198292335Y-47246206D01*
X198292328Y-47246202D01*
X198157482Y-47195908D01*
X198157483Y-47195908D01*
X198097883Y-47189501D01*
X198097881Y-47189500D01*
X198097873Y-47189500D01*
X198097864Y-47189500D01*
X196302129Y-47189500D01*
X196302123Y-47189501D01*
X196242516Y-47195908D01*
X196107671Y-47246202D01*
X196107664Y-47246206D01*
X195992455Y-47332452D01*
X195992452Y-47332455D01*
X195906206Y-47447664D01*
X195906202Y-47447671D01*
X195855908Y-47582517D01*
X195849501Y-47642116D01*
X195849501Y-47642123D01*
X195849500Y-47642135D01*
X195849500Y-49437870D01*
X195849501Y-49437876D01*
X195855908Y-49497483D01*
X195906202Y-49632328D01*
X195906206Y-49632335D01*
X195992452Y-49747544D01*
X195992455Y-49747547D01*
X196107664Y-49833793D01*
X196107671Y-49833797D01*
X196239081Y-49882810D01*
X196295015Y-49924681D01*
X196319432Y-49990145D01*
X196304580Y-50058418D01*
X196283430Y-50086673D01*
X196161503Y-50208600D01*
X196025965Y-50402169D01*
X196025964Y-50402171D01*
X195926098Y-50616335D01*
X195926094Y-50616344D01*
X195864938Y-50844586D01*
X195864936Y-50844596D01*
X195844341Y-51079999D01*
X195844341Y-51080000D01*
X195864936Y-51315403D01*
X195864938Y-51315413D01*
X195926094Y-51543655D01*
X195926096Y-51543659D01*
X195926097Y-51543663D01*
X195946893Y-51588259D01*
X196025965Y-51757830D01*
X196025967Y-51757834D01*
X196161501Y-51951395D01*
X196161506Y-51951402D01*
X196328597Y-52118493D01*
X196328603Y-52118498D01*
X196514594Y-52248730D01*
X196558219Y-52303307D01*
X196565413Y-52372805D01*
X196533890Y-52435160D01*
X196514595Y-52451880D01*
X196328922Y-52581890D01*
X196328920Y-52581891D01*
X196161891Y-52748920D01*
X196161886Y-52748926D01*
X196026400Y-52942420D01*
X196026399Y-52942422D01*
X195926570Y-53156507D01*
X195926567Y-53156513D01*
X195869364Y-53369999D01*
X195869364Y-53370000D01*
X196766314Y-53370000D01*
X196740507Y-53410156D01*
X196700000Y-53548111D01*
X196700000Y-53691889D01*
X196740507Y-53829844D01*
X196766314Y-53870000D01*
X195869364Y-53870000D01*
X195926567Y-54083486D01*
X195926570Y-54083492D01*
X196026399Y-54297578D01*
X196161894Y-54491082D01*
X196189934Y-54519122D01*
X196223419Y-54580445D01*
X196218435Y-54650137D01*
X196189934Y-54694484D01*
X195658965Y-55225452D01*
X195646775Y-55236143D01*
X195621716Y-55255372D01*
X195556620Y-55340209D01*
X195525464Y-55380812D01*
X195525461Y-55380817D01*
X195464957Y-55526888D01*
X195464955Y-55526893D01*
X195444318Y-55683652D01*
X195444318Y-55683654D01*
X195448439Y-55714955D01*
X195449500Y-55731141D01*
X195449500Y-56588858D01*
X195448439Y-56605043D01*
X195444318Y-56636344D01*
X195444318Y-56636346D01*
X195449500Y-56675706D01*
X195449500Y-56675707D01*
X195465641Y-56798314D01*
X195454875Y-56867349D01*
X195430383Y-56902180D01*
X190969384Y-61363181D01*
X190908061Y-61396666D01*
X190881703Y-61399500D01*
X190226258Y-61399500D01*
X190159219Y-61379815D01*
X190134109Y-61358473D01*
X190105871Y-61327112D01*
X190105864Y-61327106D01*
X189952734Y-61215851D01*
X189952729Y-61215848D01*
X189779807Y-61138857D01*
X189779802Y-61138855D01*
X189634001Y-61107865D01*
X189594646Y-61099500D01*
X189405354Y-61099500D01*
X189372897Y-61106398D01*
X189220197Y-61138855D01*
X189220192Y-61138857D01*
X189047270Y-61215848D01*
X189047265Y-61215851D01*
X188894132Y-61327109D01*
X188894129Y-61327111D01*
X188894129Y-61327112D01*
X188789193Y-61443655D01*
X188788381Y-61444557D01*
X188728894Y-61481205D01*
X188659037Y-61479874D01*
X188608550Y-61449265D01*
X187381005Y-60221720D01*
X187347520Y-60160397D01*
X187350754Y-60095724D01*
X187385674Y-59988256D01*
X187405460Y-59800000D01*
X187385674Y-59611744D01*
X187327179Y-59431716D01*
X187232533Y-59267784D01*
X187105871Y-59127112D01*
X187093101Y-59117834D01*
X186952734Y-59015851D01*
X186952729Y-59015848D01*
X186779807Y-58938857D01*
X186779802Y-58938855D01*
X186614236Y-58903664D01*
X186594646Y-58899500D01*
X186405354Y-58899500D01*
X186385764Y-58903664D01*
X186220197Y-58938855D01*
X186220192Y-58938857D01*
X186047270Y-59015848D01*
X186047265Y-59015851D01*
X185894129Y-59127111D01*
X185894128Y-59127112D01*
X185827712Y-59200874D01*
X185768225Y-59237522D01*
X185698368Y-59236191D01*
X185640320Y-59197304D01*
X185617632Y-59156218D01*
X185605160Y-59117834D01*
X185577179Y-59031716D01*
X185482533Y-58867784D01*
X185355871Y-58727112D01*
X185355863Y-58727106D01*
X185202734Y-58615851D01*
X185202729Y-58615848D01*
X185029807Y-58538857D01*
X185029802Y-58538855D01*
X184884001Y-58507865D01*
X184844646Y-58499500D01*
X184655354Y-58499500D01*
X184622897Y-58506398D01*
X184470197Y-58538855D01*
X184470192Y-58538857D01*
X184297270Y-58615848D01*
X184297265Y-58615851D01*
X184144135Y-58727106D01*
X184144128Y-58727112D01*
X184115891Y-58758473D01*
X184056405Y-58795121D01*
X184023742Y-58799500D01*
X183226258Y-58799500D01*
X183159219Y-58779815D01*
X183134109Y-58758473D01*
X183105871Y-58727112D01*
X183105864Y-58727106D01*
X182952734Y-58615851D01*
X182952729Y-58615848D01*
X182779807Y-58538857D01*
X182779802Y-58538855D01*
X182634001Y-58507865D01*
X182594646Y-58499500D01*
X182405354Y-58499500D01*
X182372897Y-58506398D01*
X182220197Y-58538855D01*
X182220192Y-58538857D01*
X182047270Y-58615848D01*
X182047265Y-58615851D01*
X181894129Y-58727111D01*
X181767466Y-58867785D01*
X181672821Y-59031715D01*
X181672818Y-59031722D01*
X181629948Y-59163664D01*
X181614326Y-59211744D01*
X181594540Y-59400000D01*
X181614326Y-59588256D01*
X181614327Y-59588259D01*
X181672818Y-59768277D01*
X181672821Y-59768284D01*
X181767467Y-59932216D01*
X181892947Y-60071575D01*
X181894129Y-60072888D01*
X182047265Y-60184148D01*
X182047270Y-60184151D01*
X182220192Y-60261142D01*
X182220197Y-60261144D01*
X182405354Y-60300500D01*
X182405355Y-60300500D01*
X182594644Y-60300500D01*
X182594646Y-60300500D01*
X182779803Y-60261144D01*
X182952730Y-60184151D01*
X183105871Y-60072888D01*
X183134109Y-60041527D01*
X183193595Y-60004879D01*
X183226258Y-60000500D01*
X184023742Y-60000500D01*
X184090781Y-60020185D01*
X184115891Y-60041527D01*
X184144128Y-60072887D01*
X184144135Y-60072893D01*
X184297265Y-60184148D01*
X184297270Y-60184151D01*
X184470192Y-60261142D01*
X184470197Y-60261144D01*
X184655354Y-60300500D01*
X184655355Y-60300500D01*
X184844644Y-60300500D01*
X184844646Y-60300500D01*
X185029803Y-60261144D01*
X185202730Y-60184151D01*
X185355871Y-60072888D01*
X185422287Y-59999124D01*
X185481772Y-59962477D01*
X185551629Y-59963807D01*
X185609678Y-60002694D01*
X185632367Y-60043780D01*
X185672818Y-60168278D01*
X185672821Y-60168284D01*
X185767467Y-60332216D01*
X185894129Y-60472888D01*
X186028878Y-60570788D01*
X186054365Y-60595617D01*
X186071718Y-60618232D01*
X186096769Y-60637454D01*
X186108964Y-60648149D01*
X189351851Y-63891036D01*
X189362545Y-63903230D01*
X189381769Y-63928283D01*
X189381770Y-63928284D01*
X189453942Y-63983663D01*
X189495313Y-64015408D01*
X189495312Y-64015409D01*
X189495317Y-64015411D01*
X189507211Y-64024538D01*
X189622953Y-64072480D01*
X189677356Y-64116319D01*
X189699421Y-64182613D01*
X189699500Y-64187040D01*
X189699500Y-64399903D01*
X189679815Y-64466942D01*
X189663181Y-64487584D01*
X189287584Y-64863181D01*
X189226261Y-64896666D01*
X189199903Y-64899500D01*
X189105354Y-64899500D01*
X189072897Y-64906398D01*
X188920197Y-64938855D01*
X188920192Y-64938857D01*
X188747270Y-65015848D01*
X188747265Y-65015851D01*
X188594129Y-65127111D01*
X188467466Y-65267785D01*
X188372821Y-65431715D01*
X188372818Y-65431722D01*
X188319275Y-65596513D01*
X188314326Y-65611744D01*
X188294540Y-65800000D01*
X188314326Y-65988256D01*
X188314327Y-65988259D01*
X188372818Y-66168277D01*
X188372821Y-66168284D01*
X188467467Y-66332216D01*
X188520215Y-66390798D01*
X188567650Y-66443480D01*
X188597880Y-66506471D01*
X188599500Y-66526452D01*
X188599500Y-67194121D01*
X188579815Y-67261160D01*
X188563181Y-67281802D01*
X187281465Y-68563517D01*
X187220142Y-68597002D01*
X187207668Y-68599056D01*
X187120750Y-68608849D01*
X186950478Y-68668429D01*
X186797737Y-68764403D01*
X186670184Y-68891956D01*
X186574211Y-69044695D01*
X186514631Y-69214964D01*
X186514630Y-69214969D01*
X186494435Y-69394215D01*
X186494435Y-69394222D01*
X186514630Y-69573468D01*
X186514631Y-69573473D01*
X186574211Y-69743742D01*
X186624014Y-69823002D01*
X186670184Y-69896481D01*
X186797738Y-70024035D01*
X186867364Y-70067784D01*
X186930571Y-70107500D01*
X186950478Y-70120008D01*
X187043335Y-70152500D01*
X187120745Y-70179587D01*
X187120750Y-70179588D01*
X187299996Y-70199784D01*
X187300000Y-70199784D01*
X187300004Y-70199784D01*
X187479249Y-70179588D01*
X187479252Y-70179587D01*
X187479255Y-70179587D01*
X187649522Y-70120008D01*
X187802262Y-70024035D01*
X187929816Y-69896481D01*
X188025789Y-69743741D01*
X188085368Y-69573474D01*
X188095161Y-69486548D01*
X188122226Y-69422137D01*
X188130690Y-69412762D01*
X189591043Y-67952409D01*
X189603223Y-67941728D01*
X189628282Y-67922501D01*
X189724536Y-67797060D01*
X189785044Y-67650981D01*
X189800500Y-67533580D01*
X189805682Y-67494219D01*
X189801561Y-67462916D01*
X189800500Y-67446731D01*
X189800500Y-66526452D01*
X189820185Y-66459413D01*
X189832350Y-66443480D01*
X189932533Y-66332216D01*
X190027179Y-66168284D01*
X190085674Y-65988256D01*
X190105460Y-65800000D01*
X190105460Y-65799997D01*
X190105460Y-65795136D01*
X190125145Y-65728097D01*
X190141779Y-65707455D01*
X190400314Y-65448920D01*
X190691043Y-65158190D01*
X190703223Y-65147509D01*
X190728282Y-65128282D01*
X190824536Y-65002841D01*
X190885044Y-64856762D01*
X190891769Y-64805682D01*
X190905682Y-64700000D01*
X190904198Y-64688730D01*
X190901561Y-64668696D01*
X190900500Y-64652511D01*
X190900500Y-64227528D01*
X190920185Y-64160489D01*
X190972989Y-64114734D01*
X191008315Y-64104589D01*
X191039359Y-64100502D01*
X191156760Y-64085046D01*
X191302839Y-64024538D01*
X191314730Y-64015413D01*
X191314738Y-64015410D01*
X191314737Y-64015408D01*
X191356108Y-63983663D01*
X191428280Y-63928284D01*
X191447508Y-63903224D01*
X191458187Y-63891046D01*
X195612416Y-59736819D01*
X195673739Y-59703334D01*
X195700097Y-59700500D01*
X196239242Y-59700500D01*
X196306281Y-59720185D01*
X196326923Y-59736819D01*
X196328597Y-59738493D01*
X196328603Y-59738498D01*
X196514158Y-59868425D01*
X196557783Y-59923002D01*
X196564977Y-59992500D01*
X196533454Y-60054855D01*
X196514158Y-60071575D01*
X196328597Y-60201505D01*
X196161505Y-60368597D01*
X196025965Y-60562169D01*
X196025964Y-60562171D01*
X195926098Y-60776335D01*
X195926094Y-60776344D01*
X195864938Y-61004586D01*
X195864936Y-61004596D01*
X195844341Y-61239999D01*
X195844341Y-61240000D01*
X195864936Y-61475403D01*
X195864938Y-61475413D01*
X195926094Y-61703655D01*
X195926096Y-61703659D01*
X195926097Y-61703663D01*
X195994986Y-61851395D01*
X196025965Y-61917830D01*
X196025967Y-61917834D01*
X196161501Y-62111395D01*
X196161506Y-62111402D01*
X196328597Y-62278493D01*
X196328603Y-62278498D01*
X196514158Y-62408425D01*
X196557783Y-62463002D01*
X196564977Y-62532500D01*
X196533454Y-62594855D01*
X196514158Y-62611575D01*
X196328597Y-62741505D01*
X196161505Y-62908597D01*
X196025965Y-63102169D01*
X196025964Y-63102171D01*
X195926098Y-63316335D01*
X195926094Y-63316344D01*
X195864938Y-63544586D01*
X195864936Y-63544596D01*
X195844341Y-63779999D01*
X195844341Y-63780000D01*
X195864936Y-64015403D01*
X195864938Y-64015413D01*
X195926094Y-64243655D01*
X195926096Y-64243659D01*
X195926097Y-64243663D01*
X195994986Y-64391395D01*
X196025965Y-64457830D01*
X196025967Y-64457834D01*
X196161501Y-64651395D01*
X196161506Y-64651402D01*
X196328597Y-64818493D01*
X196328603Y-64818498D01*
X196514594Y-64948730D01*
X196558219Y-65003307D01*
X196565413Y-65072805D01*
X196533890Y-65135160D01*
X196514595Y-65151880D01*
X196328922Y-65281890D01*
X196328920Y-65281891D01*
X196161891Y-65448920D01*
X196161886Y-65448926D01*
X196026400Y-65642420D01*
X196026399Y-65642422D01*
X195926570Y-65856507D01*
X195926567Y-65856513D01*
X195869364Y-66069999D01*
X195869364Y-66070000D01*
X196766314Y-66070000D01*
X196740507Y-66110156D01*
X196700000Y-66248111D01*
X196700000Y-66391889D01*
X196740507Y-66529844D01*
X196766314Y-66570000D01*
X195869364Y-66570000D01*
X195926567Y-66783486D01*
X195926570Y-66783492D01*
X196026399Y-66997578D01*
X196161894Y-67191082D01*
X196328917Y-67358105D01*
X196514595Y-67488119D01*
X196558219Y-67542696D01*
X196565412Y-67612195D01*
X196533890Y-67674549D01*
X196514595Y-67691269D01*
X196328594Y-67821508D01*
X196161505Y-67988597D01*
X196025965Y-68182169D01*
X196025964Y-68182171D01*
X195926098Y-68396335D01*
X195926094Y-68396344D01*
X195864938Y-68624586D01*
X195864936Y-68624596D01*
X195844341Y-68859999D01*
X195844341Y-68860000D01*
X195864936Y-69095403D01*
X195864938Y-69095413D01*
X195926094Y-69323655D01*
X195926096Y-69323659D01*
X195926097Y-69323663D01*
X195983686Y-69447163D01*
X196025965Y-69537830D01*
X196025967Y-69537834D01*
X196161501Y-69731395D01*
X196161506Y-69731402D01*
X196328597Y-69898493D01*
X196328603Y-69898498D01*
X196514158Y-70028425D01*
X196557783Y-70083002D01*
X196564977Y-70152500D01*
X196533454Y-70214855D01*
X196514158Y-70231575D01*
X196328597Y-70361505D01*
X196161505Y-70528597D01*
X196025965Y-70722169D01*
X196025964Y-70722171D01*
X195926098Y-70936335D01*
X195926094Y-70936344D01*
X195864938Y-71164586D01*
X195864936Y-71164596D01*
X195844341Y-71399999D01*
X195844341Y-71400000D01*
X195864936Y-71635403D01*
X195864938Y-71635413D01*
X195926094Y-71863655D01*
X195926096Y-71863659D01*
X195926097Y-71863663D01*
X196025965Y-72077830D01*
X196025967Y-72077834D01*
X196161501Y-72271395D01*
X196161506Y-72271402D01*
X196328597Y-72438493D01*
X196328603Y-72438498D01*
X196514158Y-72568425D01*
X196557783Y-72623002D01*
X196564977Y-72692500D01*
X196533454Y-72754855D01*
X196514158Y-72771575D01*
X196328597Y-72901505D01*
X196161505Y-73068597D01*
X196025965Y-73262169D01*
X196025964Y-73262171D01*
X195926098Y-73476335D01*
X195926094Y-73476344D01*
X195864938Y-73704586D01*
X195864936Y-73704596D01*
X195844341Y-73939999D01*
X195844341Y-73940000D01*
X195864936Y-74175403D01*
X195864938Y-74175413D01*
X195899327Y-74303756D01*
X195897664Y-74373606D01*
X195867233Y-74423530D01*
X194664555Y-75626210D01*
X194603232Y-75659695D01*
X194576874Y-75662529D01*
X190846132Y-75662529D01*
X190779093Y-75642844D01*
X190758451Y-75626210D01*
X190251887Y-75119646D01*
X190218402Y-75058323D01*
X190215568Y-75031965D01*
X190215568Y-75027104D01*
X190212404Y-74996998D01*
X190195782Y-74838846D01*
X190137287Y-74658818D01*
X190042641Y-74494886D01*
X189915979Y-74354214D01*
X189913068Y-74352099D01*
X189762842Y-74242953D01*
X189762837Y-74242950D01*
X189589915Y-74165959D01*
X189589910Y-74165957D01*
X189444109Y-74134967D01*
X189404754Y-74126602D01*
X189215462Y-74126602D01*
X189183005Y-74133500D01*
X189030305Y-74165957D01*
X189030300Y-74165959D01*
X188857378Y-74242950D01*
X188857373Y-74242953D01*
X188704237Y-74354213D01*
X188577574Y-74494887D01*
X188482929Y-74658817D01*
X188482926Y-74658824D01*
X188433353Y-74811395D01*
X188424434Y-74838846D01*
X188404648Y-75027102D01*
X188424434Y-75215358D01*
X188424434Y-75215360D01*
X188424435Y-75215362D01*
X188437860Y-75256681D01*
X188439855Y-75326522D01*
X188407612Y-75382677D01*
X188370187Y-75420103D01*
X188370186Y-75420104D01*
X188274210Y-75572848D01*
X188214630Y-75743120D01*
X188204837Y-75830038D01*
X188177770Y-75894452D01*
X188169298Y-75903835D01*
X188137463Y-75935670D01*
X188090172Y-75962977D01*
X188090719Y-75964297D01*
X188063475Y-75975581D01*
X187994005Y-75983048D01*
X187931527Y-75951772D01*
X187911031Y-75926991D01*
X187829813Y-75797734D01*
X187827550Y-75794896D01*
X187826659Y-75792715D01*
X187826111Y-75791842D01*
X187826264Y-75791745D01*
X187801144Y-75730209D01*
X187800500Y-75717587D01*
X187800500Y-72209985D01*
X187801561Y-72193799D01*
X187803576Y-72178498D01*
X187805682Y-72162498D01*
X187785044Y-72005736D01*
X187724536Y-71859657D01*
X187721486Y-71855682D01*
X187721483Y-71855678D01*
X187721483Y-71855677D01*
X187631084Y-71737866D01*
X187605890Y-71672696D01*
X187605468Y-71662580D01*
X187605459Y-71662500D01*
X187605460Y-71662498D01*
X187585674Y-71474242D01*
X187527179Y-71294214D01*
X187432533Y-71130282D01*
X187305871Y-70989610D01*
X187287498Y-70976261D01*
X187152734Y-70878349D01*
X187152729Y-70878346D01*
X186979807Y-70801355D01*
X186979802Y-70801353D01*
X186834001Y-70770363D01*
X186794646Y-70761998D01*
X186605354Y-70761998D01*
X186572897Y-70768896D01*
X186420197Y-70801353D01*
X186420192Y-70801355D01*
X186247270Y-70878346D01*
X186247265Y-70878349D01*
X186094129Y-70989609D01*
X185967466Y-71130283D01*
X185872821Y-71294213D01*
X185872818Y-71294220D01*
X185829260Y-71428280D01*
X185814326Y-71474242D01*
X185794540Y-71662498D01*
X185814326Y-71850754D01*
X185814327Y-71850757D01*
X185872818Y-72030775D01*
X185872821Y-72030782D01*
X185967467Y-72194714D01*
X186084908Y-72325145D01*
X186094129Y-72335386D01*
X186247265Y-72446646D01*
X186247270Y-72446649D01*
X186420197Y-72523642D01*
X186501283Y-72540877D01*
X186562762Y-72574067D01*
X186596539Y-72635230D01*
X186599500Y-72662166D01*
X186599500Y-75046616D01*
X186579815Y-75113655D01*
X186527011Y-75159410D01*
X186457853Y-75169354D01*
X186449720Y-75167906D01*
X186421943Y-75162002D01*
X186232651Y-75162002D01*
X186204875Y-75167906D01*
X186047494Y-75201357D01*
X186047489Y-75201359D01*
X185901243Y-75266473D01*
X185831993Y-75275758D01*
X185768716Y-75246130D01*
X185731503Y-75186995D01*
X185726807Y-75153194D01*
X185726807Y-74897833D01*
X185727868Y-74881647D01*
X185731990Y-74850339D01*
X185711351Y-74693577D01*
X185679977Y-74617834D01*
X185650843Y-74547498D01*
X185648845Y-74544894D01*
X185554589Y-74422057D01*
X185554587Y-74422055D01*
X185554586Y-74422054D01*
X185529535Y-74402832D01*
X185517341Y-74392138D01*
X185434711Y-74309508D01*
X185401226Y-74248185D01*
X185398392Y-74221827D01*
X185398392Y-74216966D01*
X185398392Y-74216964D01*
X185378606Y-74028708D01*
X185320111Y-73848680D01*
X185225465Y-73684748D01*
X185098803Y-73544076D01*
X185005578Y-73476344D01*
X184945666Y-73432815D01*
X184945661Y-73432812D01*
X184772739Y-73355821D01*
X184772734Y-73355819D01*
X184626933Y-73324829D01*
X184587578Y-73316464D01*
X184398286Y-73316464D01*
X184365829Y-73323362D01*
X184213129Y-73355819D01*
X184213124Y-73355821D01*
X184040202Y-73432812D01*
X184040197Y-73432815D01*
X183887061Y-73544075D01*
X183760398Y-73684749D01*
X183665753Y-73848679D01*
X183665750Y-73848686D01*
X183607259Y-74028704D01*
X183607258Y-74028708D01*
X183587472Y-74216964D01*
X183607258Y-74405220D01*
X183607259Y-74405223D01*
X183622434Y-74451927D01*
X183624429Y-74521768D01*
X183588349Y-74581601D01*
X183525648Y-74612429D01*
X183504503Y-74614245D01*
X181814842Y-74614245D01*
X181747803Y-74594560D01*
X181727161Y-74577926D01*
X181669518Y-74520283D01*
X181636033Y-74458960D01*
X181641017Y-74389268D01*
X181652205Y-74366630D01*
X181657734Y-74357831D01*
X181725789Y-74249522D01*
X181785368Y-74079255D01*
X181785369Y-74079249D01*
X181805565Y-73900003D01*
X181805565Y-73899996D01*
X181785369Y-73720750D01*
X181785366Y-73720737D01*
X181770437Y-73678072D01*
X181766875Y-73608293D01*
X181799795Y-73549438D01*
X183891043Y-71458190D01*
X183903223Y-71447509D01*
X183928282Y-71428282D01*
X183963063Y-71382953D01*
X183988548Y-71358127D01*
X184076518Y-71294214D01*
X184105866Y-71272892D01*
X184105867Y-71272890D01*
X184105871Y-71272888D01*
X184232533Y-71132216D01*
X184327179Y-70968284D01*
X184385674Y-70788256D01*
X184405460Y-70600000D01*
X184385674Y-70411744D01*
X184327179Y-70231716D01*
X184232533Y-70067784D01*
X184105871Y-69927112D01*
X184105870Y-69927111D01*
X183952734Y-69815851D01*
X183952729Y-69815848D01*
X183779807Y-69738857D01*
X183779802Y-69738855D01*
X183634001Y-69707865D01*
X183594646Y-69699500D01*
X183405354Y-69699500D01*
X183372897Y-69706398D01*
X183220197Y-69738855D01*
X183220192Y-69738857D01*
X183047270Y-69815848D01*
X183047265Y-69815851D01*
X182894129Y-69927111D01*
X182767466Y-70067785D01*
X182672821Y-70231715D01*
X182672818Y-70231722D01*
X182630649Y-70361506D01*
X182614326Y-70411744D01*
X182594540Y-70600000D01*
X182614326Y-70788256D01*
X182614327Y-70788259D01*
X182651708Y-70903306D01*
X182653703Y-70973147D01*
X182621458Y-71029305D01*
X180608965Y-73041798D01*
X180596775Y-73052489D01*
X180571717Y-73071718D01*
X180538790Y-73114631D01*
X180538789Y-73114632D01*
X180505501Y-73158014D01*
X180449073Y-73199217D01*
X180379327Y-73203372D01*
X180319444Y-73170209D01*
X178186819Y-71037584D01*
X178153334Y-70976261D01*
X178150500Y-70949903D01*
X178150500Y-69797487D01*
X178151561Y-69781301D01*
X178155682Y-69750000D01*
X178155682Y-69749998D01*
X178135044Y-69593239D01*
X178135042Y-69593234D01*
X178074538Y-69447163D01*
X178074535Y-69447158D01*
X178071677Y-69443434D01*
X178002450Y-69353215D01*
X177988761Y-69335375D01*
X177978281Y-69321716D01*
X177953229Y-69302494D01*
X177941034Y-69291799D01*
X177732766Y-69083531D01*
X177699281Y-69022208D01*
X177700672Y-68963757D01*
X177701863Y-68959309D01*
X177735063Y-68835408D01*
X177755659Y-68600000D01*
X177755151Y-68594199D01*
X177735063Y-68364596D01*
X177735063Y-68364592D01*
X177686184Y-68182171D01*
X177673905Y-68136344D01*
X177673904Y-68136343D01*
X177673903Y-68136337D01*
X177574035Y-67922171D01*
X177503551Y-67821508D01*
X177438494Y-67728597D01*
X177271402Y-67561506D01*
X177271401Y-67561505D01*
X177085405Y-67431269D01*
X177041781Y-67376692D01*
X177034588Y-67307193D01*
X177066110Y-67244839D01*
X177085405Y-67228119D01*
X177271082Y-67098105D01*
X177438105Y-66931082D01*
X177573600Y-66737578D01*
X177673429Y-66523492D01*
X177673432Y-66523486D01*
X177730636Y-66310000D01*
X176833686Y-66310000D01*
X176859493Y-66269844D01*
X176900000Y-66131889D01*
X176900000Y-65988111D01*
X176859493Y-65850156D01*
X176833686Y-65810000D01*
X177730636Y-65810000D01*
X177730635Y-65809999D01*
X177673432Y-65596513D01*
X177673429Y-65596507D01*
X177573600Y-65382422D01*
X177573599Y-65382420D01*
X177438113Y-65188926D01*
X177438108Y-65188920D01*
X177271078Y-65021890D01*
X177085405Y-64891879D01*
X177041780Y-64837302D01*
X177034588Y-64767804D01*
X177066110Y-64705449D01*
X177085406Y-64688730D01*
X177271401Y-64558495D01*
X177438495Y-64391401D01*
X177572516Y-64200000D01*
X184594540Y-64200000D01*
X184614326Y-64388256D01*
X184614327Y-64388259D01*
X184672818Y-64568277D01*
X184672821Y-64568284D01*
X184767467Y-64732216D01*
X184845153Y-64818495D01*
X184894129Y-64872888D01*
X185047265Y-64984148D01*
X185047270Y-64984151D01*
X185220192Y-65061142D01*
X185220197Y-65061144D01*
X185405354Y-65100500D01*
X185405355Y-65100500D01*
X185594644Y-65100500D01*
X185594646Y-65100500D01*
X185779803Y-65061144D01*
X185952730Y-64984151D01*
X186105871Y-64872888D01*
X186232533Y-64732216D01*
X186327179Y-64568284D01*
X186385674Y-64388256D01*
X186405460Y-64200000D01*
X186385674Y-64011744D01*
X186327179Y-63831716D01*
X186232533Y-63667784D01*
X186156167Y-63582971D01*
X186125937Y-63519980D01*
X186134562Y-63450644D01*
X186156164Y-63417031D01*
X186232533Y-63332216D01*
X186327179Y-63168284D01*
X186385674Y-62988256D01*
X186405460Y-62800000D01*
X186385674Y-62611744D01*
X186327179Y-62431716D01*
X186232533Y-62267784D01*
X186105871Y-62127112D01*
X186084247Y-62111401D01*
X185952734Y-62015851D01*
X185952729Y-62015848D01*
X185779807Y-61938857D01*
X185779802Y-61938855D01*
X185634001Y-61907865D01*
X185594646Y-61899500D01*
X185405354Y-61899500D01*
X185372897Y-61906398D01*
X185220197Y-61938855D01*
X185220192Y-61938857D01*
X185047270Y-62015848D01*
X185047265Y-62015851D01*
X184894129Y-62127111D01*
X184767466Y-62267785D01*
X184672821Y-62431715D01*
X184672818Y-62431722D01*
X184614381Y-62611575D01*
X184614326Y-62611744D01*
X184594540Y-62800000D01*
X184614326Y-62988256D01*
X184614327Y-62988259D01*
X184672818Y-63168277D01*
X184672821Y-63168284D01*
X184767467Y-63332216D01*
X184843833Y-63417029D01*
X184874062Y-63480018D01*
X184865437Y-63549353D01*
X184843832Y-63582971D01*
X184767466Y-63667784D01*
X184672821Y-63831715D01*
X184672818Y-63831722D01*
X184614327Y-64011740D01*
X184614326Y-64011744D01*
X184594540Y-64200000D01*
X177572516Y-64200000D01*
X177574035Y-64197830D01*
X177673903Y-63983663D01*
X177735063Y-63755408D01*
X177755659Y-63520000D01*
X177735063Y-63284592D01*
X177686184Y-63102171D01*
X177673905Y-63056344D01*
X177673904Y-63056343D01*
X177673903Y-63056337D01*
X177574035Y-62842171D01*
X177544886Y-62800541D01*
X177438494Y-62648597D01*
X177271402Y-62481506D01*
X177271396Y-62481501D01*
X177085842Y-62351575D01*
X177042217Y-62296998D01*
X177035023Y-62227500D01*
X177066546Y-62165145D01*
X177085842Y-62148425D01*
X177138716Y-62111402D01*
X177271401Y-62018495D01*
X177438495Y-61851401D01*
X177574035Y-61657830D01*
X177673903Y-61443663D01*
X177735063Y-61215408D01*
X177755659Y-60980000D01*
X177735063Y-60744592D01*
X177686184Y-60562171D01*
X177673905Y-60516344D01*
X177673904Y-60516343D01*
X177673903Y-60516337D01*
X177574035Y-60302171D01*
X177545307Y-60261142D01*
X177438494Y-60108597D01*
X177271402Y-59941506D01*
X177271396Y-59941501D01*
X177085842Y-59811575D01*
X177042217Y-59756998D01*
X177035023Y-59687500D01*
X177066546Y-59625145D01*
X177085842Y-59608425D01*
X177138716Y-59571402D01*
X177271401Y-59478495D01*
X177438495Y-59311401D01*
X177574035Y-59117830D01*
X177673903Y-58903663D01*
X177735063Y-58675408D01*
X177755659Y-58440000D01*
X177735063Y-58204592D01*
X177686184Y-58022171D01*
X177673905Y-57976344D01*
X177673904Y-57976343D01*
X177673903Y-57976337D01*
X177574035Y-57762171D01*
X177540054Y-57713640D01*
X177438494Y-57568597D01*
X177271402Y-57401506D01*
X177271396Y-57401501D01*
X177085842Y-57271575D01*
X177042217Y-57216998D01*
X177035023Y-57147500D01*
X177066546Y-57085145D01*
X177085842Y-57068425D01*
X177156771Y-57018760D01*
X177271401Y-56938495D01*
X177438495Y-56771401D01*
X177574035Y-56577830D01*
X177673903Y-56363663D01*
X177735063Y-56135408D01*
X177755659Y-55900000D01*
X177735063Y-55664592D01*
X177673903Y-55436337D01*
X177574035Y-55222171D01*
X177561720Y-55204582D01*
X177438494Y-55028597D01*
X177271402Y-54861506D01*
X177271401Y-54861505D01*
X177085405Y-54731269D01*
X177041781Y-54676692D01*
X177034588Y-54607193D01*
X177066110Y-54544839D01*
X177085405Y-54528119D01*
X177271082Y-54398105D01*
X177438105Y-54231082D01*
X177573600Y-54037578D01*
X177633090Y-53910000D01*
X178584540Y-53910000D01*
X178604326Y-54098256D01*
X178604327Y-54098259D01*
X178662818Y-54278277D01*
X178662821Y-54278284D01*
X178757467Y-54442216D01*
X178867966Y-54564937D01*
X178884129Y-54582888D01*
X179037265Y-54694148D01*
X179037270Y-54694151D01*
X179210192Y-54771142D01*
X179210197Y-54771144D01*
X179395354Y-54810500D01*
X179395355Y-54810500D01*
X179584644Y-54810500D01*
X179584646Y-54810500D01*
X179769803Y-54771144D01*
X179942730Y-54694151D01*
X180095871Y-54582888D01*
X180222533Y-54442216D01*
X180317179Y-54278284D01*
X180375674Y-54098256D01*
X180393321Y-53930344D01*
X180419904Y-53865734D01*
X180428941Y-53855648D01*
X180707773Y-53576816D01*
X180769095Y-53543334D01*
X180795453Y-53540500D01*
X185296252Y-53540500D01*
X185363291Y-53560185D01*
X185388400Y-53581526D01*
X185394126Y-53587885D01*
X185394130Y-53587889D01*
X185547265Y-53699148D01*
X185547270Y-53699151D01*
X185720192Y-53776142D01*
X185720197Y-53776144D01*
X185905354Y-53815500D01*
X185905355Y-53815500D01*
X186094644Y-53815500D01*
X186094646Y-53815500D01*
X186279803Y-53776144D01*
X186452730Y-53699151D01*
X186605871Y-53587888D01*
X186732533Y-53447216D01*
X186827179Y-53283284D01*
X186885674Y-53103256D01*
X186905460Y-52915000D01*
X186885674Y-52726744D01*
X186834890Y-52570447D01*
X186832895Y-52500606D01*
X186865139Y-52444450D01*
X186972772Y-52336818D01*
X187034095Y-52303334D01*
X187060452Y-52300500D01*
X187119644Y-52300500D01*
X187119646Y-52300500D01*
X187304803Y-52261144D01*
X187477730Y-52184151D01*
X187630871Y-52072888D01*
X187757533Y-51932216D01*
X187852179Y-51768284D01*
X187910674Y-51588256D01*
X187930460Y-51400000D01*
X187910674Y-51211744D01*
X187852179Y-51031716D01*
X187757533Y-50867784D01*
X187630871Y-50727112D01*
X187630870Y-50727111D01*
X187477734Y-50615851D01*
X187477729Y-50615848D01*
X187304807Y-50538857D01*
X187304802Y-50538855D01*
X187159001Y-50507865D01*
X187119646Y-50499500D01*
X186930354Y-50499500D01*
X186897897Y-50506398D01*
X186745197Y-50538855D01*
X186745192Y-50538857D01*
X186572270Y-50615848D01*
X186572265Y-50615851D01*
X186419129Y-50727111D01*
X186292466Y-50867785D01*
X186197821Y-51031715D01*
X186197818Y-51031722D01*
X186182132Y-51080000D01*
X186139326Y-51211744D01*
X186127017Y-51328857D01*
X186121679Y-51379649D01*
X186095094Y-51444263D01*
X186086040Y-51454368D01*
X186012228Y-51528181D01*
X185950905Y-51561666D01*
X185924546Y-51564500D01*
X181013748Y-51564500D01*
X180946709Y-51544815D01*
X180921600Y-51523474D01*
X180915873Y-51517114D01*
X180915869Y-51517110D01*
X180762734Y-51405851D01*
X180762729Y-51405848D01*
X180589807Y-51328857D01*
X180589802Y-51328855D01*
X180444001Y-51297865D01*
X180404646Y-51289500D01*
X180215354Y-51289500D01*
X180182897Y-51296398D01*
X180030197Y-51328855D01*
X180030192Y-51328857D01*
X179857270Y-51405848D01*
X179857265Y-51405851D01*
X179704129Y-51517111D01*
X179577466Y-51657785D01*
X179482821Y-51821715D01*
X179482818Y-51821722D01*
X179424327Y-52001740D01*
X179424326Y-52001744D01*
X179404540Y-52190000D01*
X179424326Y-52378256D01*
X179424327Y-52378259D01*
X179482818Y-52558277D01*
X179482821Y-52558284D01*
X179577464Y-52722212D01*
X179577465Y-52722214D01*
X179577467Y-52722216D01*
X179600940Y-52748285D01*
X179631169Y-52811275D01*
X179622544Y-52880610D01*
X179596472Y-52918936D01*
X179581084Y-52934324D01*
X179542227Y-52973181D01*
X179480907Y-53006666D01*
X179454547Y-53009500D01*
X179395354Y-53009500D01*
X179362897Y-53016398D01*
X179210197Y-53048855D01*
X179210192Y-53048857D01*
X179037270Y-53125848D01*
X179037265Y-53125851D01*
X178884129Y-53237111D01*
X178757466Y-53377785D01*
X178662821Y-53541715D01*
X178662818Y-53541722D01*
X178604327Y-53721740D01*
X178604326Y-53721744D01*
X178584540Y-53910000D01*
X177633090Y-53910000D01*
X177673429Y-53823492D01*
X177673432Y-53823486D01*
X177730636Y-53610000D01*
X176833686Y-53610000D01*
X176859493Y-53569844D01*
X176900000Y-53431889D01*
X176900000Y-53288111D01*
X176859493Y-53150156D01*
X176833686Y-53110000D01*
X177730636Y-53110000D01*
X177730635Y-53109999D01*
X177673432Y-52896513D01*
X177673429Y-52896507D01*
X177573600Y-52682422D01*
X177573599Y-52682420D01*
X177438113Y-52488926D01*
X177438108Y-52488920D01*
X177271078Y-52321890D01*
X177085405Y-52191879D01*
X177041780Y-52137302D01*
X177034588Y-52067804D01*
X177066110Y-52005449D01*
X177085406Y-51988730D01*
X177138716Y-51951402D01*
X177271401Y-51858495D01*
X177438495Y-51691401D01*
X177574035Y-51497830D01*
X177673903Y-51283663D01*
X177735063Y-51055408D01*
X177755659Y-50820000D01*
X177735063Y-50584592D01*
X177686184Y-50402171D01*
X177673905Y-50356344D01*
X177673904Y-50356343D01*
X177673903Y-50356337D01*
X177574035Y-50142171D01*
X177503548Y-50041505D01*
X177438496Y-49948600D01*
X177380395Y-49890499D01*
X177316567Y-49826671D01*
X177283084Y-49765351D01*
X177288068Y-49695659D01*
X177329939Y-49639725D01*
X177360915Y-49622810D01*
X177492331Y-49573796D01*
X177607546Y-49487546D01*
X177693796Y-49372331D01*
X177744091Y-49237483D01*
X177750500Y-49177873D01*
X177750499Y-47382128D01*
X177744091Y-47322517D01*
X177735522Y-47299543D01*
X177693797Y-47187671D01*
X177693793Y-47187664D01*
X177607547Y-47072455D01*
X177607544Y-47072452D01*
X177492335Y-46986206D01*
X177492328Y-46986202D01*
X177357482Y-46935908D01*
X177357483Y-46935908D01*
X177297883Y-46929501D01*
X177297881Y-46929500D01*
X177297873Y-46929500D01*
X177297864Y-46929500D01*
X175502129Y-46929500D01*
X175502123Y-46929501D01*
X175442516Y-46935908D01*
X175307671Y-46986202D01*
X175307664Y-46986206D01*
X175192455Y-47072452D01*
X175192452Y-47072455D01*
X175106206Y-47187664D01*
X175106202Y-47187671D01*
X175055908Y-47322517D01*
X175052687Y-47352483D01*
X175049501Y-47382123D01*
X175049500Y-47382135D01*
X175049500Y-49177870D01*
X175049501Y-49177876D01*
X175055908Y-49237483D01*
X175106202Y-49372328D01*
X175106206Y-49372335D01*
X175192452Y-49487544D01*
X175192455Y-49487547D01*
X175307664Y-49573793D01*
X175307671Y-49573797D01*
X175439081Y-49622810D01*
X175495015Y-49664681D01*
X175519432Y-49730145D01*
X175504580Y-49798418D01*
X175483430Y-49826673D01*
X175361503Y-49948600D01*
X175225965Y-50142169D01*
X175225964Y-50142171D01*
X175126098Y-50356335D01*
X175126094Y-50356344D01*
X175064938Y-50584586D01*
X175064936Y-50584596D01*
X175044341Y-50819999D01*
X175044341Y-50820000D01*
X175064936Y-51055403D01*
X175064938Y-51055413D01*
X175126094Y-51283655D01*
X175126096Y-51283659D01*
X175126097Y-51283663D01*
X175189152Y-51418884D01*
X175225965Y-51497830D01*
X175225967Y-51497834D01*
X175289282Y-51588256D01*
X175361505Y-51691401D01*
X175528599Y-51858495D01*
X175661282Y-51951401D01*
X175714594Y-51988730D01*
X175758219Y-52043307D01*
X175765413Y-52112805D01*
X175733890Y-52175160D01*
X175714595Y-52191880D01*
X175528922Y-52321890D01*
X175528920Y-52321891D01*
X175361891Y-52488920D01*
X175361886Y-52488926D01*
X175226400Y-52682420D01*
X175226399Y-52682422D01*
X175126570Y-52896507D01*
X175126567Y-52896513D01*
X175069364Y-53109999D01*
X175069364Y-53110000D01*
X175966314Y-53110000D01*
X175940507Y-53150156D01*
X175900000Y-53288111D01*
X175900000Y-53431889D01*
X175940507Y-53569844D01*
X175966314Y-53610000D01*
X175069364Y-53610000D01*
X175126567Y-53823486D01*
X175126570Y-53823492D01*
X175226399Y-54037578D01*
X175361894Y-54231082D01*
X175528917Y-54398105D01*
X175714595Y-54528119D01*
X175758219Y-54582696D01*
X175765412Y-54652195D01*
X175733890Y-54714549D01*
X175714595Y-54731269D01*
X175528594Y-54861508D01*
X175361505Y-55028597D01*
X175225965Y-55222169D01*
X175225964Y-55222171D01*
X175126098Y-55436335D01*
X175126094Y-55436344D01*
X175064938Y-55664586D01*
X175064936Y-55664596D01*
X175044341Y-55899999D01*
X175044341Y-55900000D01*
X175064936Y-56135403D01*
X175064938Y-56135413D01*
X175126094Y-56363655D01*
X175126096Y-56363659D01*
X175126097Y-56363663D01*
X175128249Y-56368277D01*
X175225965Y-56577830D01*
X175225967Y-56577834D01*
X175361501Y-56771395D01*
X175361506Y-56771402D01*
X175528597Y-56938493D01*
X175528603Y-56938498D01*
X175714158Y-57068425D01*
X175757783Y-57123002D01*
X175764977Y-57192500D01*
X175733454Y-57254855D01*
X175714158Y-57271575D01*
X175528597Y-57401505D01*
X175361505Y-57568597D01*
X175225965Y-57762169D01*
X175225964Y-57762171D01*
X175126098Y-57976335D01*
X175126094Y-57976344D01*
X175064938Y-58204586D01*
X175064936Y-58204596D01*
X175044341Y-58439999D01*
X175044341Y-58440000D01*
X175064936Y-58675403D01*
X175064938Y-58675413D01*
X175126094Y-58903655D01*
X175126096Y-58903659D01*
X175126097Y-58903663D01*
X175185809Y-59031715D01*
X175225965Y-59117830D01*
X175225967Y-59117834D01*
X175361501Y-59311395D01*
X175361506Y-59311402D01*
X175528597Y-59478493D01*
X175528603Y-59478498D01*
X175714158Y-59608425D01*
X175757783Y-59663002D01*
X175764977Y-59732500D01*
X175733454Y-59794855D01*
X175714158Y-59811575D01*
X175528597Y-59941505D01*
X175361505Y-60108597D01*
X175225965Y-60302169D01*
X175225964Y-60302171D01*
X175126098Y-60516335D01*
X175126094Y-60516344D01*
X175064938Y-60744586D01*
X175064936Y-60744596D01*
X175044341Y-60979999D01*
X175044341Y-60980000D01*
X175064936Y-61215403D01*
X175064938Y-61215413D01*
X175126094Y-61443655D01*
X175126096Y-61443659D01*
X175126097Y-61443663D01*
X175178850Y-61556792D01*
X175225965Y-61657830D01*
X175225967Y-61657834D01*
X175361501Y-61851395D01*
X175361506Y-61851402D01*
X175528596Y-62018492D01*
X175528603Y-62018498D01*
X175714158Y-62148425D01*
X175757783Y-62203002D01*
X175764977Y-62272500D01*
X175733454Y-62334855D01*
X175714158Y-62351575D01*
X175528597Y-62481505D01*
X175361505Y-62648597D01*
X175225965Y-62842169D01*
X175225964Y-62842171D01*
X175126098Y-63056335D01*
X175126094Y-63056344D01*
X175064938Y-63284586D01*
X175064936Y-63284596D01*
X175044341Y-63519999D01*
X175044341Y-63520000D01*
X175064936Y-63755403D01*
X175064938Y-63755413D01*
X175126094Y-63983655D01*
X175126096Y-63983659D01*
X175126097Y-63983663D01*
X175187217Y-64114734D01*
X175225965Y-64197830D01*
X175225967Y-64197834D01*
X175258058Y-64243664D01*
X175361505Y-64391401D01*
X175528599Y-64558495D01*
X175661282Y-64651401D01*
X175714594Y-64688730D01*
X175758219Y-64743307D01*
X175765413Y-64812805D01*
X175733890Y-64875160D01*
X175714595Y-64891880D01*
X175528922Y-65021890D01*
X175528920Y-65021891D01*
X175361891Y-65188920D01*
X175361886Y-65188926D01*
X175226400Y-65382420D01*
X175226399Y-65382422D01*
X175126570Y-65596507D01*
X175126567Y-65596513D01*
X175069364Y-65809999D01*
X175069364Y-65810000D01*
X175966314Y-65810000D01*
X175940507Y-65850156D01*
X175900000Y-65988111D01*
X175900000Y-66131889D01*
X175940507Y-66269844D01*
X175966314Y-66310000D01*
X175069364Y-66310000D01*
X175126567Y-66523486D01*
X175126570Y-66523492D01*
X175226399Y-66737578D01*
X175361894Y-66931082D01*
X175528917Y-67098105D01*
X175714595Y-67228119D01*
X175758219Y-67282696D01*
X175765412Y-67352195D01*
X175733890Y-67414549D01*
X175714595Y-67431269D01*
X175528594Y-67561508D01*
X175361505Y-67728597D01*
X175225965Y-67922169D01*
X175225964Y-67922171D01*
X175126098Y-68136335D01*
X175126094Y-68136344D01*
X175064938Y-68364586D01*
X175064936Y-68364596D01*
X175044341Y-68599999D01*
X175044341Y-68600000D01*
X175064936Y-68835403D01*
X175064938Y-68835413D01*
X175126094Y-69063655D01*
X175126096Y-69063659D01*
X175126097Y-69063663D01*
X175225965Y-69277830D01*
X175225967Y-69277834D01*
X175361501Y-69471395D01*
X175361506Y-69471402D01*
X175528597Y-69638493D01*
X175528603Y-69638498D01*
X175714158Y-69768425D01*
X175757783Y-69823002D01*
X175764977Y-69892500D01*
X175733454Y-69954855D01*
X175714158Y-69971575D01*
X175528597Y-70101505D01*
X175361505Y-70268597D01*
X175225965Y-70462169D01*
X175225964Y-70462171D01*
X175126098Y-70676335D01*
X175126094Y-70676344D01*
X175064938Y-70904586D01*
X175064936Y-70904596D01*
X175044341Y-71139999D01*
X175044341Y-71140000D01*
X175064936Y-71375403D01*
X175064938Y-71375413D01*
X175126094Y-71603655D01*
X175126096Y-71603659D01*
X175126097Y-71603663D01*
X175186975Y-71734216D01*
X175225965Y-71817830D01*
X175225967Y-71817834D01*
X175361501Y-72011395D01*
X175361506Y-72011402D01*
X175528597Y-72178493D01*
X175528603Y-72178498D01*
X175714158Y-72308425D01*
X175757783Y-72363002D01*
X175764977Y-72432500D01*
X175733454Y-72494855D01*
X175714158Y-72511575D01*
X175528597Y-72641505D01*
X175361505Y-72808597D01*
X175225965Y-73002169D01*
X175225964Y-73002171D01*
X175126098Y-73216335D01*
X175126094Y-73216344D01*
X175064938Y-73444586D01*
X175064936Y-73444596D01*
X175044341Y-73679999D01*
X175044341Y-73680000D01*
X175064936Y-73915403D01*
X175064938Y-73915413D01*
X175126094Y-74143655D01*
X175126096Y-74143659D01*
X175126097Y-74143663D01*
X175198839Y-74299658D01*
X175225965Y-74357830D01*
X175225967Y-74357834D01*
X175284496Y-74441421D01*
X175356949Y-74544895D01*
X175361501Y-74551395D01*
X175361506Y-74551402D01*
X175528597Y-74718493D01*
X175528603Y-74718498D01*
X175714158Y-74848425D01*
X175757783Y-74903002D01*
X175764977Y-74972500D01*
X175733454Y-75034855D01*
X175714158Y-75051575D01*
X175528597Y-75181505D01*
X175361505Y-75348597D01*
X175225965Y-75542169D01*
X175225964Y-75542171D01*
X175126098Y-75756335D01*
X175126094Y-75756344D01*
X175064938Y-75984586D01*
X175064936Y-75984596D01*
X175044341Y-76219999D01*
X175044341Y-76220000D01*
X175064936Y-76455403D01*
X175064938Y-76455413D01*
X175126094Y-76683655D01*
X175126096Y-76683659D01*
X175126097Y-76683663D01*
X175202763Y-76848073D01*
X175225965Y-76897830D01*
X175225967Y-76897834D01*
X175310407Y-77018426D01*
X175361505Y-77091401D01*
X175528599Y-77258495D01*
X175683024Y-77366625D01*
X175714594Y-77388730D01*
X175758219Y-77443307D01*
X175765413Y-77512805D01*
X175733890Y-77575160D01*
X175714595Y-77591880D01*
X175528922Y-77721890D01*
X175528920Y-77721891D01*
X175361891Y-77888920D01*
X175361886Y-77888926D01*
X175226400Y-78082420D01*
X175226399Y-78082422D01*
X175126570Y-78296507D01*
X175126567Y-78296513D01*
X175069364Y-78509999D01*
X175069364Y-78510000D01*
X175966314Y-78510000D01*
X175940507Y-78550156D01*
X175900000Y-78688111D01*
X175900000Y-78831889D01*
X175940507Y-78969844D01*
X175966314Y-79010000D01*
X175069364Y-79010000D01*
X175126567Y-79223486D01*
X175126570Y-79223492D01*
X175226399Y-79437578D01*
X175361894Y-79631082D01*
X175528917Y-79798105D01*
X175714595Y-79928119D01*
X175758219Y-79982696D01*
X175765412Y-80052195D01*
X175733890Y-80114549D01*
X175714595Y-80131269D01*
X175528594Y-80261508D01*
X175361505Y-80428597D01*
X175225965Y-80622169D01*
X175225964Y-80622171D01*
X175126098Y-80836335D01*
X175126094Y-80836344D01*
X175064938Y-81064586D01*
X175064936Y-81064596D01*
X175044341Y-81299999D01*
X175044341Y-81300000D01*
X175064936Y-81535403D01*
X175064938Y-81535413D01*
X175126094Y-81763655D01*
X175126096Y-81763659D01*
X175126097Y-81763663D01*
X175225965Y-81977830D01*
X175225967Y-81977834D01*
X175361501Y-82171395D01*
X175361506Y-82171402D01*
X175528597Y-82338493D01*
X175528603Y-82338498D01*
X175714158Y-82468425D01*
X175757783Y-82523002D01*
X175764977Y-82592500D01*
X175733454Y-82654855D01*
X175714158Y-82671575D01*
X175528597Y-82801505D01*
X175361505Y-82968597D01*
X175225965Y-83162169D01*
X175225964Y-83162171D01*
X175126098Y-83376335D01*
X175126094Y-83376344D01*
X175064938Y-83604586D01*
X175064936Y-83604596D01*
X175044341Y-83839999D01*
X175044341Y-83840000D01*
X175064936Y-84075403D01*
X175064938Y-84075413D01*
X175126094Y-84303655D01*
X175126096Y-84303659D01*
X175126097Y-84303663D01*
X175225965Y-84517830D01*
X175225967Y-84517834D01*
X175361501Y-84711395D01*
X175361506Y-84711402D01*
X175528597Y-84878493D01*
X175528603Y-84878498D01*
X175714158Y-85008425D01*
X175757783Y-85063002D01*
X175764977Y-85132500D01*
X175733454Y-85194855D01*
X175714158Y-85211575D01*
X175528597Y-85341505D01*
X175361505Y-85508597D01*
X175225965Y-85702169D01*
X175225964Y-85702171D01*
X175126098Y-85916335D01*
X175126094Y-85916344D01*
X175064938Y-86144586D01*
X175064936Y-86144596D01*
X175044341Y-86379999D01*
X175044341Y-86380000D01*
X175064936Y-86615403D01*
X175064938Y-86615413D01*
X175126094Y-86843655D01*
X175126096Y-86843659D01*
X175126097Y-86843663D01*
X175225965Y-87057830D01*
X175225967Y-87057834D01*
X175361501Y-87251395D01*
X175361506Y-87251402D01*
X175528597Y-87418493D01*
X175528603Y-87418498D01*
X175714158Y-87548425D01*
X175757783Y-87603002D01*
X175764977Y-87672500D01*
X175733454Y-87734855D01*
X175714158Y-87751575D01*
X175528597Y-87881505D01*
X175361505Y-88048597D01*
X175225965Y-88242169D01*
X175225964Y-88242171D01*
X175126098Y-88456335D01*
X175126094Y-88456344D01*
X175064938Y-88684586D01*
X175064936Y-88684596D01*
X175044341Y-88919999D01*
X175044341Y-88920000D01*
X175064936Y-89155403D01*
X175064938Y-89155413D01*
X175126094Y-89383655D01*
X175126096Y-89383659D01*
X175126097Y-89383663D01*
X175225965Y-89597830D01*
X175225967Y-89597834D01*
X175258058Y-89643664D01*
X175361505Y-89791401D01*
X175528599Y-89958495D01*
X175661282Y-90051401D01*
X175714594Y-90088730D01*
X175758219Y-90143307D01*
X175765413Y-90212805D01*
X175733890Y-90275160D01*
X175714595Y-90291880D01*
X175528922Y-90421890D01*
X175528920Y-90421891D01*
X175361891Y-90588920D01*
X175361886Y-90588926D01*
X175226400Y-90782420D01*
X175226399Y-90782422D01*
X175126570Y-90996507D01*
X175126567Y-90996513D01*
X175069364Y-91209999D01*
X175069364Y-91210000D01*
X175966314Y-91210000D01*
X175940507Y-91250156D01*
X175900000Y-91388111D01*
X175900000Y-91531889D01*
X175940507Y-91669844D01*
X175966314Y-91710000D01*
X175069364Y-91710000D01*
X175126567Y-91923486D01*
X175126570Y-91923492D01*
X175226399Y-92137578D01*
X175361894Y-92331082D01*
X175528917Y-92498105D01*
X175714595Y-92628119D01*
X175758219Y-92682696D01*
X175765412Y-92752195D01*
X175733890Y-92814549D01*
X175714595Y-92831269D01*
X175528594Y-92961508D01*
X175361505Y-93128597D01*
X175225965Y-93322169D01*
X175225964Y-93322171D01*
X175126098Y-93536335D01*
X175126094Y-93536344D01*
X175064938Y-93764586D01*
X175064936Y-93764596D01*
X175044341Y-93999999D01*
X175044341Y-94000000D01*
X175064936Y-94235403D01*
X175064938Y-94235413D01*
X175126094Y-94463655D01*
X175126096Y-94463659D01*
X175126097Y-94463663D01*
X175225965Y-94677830D01*
X175225967Y-94677834D01*
X175361501Y-94871395D01*
X175361506Y-94871402D01*
X175528597Y-95038493D01*
X175528603Y-95038498D01*
X175714158Y-95168425D01*
X175757783Y-95223002D01*
X175764977Y-95292500D01*
X175733454Y-95354855D01*
X175714158Y-95371575D01*
X175528597Y-95501505D01*
X175361505Y-95668597D01*
X175225965Y-95862169D01*
X175225964Y-95862171D01*
X175126098Y-96076335D01*
X175126094Y-96076344D01*
X175064938Y-96304586D01*
X175064936Y-96304596D01*
X175044341Y-96539999D01*
X175044341Y-96540000D01*
X175064936Y-96775403D01*
X175064938Y-96775413D01*
X175126094Y-97003655D01*
X175126096Y-97003659D01*
X175126097Y-97003663D01*
X175154072Y-97063655D01*
X175225965Y-97217830D01*
X175225967Y-97217834D01*
X175334281Y-97372521D01*
X175361505Y-97411401D01*
X175528599Y-97578495D01*
X175613731Y-97638105D01*
X175722165Y-97714032D01*
X175722167Y-97714033D01*
X175722170Y-97714035D01*
X175936337Y-97813903D01*
X176164592Y-97875063D01*
X176352918Y-97891539D01*
X176399999Y-97895659D01*
X176400000Y-97895659D01*
X176400001Y-97895659D01*
X176439234Y-97892226D01*
X176635408Y-97875063D01*
X176863663Y-97813903D01*
X177077830Y-97714035D01*
X177271401Y-97578495D01*
X177438495Y-97411401D01*
X177574035Y-97217830D01*
X177673903Y-97003663D01*
X177735063Y-96775408D01*
X177755659Y-96540000D01*
X177735063Y-96304592D01*
X177686184Y-96122171D01*
X177673905Y-96076344D01*
X177673904Y-96076343D01*
X177673903Y-96076337D01*
X177574035Y-95862171D01*
X177503549Y-95761505D01*
X177438494Y-95668597D01*
X177271402Y-95501506D01*
X177271396Y-95501501D01*
X177085842Y-95371575D01*
X177042217Y-95316998D01*
X177035023Y-95247500D01*
X177066546Y-95185145D01*
X177085842Y-95168425D01*
X177138716Y-95131402D01*
X177271401Y-95038495D01*
X177438495Y-94871401D01*
X177574035Y-94677830D01*
X177673903Y-94463663D01*
X177735063Y-94235408D01*
X177755659Y-94000000D01*
X177735063Y-93764592D01*
X177686184Y-93582171D01*
X177673905Y-93536344D01*
X177673904Y-93536343D01*
X177673903Y-93536337D01*
X177574035Y-93322171D01*
X177536873Y-93269097D01*
X177438494Y-93128597D01*
X177271402Y-92961506D01*
X177271401Y-92961505D01*
X177085405Y-92831269D01*
X177041781Y-92776692D01*
X177034588Y-92707193D01*
X177066110Y-92644839D01*
X177085405Y-92628119D01*
X177271082Y-92498105D01*
X177438105Y-92331082D01*
X177573600Y-92137578D01*
X177673429Y-91923492D01*
X177673432Y-91923486D01*
X177730636Y-91710000D01*
X176833686Y-91710000D01*
X176859493Y-91669844D01*
X176900000Y-91531889D01*
X176900000Y-91388111D01*
X176859493Y-91250156D01*
X176833686Y-91210000D01*
X177730636Y-91210000D01*
X177730635Y-91209999D01*
X177673432Y-90996513D01*
X177673429Y-90996507D01*
X177573600Y-90782422D01*
X177573599Y-90782420D01*
X177438113Y-90588926D01*
X177438108Y-90588920D01*
X177271078Y-90421890D01*
X177085405Y-90291879D01*
X177041780Y-90237302D01*
X177034588Y-90167804D01*
X177066110Y-90105449D01*
X177085406Y-90088730D01*
X177138716Y-90051402D01*
X177271401Y-89958495D01*
X177438495Y-89791401D01*
X177574035Y-89597830D01*
X177673903Y-89383663D01*
X177735063Y-89155408D01*
X177755659Y-88920000D01*
X177735063Y-88684592D01*
X177686184Y-88502171D01*
X177673905Y-88456344D01*
X177673904Y-88456343D01*
X177673903Y-88456337D01*
X177574035Y-88242171D01*
X177503549Y-88141505D01*
X177438494Y-88048597D01*
X177271402Y-87881506D01*
X177271396Y-87881501D01*
X177085842Y-87751575D01*
X177042217Y-87696998D01*
X177035023Y-87627500D01*
X177066546Y-87565145D01*
X177085842Y-87548425D01*
X177138716Y-87511402D01*
X177271401Y-87418495D01*
X177438495Y-87251401D01*
X177574035Y-87057830D01*
X177673903Y-86843663D01*
X177735063Y-86615408D01*
X177755659Y-86380000D01*
X177735063Y-86144592D01*
X177686184Y-85962171D01*
X177673905Y-85916344D01*
X177673904Y-85916343D01*
X177673903Y-85916337D01*
X177574035Y-85702171D01*
X177503549Y-85601505D01*
X177438494Y-85508597D01*
X177271402Y-85341506D01*
X177271396Y-85341501D01*
X177085842Y-85211575D01*
X177042217Y-85156998D01*
X177035023Y-85087500D01*
X177066546Y-85025145D01*
X177085842Y-85008425D01*
X177138716Y-84971402D01*
X177271401Y-84878495D01*
X177438495Y-84711401D01*
X177574035Y-84517830D01*
X177673903Y-84303663D01*
X177735063Y-84075408D01*
X177755659Y-83840000D01*
X177735063Y-83604592D01*
X177686184Y-83422171D01*
X177673905Y-83376344D01*
X177673904Y-83376343D01*
X177673903Y-83376337D01*
X177574035Y-83162171D01*
X177503549Y-83061505D01*
X177438494Y-82968597D01*
X177271402Y-82801506D01*
X177271396Y-82801501D01*
X177085842Y-82671575D01*
X177042217Y-82616998D01*
X177035023Y-82547500D01*
X177066546Y-82485145D01*
X177085842Y-82468425D01*
X177138716Y-82431402D01*
X177271401Y-82338495D01*
X177438495Y-82171401D01*
X177574035Y-81977830D01*
X177673903Y-81763663D01*
X177735063Y-81535408D01*
X177755659Y-81300000D01*
X177735063Y-81064592D01*
X177686184Y-80882171D01*
X177673905Y-80836344D01*
X177673904Y-80836343D01*
X177673903Y-80836337D01*
X177574035Y-80622171D01*
X177503551Y-80521508D01*
X177438494Y-80428597D01*
X177271402Y-80261506D01*
X177271401Y-80261505D01*
X177085405Y-80131269D01*
X177041781Y-80076692D01*
X177034588Y-80007193D01*
X177066110Y-79944839D01*
X177085405Y-79928119D01*
X177271082Y-79798105D01*
X177438105Y-79631082D01*
X177573600Y-79437578D01*
X177673429Y-79223492D01*
X177673432Y-79223486D01*
X177730636Y-79010000D01*
X176833686Y-79010000D01*
X176859493Y-78969844D01*
X176900000Y-78831889D01*
X176900000Y-78688111D01*
X176859493Y-78550156D01*
X176833686Y-78510000D01*
X177730636Y-78510000D01*
X177730635Y-78509999D01*
X177673432Y-78296513D01*
X177673429Y-78296507D01*
X177573600Y-78082422D01*
X177573599Y-78082420D01*
X177438113Y-77888926D01*
X177438108Y-77888920D01*
X177271078Y-77721890D01*
X177085405Y-77591879D01*
X177041780Y-77537302D01*
X177034588Y-77467804D01*
X177066110Y-77405449D01*
X177085406Y-77388730D01*
X177116967Y-77366631D01*
X177271401Y-77258495D01*
X177438495Y-77091401D01*
X177574035Y-76897830D01*
X177673903Y-76683663D01*
X177735063Y-76455408D01*
X177755659Y-76220000D01*
X177735063Y-75984592D01*
X177686184Y-75802171D01*
X177673905Y-75756344D01*
X177673904Y-75756343D01*
X177673903Y-75756337D01*
X177574035Y-75542171D01*
X177503549Y-75441505D01*
X177438494Y-75348597D01*
X177271402Y-75181506D01*
X177271396Y-75181501D01*
X177085842Y-75051575D01*
X177042217Y-74996998D01*
X177035023Y-74927500D01*
X177066546Y-74865145D01*
X177085842Y-74848425D01*
X177138716Y-74811402D01*
X177271401Y-74718495D01*
X177438495Y-74551401D01*
X177574035Y-74357830D01*
X177576707Y-74352097D01*
X177622878Y-74299658D01*
X177689091Y-74280500D01*
X179079903Y-74280500D01*
X179146942Y-74300185D01*
X179167584Y-74316819D01*
X181156544Y-76305779D01*
X181167238Y-76317973D01*
X181186460Y-76343024D01*
X181186461Y-76343025D01*
X181186463Y-76343027D01*
X181265088Y-76403358D01*
X181311904Y-76439281D01*
X181457983Y-76499789D01*
X181536364Y-76510108D01*
X181614744Y-76520427D01*
X181614745Y-76520427D01*
X181646047Y-76516305D01*
X181662232Y-76515245D01*
X184668770Y-76515245D01*
X184684954Y-76516305D01*
X184716257Y-76520427D01*
X184716258Y-76520427D01*
X184768511Y-76513547D01*
X184873019Y-76499789D01*
X185019098Y-76439281D01*
X185065914Y-76403358D01*
X185150988Y-76338079D01*
X185152143Y-76339585D01*
X185204280Y-76311100D01*
X185273973Y-76316068D01*
X185329916Y-76357926D01*
X185354349Y-76423384D01*
X185345229Y-76479711D01*
X185314956Y-76552798D01*
X185314955Y-76552800D01*
X185294318Y-76709559D01*
X185294318Y-76709561D01*
X185298439Y-76740862D01*
X185299500Y-76757048D01*
X185299500Y-77602377D01*
X185279815Y-77669416D01*
X185263181Y-77690058D01*
X183968965Y-78984273D01*
X183956775Y-78994964D01*
X183931720Y-79014190D01*
X183931718Y-79014193D01*
X183878441Y-79083625D01*
X183878440Y-79083625D01*
X183835464Y-79139632D01*
X183774956Y-79285712D01*
X183774955Y-79285714D01*
X183754318Y-79442473D01*
X183754318Y-79442474D01*
X183758439Y-79473776D01*
X183759500Y-79489962D01*
X183759500Y-95125500D01*
X183739815Y-95192539D01*
X183687011Y-95238294D01*
X183635501Y-95249500D01*
X183462130Y-95249500D01*
X183462123Y-95249501D01*
X183402516Y-95255908D01*
X183267671Y-95306202D01*
X183267664Y-95306206D01*
X183152455Y-95392452D01*
X183152452Y-95392455D01*
X183066206Y-95507664D01*
X183066202Y-95507671D01*
X183015908Y-95642517D01*
X183009501Y-95702116D01*
X183009500Y-95702135D01*
X183009500Y-97497870D01*
X183009501Y-97497876D01*
X183015908Y-97557483D01*
X183066202Y-97692328D01*
X183066206Y-97692335D01*
X183152452Y-97807544D01*
X183152455Y-97807547D01*
X183267664Y-97893793D01*
X183267671Y-97893797D01*
X183402517Y-97944091D01*
X183402516Y-97944091D01*
X183409444Y-97944835D01*
X183462127Y-97950500D01*
X185257872Y-97950499D01*
X185317483Y-97944091D01*
X185452331Y-97893796D01*
X185567546Y-97807546D01*
X185653796Y-97692331D01*
X185703002Y-97560401D01*
X185744872Y-97504468D01*
X185810337Y-97480050D01*
X185878610Y-97494901D01*
X185906865Y-97516053D01*
X186028917Y-97638105D01*
X186222421Y-97773600D01*
X186436507Y-97873429D01*
X186436516Y-97873433D01*
X186650000Y-97930634D01*
X186650000Y-97035501D01*
X186757685Y-97084680D01*
X186864237Y-97100000D01*
X186935763Y-97100000D01*
X187042315Y-97084680D01*
X187150000Y-97035501D01*
X187150000Y-97930633D01*
X187363483Y-97873433D01*
X187363492Y-97873429D01*
X187577578Y-97773600D01*
X187771082Y-97638105D01*
X187938105Y-97471082D01*
X188068119Y-97285405D01*
X188122696Y-97241781D01*
X188192195Y-97234588D01*
X188254549Y-97266110D01*
X188271269Y-97285405D01*
X188401505Y-97471401D01*
X188568599Y-97638495D01*
X188665384Y-97706265D01*
X188762165Y-97774032D01*
X188762167Y-97774033D01*
X188762170Y-97774035D01*
X188976337Y-97873903D01*
X188976343Y-97873904D01*
X188976344Y-97873905D01*
X188980666Y-97875063D01*
X189204592Y-97935063D01*
X189381034Y-97950500D01*
X189439999Y-97955659D01*
X189440000Y-97955659D01*
X189440001Y-97955659D01*
X189498966Y-97950500D01*
X189675408Y-97935063D01*
X189903663Y-97873903D01*
X190117830Y-97774035D01*
X190311401Y-97638495D01*
X190478495Y-97471401D01*
X190614035Y-97277830D01*
X190713903Y-97063663D01*
X190775063Y-96835408D01*
X190795659Y-96600000D01*
X190792561Y-96564596D01*
X190789369Y-96528111D01*
X190775063Y-96364592D01*
X190713903Y-96136337D01*
X190614035Y-95922171D01*
X190572022Y-95862169D01*
X190478494Y-95728597D01*
X190311402Y-95561506D01*
X190311395Y-95561501D01*
X190298540Y-95552500D01*
X190234518Y-95507671D01*
X190117834Y-95425967D01*
X190117830Y-95425965D01*
X189903663Y-95326097D01*
X189903659Y-95326096D01*
X189903655Y-95326094D01*
X189675413Y-95264938D01*
X189675403Y-95264936D01*
X189440001Y-95244341D01*
X189439999Y-95244341D01*
X189204596Y-95264936D01*
X189204583Y-95264939D01*
X189076241Y-95299327D01*
X189006392Y-95297664D01*
X188956468Y-95267233D01*
X185436819Y-91747584D01*
X185403334Y-91686261D01*
X185400500Y-91659903D01*
X185400500Y-79868258D01*
X185420185Y-79801219D01*
X185436819Y-79780577D01*
X187496496Y-77720900D01*
X187557819Y-77687415D01*
X187584177Y-77684581D01*
X187660857Y-77684581D01*
X187677041Y-77685641D01*
X187708344Y-77689763D01*
X187708345Y-77689763D01*
X187760598Y-77682883D01*
X187865106Y-77669125D01*
X188011185Y-77608617D01*
X188091938Y-77546653D01*
X188136626Y-77512363D01*
X188155853Y-77487304D01*
X188166534Y-77475124D01*
X188472430Y-77169228D01*
X188519720Y-77141929D01*
X188519172Y-77140605D01*
X188561653Y-77123008D01*
X188672761Y-77076986D01*
X188713913Y-77045409D01*
X188798202Y-76980732D01*
X188817429Y-76955673D01*
X188828110Y-76943493D01*
X189018535Y-76753068D01*
X189079856Y-76719585D01*
X189092311Y-76717533D01*
X189179255Y-76707738D01*
X189349522Y-76648159D01*
X189502262Y-76552186D01*
X189629816Y-76424632D01*
X189635294Y-76415912D01*
X189687627Y-76369620D01*
X189756680Y-76358969D01*
X189820529Y-76387342D01*
X189827971Y-76394200D01*
X190087834Y-76654063D01*
X190098528Y-76666257D01*
X190117753Y-76691311D01*
X190158255Y-76722389D01*
X190234951Y-76781240D01*
X190234952Y-76781241D01*
X190243192Y-76787564D01*
X190243193Y-76787564D01*
X190243194Y-76787565D01*
X190389273Y-76848073D01*
X190467654Y-76858392D01*
X190546034Y-76868711D01*
X190546035Y-76868711D01*
X190577337Y-76864589D01*
X190593522Y-76863529D01*
X193959435Y-76863529D01*
X194026474Y-76883214D01*
X194072229Y-76936018D01*
X194082173Y-77005176D01*
X194053148Y-77068732D01*
X194051608Y-77070474D01*
X193988191Y-77140907D01*
X193932557Y-77202694D01*
X193837912Y-77366624D01*
X193837909Y-77366631D01*
X193788566Y-77518495D01*
X193779417Y-77546653D01*
X193759631Y-77734909D01*
X193779417Y-77923165D01*
X193779418Y-77923168D01*
X193837909Y-78103186D01*
X193837912Y-78103193D01*
X193932555Y-78267121D01*
X193933880Y-78268944D01*
X193934320Y-78270178D01*
X193935807Y-78272753D01*
X193935336Y-78273024D01*
X193957363Y-78334749D01*
X193941542Y-78402804D01*
X193921247Y-78429516D01*
X192682559Y-79668206D01*
X192621236Y-79701691D01*
X192594878Y-79704525D01*
X190221233Y-79704525D01*
X190154194Y-79684840D01*
X190129084Y-79663498D01*
X190100846Y-79632137D01*
X190100839Y-79632131D01*
X189947709Y-79520876D01*
X189947704Y-79520873D01*
X189774782Y-79443882D01*
X189774777Y-79443880D01*
X189628976Y-79412890D01*
X189589621Y-79404525D01*
X189400329Y-79404525D01*
X189367872Y-79411423D01*
X189215172Y-79443880D01*
X189215167Y-79443882D01*
X189042245Y-79520873D01*
X189042240Y-79520876D01*
X188889104Y-79632136D01*
X188762441Y-79772810D01*
X188667796Y-79936740D01*
X188667793Y-79936747D01*
X188610022Y-80114549D01*
X188609301Y-80116769D01*
X188589515Y-80305025D01*
X188609301Y-80493281D01*
X188609302Y-80493284D01*
X188667793Y-80673302D01*
X188667796Y-80673309D01*
X188762442Y-80837241D01*
X188889103Y-80977912D01*
X188889104Y-80977913D01*
X189042240Y-81089173D01*
X189042245Y-81089176D01*
X189215167Y-81166167D01*
X189215172Y-81166169D01*
X189400329Y-81205525D01*
X189400330Y-81205525D01*
X189589619Y-81205525D01*
X189589621Y-81205525D01*
X189774778Y-81166169D01*
X189947705Y-81089176D01*
X190100846Y-80977913D01*
X190129084Y-80946552D01*
X190188570Y-80909904D01*
X190221233Y-80905525D01*
X192847488Y-80905525D01*
X192863672Y-80906585D01*
X192894975Y-80910707D01*
X192894976Y-80910707D01*
X192947229Y-80903827D01*
X193051737Y-80890069D01*
X193197816Y-80829561D01*
X193323257Y-80733307D01*
X193342484Y-80708248D01*
X193353165Y-80696068D01*
X195056134Y-78993099D01*
X195068314Y-78982418D01*
X195093373Y-78963191D01*
X195189627Y-78837750D01*
X195250135Y-78691671D01*
X195265591Y-78574270D01*
X195270773Y-78534909D01*
X195266652Y-78503606D01*
X195265591Y-78487421D01*
X195265591Y-78461361D01*
X195285276Y-78394322D01*
X195297441Y-78378389D01*
X195397624Y-78267125D01*
X195492270Y-78103193D01*
X195550765Y-77923165D01*
X195570551Y-77734909D01*
X195550765Y-77546653D01*
X195492270Y-77366625D01*
X195397624Y-77202693D01*
X195270962Y-77062021D01*
X195180521Y-76996312D01*
X195137856Y-76940982D01*
X195131877Y-76871369D01*
X195164483Y-76809574D01*
X195177915Y-76797622D01*
X195184190Y-76792808D01*
X195268282Y-76728282D01*
X195287509Y-76703223D01*
X195298190Y-76691043D01*
X195635570Y-76353663D01*
X195696891Y-76320180D01*
X195766583Y-76325164D01*
X195822516Y-76367036D01*
X195846933Y-76432500D01*
X195846777Y-76452153D01*
X195844341Y-76479997D01*
X195844341Y-76480000D01*
X195864936Y-76715403D01*
X195864938Y-76715413D01*
X195926094Y-76943655D01*
X195926096Y-76943659D01*
X195926097Y-76943663D01*
X195981289Y-77062022D01*
X196025965Y-77157830D01*
X196025967Y-77157834D01*
X196134281Y-77312521D01*
X196161505Y-77351401D01*
X196328599Y-77518495D01*
X196457306Y-77608617D01*
X196514594Y-77648730D01*
X196558219Y-77703307D01*
X196565413Y-77772805D01*
X196533890Y-77835160D01*
X196514595Y-77851880D01*
X196328922Y-77981890D01*
X196328920Y-77981891D01*
X196161891Y-78148920D01*
X196161886Y-78148926D01*
X196026400Y-78342420D01*
X196026399Y-78342422D01*
X195926570Y-78556507D01*
X195926567Y-78556513D01*
X195869364Y-78769999D01*
X195869364Y-78770000D01*
X196766314Y-78770000D01*
X196740507Y-78810156D01*
X196700000Y-78948111D01*
X196700000Y-79091889D01*
X196740507Y-79229844D01*
X196766314Y-79270000D01*
X195869364Y-79270000D01*
X195926567Y-79483486D01*
X195926570Y-79483492D01*
X196026399Y-79697578D01*
X196161894Y-79891082D01*
X196328917Y-80058105D01*
X196514595Y-80188119D01*
X196558219Y-80242696D01*
X196565412Y-80312195D01*
X196533890Y-80374549D01*
X196514595Y-80391269D01*
X196328594Y-80521508D01*
X196161505Y-80688597D01*
X196025965Y-80882169D01*
X196025964Y-80882171D01*
X195926098Y-81096335D01*
X195926094Y-81096344D01*
X195864938Y-81324586D01*
X195864936Y-81324596D01*
X195844341Y-81559999D01*
X195844341Y-81560000D01*
X195864936Y-81795403D01*
X195864938Y-81795413D01*
X195926094Y-82023655D01*
X195926096Y-82023659D01*
X195926097Y-82023663D01*
X195994986Y-82171395D01*
X196025965Y-82237830D01*
X196025967Y-82237834D01*
X196161501Y-82431395D01*
X196161506Y-82431402D01*
X196328597Y-82598493D01*
X196328603Y-82598498D01*
X196514158Y-82728425D01*
X196557783Y-82783002D01*
X196564977Y-82852500D01*
X196533454Y-82914855D01*
X196514158Y-82931575D01*
X196328597Y-83061505D01*
X196161505Y-83228597D01*
X196025965Y-83422169D01*
X196025964Y-83422171D01*
X195926098Y-83636335D01*
X195926094Y-83636344D01*
X195864938Y-83864586D01*
X195864936Y-83864596D01*
X195844341Y-84099999D01*
X195844341Y-84100000D01*
X195864936Y-84335403D01*
X195864938Y-84335413D01*
X195926094Y-84563655D01*
X195926096Y-84563659D01*
X195926097Y-84563663D01*
X195994986Y-84711395D01*
X196025965Y-84777830D01*
X196025967Y-84777834D01*
X196161501Y-84971395D01*
X196161506Y-84971402D01*
X196328597Y-85138493D01*
X196328603Y-85138498D01*
X196514158Y-85268425D01*
X196557783Y-85323002D01*
X196564977Y-85392500D01*
X196533454Y-85454855D01*
X196514158Y-85471575D01*
X196328597Y-85601505D01*
X196161505Y-85768597D01*
X196025965Y-85962169D01*
X196025964Y-85962171D01*
X195926098Y-86176335D01*
X195926094Y-86176344D01*
X195864938Y-86404586D01*
X195864936Y-86404596D01*
X195844341Y-86639999D01*
X195844341Y-86640000D01*
X195864936Y-86875403D01*
X195864938Y-86875413D01*
X195926094Y-87103655D01*
X195926096Y-87103659D01*
X195926097Y-87103663D01*
X195994986Y-87251395D01*
X196025965Y-87317830D01*
X196025967Y-87317834D01*
X196161501Y-87511395D01*
X196161506Y-87511402D01*
X196328597Y-87678493D01*
X196328603Y-87678498D01*
X196514158Y-87808425D01*
X196557783Y-87863002D01*
X196564977Y-87932500D01*
X196533454Y-87994855D01*
X196514158Y-88011575D01*
X196328597Y-88141505D01*
X196161505Y-88308597D01*
X196025965Y-88502169D01*
X196025964Y-88502171D01*
X195926098Y-88716335D01*
X195926094Y-88716344D01*
X195864938Y-88944586D01*
X195864936Y-88944596D01*
X195844341Y-89179999D01*
X195844341Y-89180000D01*
X195864936Y-89415403D01*
X195864938Y-89415413D01*
X195926094Y-89643655D01*
X195926096Y-89643659D01*
X195926097Y-89643663D01*
X195994986Y-89791395D01*
X196025965Y-89857830D01*
X196025967Y-89857834D01*
X196161501Y-90051395D01*
X196161506Y-90051402D01*
X196328597Y-90218493D01*
X196328603Y-90218498D01*
X196514594Y-90348730D01*
X196558219Y-90403307D01*
X196565413Y-90472805D01*
X196533890Y-90535160D01*
X196514595Y-90551880D01*
X196328922Y-90681890D01*
X196328920Y-90681891D01*
X196161891Y-90848920D01*
X196161886Y-90848926D01*
X196026400Y-91042420D01*
X196026399Y-91042422D01*
X195926570Y-91256507D01*
X195926567Y-91256513D01*
X195869364Y-91469999D01*
X195869364Y-91470000D01*
X196766314Y-91470000D01*
X196740507Y-91510156D01*
X196700000Y-91648111D01*
X196700000Y-91791889D01*
X196740507Y-91929844D01*
X196766314Y-91970000D01*
X195869364Y-91970000D01*
X195926567Y-92183486D01*
X195926570Y-92183492D01*
X196026399Y-92397578D01*
X196161894Y-92591082D01*
X196328917Y-92758105D01*
X196514595Y-92888119D01*
X196558219Y-92942696D01*
X196565412Y-93012195D01*
X196533890Y-93074549D01*
X196514595Y-93091269D01*
X196328594Y-93221508D01*
X196161505Y-93388597D01*
X196025965Y-93582169D01*
X196025964Y-93582171D01*
X195926098Y-93796335D01*
X195926094Y-93796344D01*
X195864938Y-94024586D01*
X195864936Y-94024596D01*
X195844341Y-94259999D01*
X195844341Y-94260000D01*
X195864936Y-94495403D01*
X195864938Y-94495413D01*
X195926094Y-94723655D01*
X195926096Y-94723659D01*
X195926097Y-94723663D01*
X195994986Y-94871395D01*
X196025965Y-94937830D01*
X196025967Y-94937834D01*
X196161501Y-95131395D01*
X196161506Y-95131402D01*
X196328597Y-95298493D01*
X196328603Y-95298498D01*
X196514158Y-95428425D01*
X196557783Y-95483002D01*
X196564977Y-95552500D01*
X196533454Y-95614855D01*
X196514158Y-95631575D01*
X196328597Y-95761505D01*
X196161505Y-95928597D01*
X196025965Y-96122169D01*
X196025964Y-96122171D01*
X195926098Y-96336335D01*
X195926094Y-96336344D01*
X195864938Y-96564586D01*
X195864936Y-96564596D01*
X195844341Y-96799999D01*
X195844341Y-96800000D01*
X195864936Y-97035403D01*
X195864938Y-97035413D01*
X195926094Y-97263655D01*
X195926096Y-97263659D01*
X195926097Y-97263663D01*
X195994986Y-97411395D01*
X196025965Y-97477830D01*
X196025967Y-97477834D01*
X196134281Y-97632521D01*
X196161505Y-97671401D01*
X196328599Y-97838495D01*
X196407573Y-97893793D01*
X196522165Y-97974032D01*
X196522167Y-97974033D01*
X196522170Y-97974035D01*
X196736337Y-98073903D01*
X196964592Y-98135063D01*
X197151767Y-98151439D01*
X197163573Y-98152472D01*
X197198265Y-98166042D01*
X197212300Y-98157023D01*
X197236427Y-98152472D01*
X197245984Y-98151635D01*
X197435408Y-98135063D01*
X197663663Y-98073903D01*
X197877830Y-97974035D01*
X198071401Y-97838495D01*
X198238495Y-97671401D01*
X198374035Y-97477830D01*
X198473903Y-97263663D01*
X198535063Y-97035408D01*
X198555659Y-96800000D01*
X198535063Y-96564592D01*
X198473903Y-96336337D01*
X198374035Y-96122171D01*
X198341941Y-96076335D01*
X198238494Y-95928597D01*
X198071402Y-95761506D01*
X198071396Y-95761501D01*
X197885842Y-95631575D01*
X197842217Y-95576998D01*
X197835023Y-95507500D01*
X197866546Y-95445145D01*
X197885842Y-95428425D01*
X197937214Y-95392454D01*
X198071401Y-95298495D01*
X198238495Y-95131401D01*
X198374035Y-94937830D01*
X198473903Y-94723663D01*
X198535063Y-94495408D01*
X198555659Y-94260000D01*
X198535063Y-94024592D01*
X198473903Y-93796337D01*
X198374035Y-93582171D01*
X198341941Y-93536335D01*
X198238494Y-93388597D01*
X198071402Y-93221506D01*
X198071401Y-93221505D01*
X197885405Y-93091269D01*
X197841781Y-93036692D01*
X197834588Y-92967193D01*
X197866110Y-92904839D01*
X197885405Y-92888119D01*
X198071082Y-92758105D01*
X198238105Y-92591082D01*
X198373600Y-92397578D01*
X198473429Y-92183492D01*
X198473432Y-92183486D01*
X198530636Y-91970000D01*
X197633686Y-91970000D01*
X197659493Y-91929844D01*
X197700000Y-91791889D01*
X197700000Y-91648111D01*
X197659493Y-91510156D01*
X197633686Y-91470000D01*
X198530636Y-91470000D01*
X198530635Y-91469999D01*
X198473432Y-91256513D01*
X198473429Y-91256507D01*
X198373600Y-91042422D01*
X198373599Y-91042420D01*
X198238113Y-90848926D01*
X198238108Y-90848920D01*
X198071078Y-90681890D01*
X197885405Y-90551879D01*
X197841780Y-90497302D01*
X197834588Y-90427804D01*
X197866110Y-90365449D01*
X197885406Y-90348730D01*
X197966596Y-90291880D01*
X198071401Y-90218495D01*
X198238495Y-90051401D01*
X198374035Y-89857830D01*
X198473903Y-89643663D01*
X198535063Y-89415408D01*
X198555659Y-89180000D01*
X198535063Y-88944592D01*
X198473903Y-88716337D01*
X198374035Y-88502171D01*
X198341941Y-88456335D01*
X198238494Y-88308597D01*
X198071402Y-88141506D01*
X198071396Y-88141501D01*
X197885842Y-88011575D01*
X197842217Y-87956998D01*
X197835023Y-87887500D01*
X197866546Y-87825145D01*
X197885842Y-87808425D01*
X197975044Y-87745965D01*
X198071401Y-87678495D01*
X198238495Y-87511401D01*
X198374035Y-87317830D01*
X198473903Y-87103663D01*
X198535063Y-86875408D01*
X198555659Y-86640000D01*
X198535063Y-86404592D01*
X198473903Y-86176337D01*
X198374035Y-85962171D01*
X198341941Y-85916335D01*
X198238494Y-85768597D01*
X198071402Y-85601506D01*
X198071396Y-85601501D01*
X197885842Y-85471575D01*
X197842217Y-85416998D01*
X197835023Y-85347500D01*
X197866546Y-85285145D01*
X197885842Y-85268425D01*
X197975044Y-85205965D01*
X198071401Y-85138495D01*
X198238495Y-84971401D01*
X198374035Y-84777830D01*
X198473903Y-84563663D01*
X198535063Y-84335408D01*
X198555659Y-84100000D01*
X198535063Y-83864592D01*
X198473903Y-83636337D01*
X198374035Y-83422171D01*
X198341941Y-83376335D01*
X198238494Y-83228597D01*
X198071402Y-83061506D01*
X198071396Y-83061501D01*
X197885842Y-82931575D01*
X197842217Y-82876998D01*
X197835023Y-82807500D01*
X197866546Y-82745145D01*
X197885842Y-82728425D01*
X197975044Y-82665965D01*
X198071401Y-82598495D01*
X198238495Y-82431401D01*
X198374035Y-82237830D01*
X198473903Y-82023663D01*
X198535063Y-81795408D01*
X198555659Y-81560000D01*
X198535063Y-81324592D01*
X198473903Y-81096337D01*
X198374035Y-80882171D01*
X198342574Y-80837239D01*
X198238494Y-80688597D01*
X198071402Y-80521506D01*
X198071401Y-80521505D01*
X197885405Y-80391269D01*
X197841781Y-80336692D01*
X197834588Y-80267193D01*
X197866110Y-80204839D01*
X197885405Y-80188119D01*
X198071082Y-80058105D01*
X198238105Y-79891082D01*
X198373600Y-79697578D01*
X198473429Y-79483492D01*
X198473432Y-79483486D01*
X198530636Y-79270000D01*
X197633686Y-79270000D01*
X197659493Y-79229844D01*
X197700000Y-79091889D01*
X197700000Y-78948111D01*
X197659493Y-78810156D01*
X197633686Y-78770000D01*
X198530636Y-78770000D01*
X198530635Y-78769999D01*
X198473432Y-78556513D01*
X198473429Y-78556507D01*
X198373600Y-78342422D01*
X198373599Y-78342420D01*
X198238113Y-78148926D01*
X198238108Y-78148920D01*
X198071078Y-77981890D01*
X197885405Y-77851879D01*
X197841780Y-77797302D01*
X197834588Y-77727804D01*
X197866110Y-77665449D01*
X197885406Y-77648730D01*
X198071401Y-77518495D01*
X198238495Y-77351401D01*
X198374035Y-77157830D01*
X198473903Y-76943663D01*
X198535063Y-76715408D01*
X198555659Y-76480000D01*
X198535063Y-76244592D01*
X198473903Y-76016337D01*
X198374035Y-75802171D01*
X198370929Y-75797734D01*
X198238494Y-75608597D01*
X198071402Y-75441506D01*
X198071396Y-75441501D01*
X197885842Y-75311575D01*
X197842217Y-75256998D01*
X197835023Y-75187500D01*
X197866546Y-75125145D01*
X197885842Y-75108425D01*
X197975044Y-75045965D01*
X198071401Y-74978495D01*
X198238495Y-74811401D01*
X198374035Y-74617830D01*
X198473903Y-74403663D01*
X198535063Y-74175408D01*
X198555659Y-73940000D01*
X198535063Y-73704592D01*
X198473903Y-73476337D01*
X198374035Y-73262171D01*
X198341941Y-73216335D01*
X198238494Y-73068597D01*
X198071402Y-72901506D01*
X198071396Y-72901501D01*
X197885842Y-72771575D01*
X197842217Y-72716998D01*
X197835023Y-72647500D01*
X197866546Y-72585145D01*
X197885842Y-72568425D01*
X197925187Y-72540875D01*
X198071401Y-72438495D01*
X198238495Y-72271401D01*
X198374035Y-72077830D01*
X198473903Y-71863663D01*
X198535063Y-71635408D01*
X198555659Y-71400000D01*
X198535063Y-71164592D01*
X198488177Y-70989609D01*
X198473905Y-70936344D01*
X198473904Y-70936343D01*
X198473903Y-70936337D01*
X198374035Y-70722171D01*
X198341941Y-70676335D01*
X198238494Y-70528597D01*
X198071402Y-70361506D01*
X198071396Y-70361501D01*
X197885842Y-70231575D01*
X197842217Y-70176998D01*
X197835023Y-70107500D01*
X197866546Y-70045145D01*
X197885842Y-70028425D01*
X197975044Y-69965965D01*
X198071401Y-69898495D01*
X198238495Y-69731401D01*
X198374035Y-69537830D01*
X198473903Y-69323663D01*
X198535063Y-69095408D01*
X198555659Y-68860000D01*
X198535063Y-68624592D01*
X198473903Y-68396337D01*
X198374035Y-68182171D01*
X198341941Y-68136335D01*
X198238494Y-67988597D01*
X198071402Y-67821506D01*
X198071401Y-67821505D01*
X197885405Y-67691269D01*
X197841781Y-67636692D01*
X197834588Y-67567193D01*
X197866110Y-67504839D01*
X197885405Y-67488119D01*
X198071082Y-67358105D01*
X198238105Y-67191082D01*
X198373600Y-66997578D01*
X198473429Y-66783492D01*
X198473432Y-66783486D01*
X198530636Y-66570000D01*
X197633686Y-66570000D01*
X197659493Y-66529844D01*
X197700000Y-66391889D01*
X197700000Y-66248111D01*
X197659493Y-66110156D01*
X197633686Y-66070000D01*
X198530636Y-66070000D01*
X198530635Y-66069999D01*
X198473432Y-65856513D01*
X198473429Y-65856507D01*
X198373600Y-65642422D01*
X198373599Y-65642420D01*
X198238113Y-65448926D01*
X198238108Y-65448920D01*
X198071078Y-65281890D01*
X197885405Y-65151879D01*
X197841780Y-65097302D01*
X197834588Y-65027804D01*
X197866110Y-64965449D01*
X197885406Y-64948730D01*
X197899506Y-64938857D01*
X198071401Y-64818495D01*
X198238495Y-64651401D01*
X198374035Y-64457830D01*
X198473903Y-64243663D01*
X198535063Y-64015408D01*
X198555659Y-63780000D01*
X198535063Y-63544592D01*
X198473903Y-63316337D01*
X198374035Y-63102171D01*
X198341941Y-63056335D01*
X198238494Y-62908597D01*
X198071402Y-62741506D01*
X198071396Y-62741501D01*
X197885842Y-62611575D01*
X197842217Y-62556998D01*
X197835023Y-62487500D01*
X197866546Y-62425145D01*
X197885842Y-62408425D01*
X197975044Y-62345965D01*
X198071401Y-62278495D01*
X198238495Y-62111401D01*
X198374035Y-61917830D01*
X198473903Y-61703663D01*
X198535063Y-61475408D01*
X198555659Y-61240000D01*
X198535063Y-61004592D01*
X198473903Y-60776337D01*
X198374035Y-60562171D01*
X198341941Y-60516335D01*
X198238494Y-60368597D01*
X198071402Y-60201506D01*
X198071396Y-60201501D01*
X197885842Y-60071575D01*
X197842217Y-60016998D01*
X197835023Y-59947500D01*
X197866546Y-59885145D01*
X197885842Y-59868425D01*
X197983563Y-59800000D01*
X198071401Y-59738495D01*
X198238495Y-59571401D01*
X198374035Y-59377830D01*
X198473903Y-59163663D01*
X198535063Y-58935408D01*
X198555659Y-58700000D01*
X198535063Y-58464592D01*
X198473903Y-58236337D01*
X198374035Y-58022171D01*
X198341941Y-57976335D01*
X198238494Y-57828597D01*
X198210419Y-57800522D01*
X198176934Y-57739199D01*
X198181918Y-57669507D01*
X198210417Y-57625162D01*
X198788319Y-57047261D01*
X198849642Y-57013776D01*
X198919334Y-57018760D01*
X198975267Y-57060632D01*
X198999684Y-57126096D01*
X199000000Y-57134942D01*
X199000000Y-63000000D01*
X214276000Y-63000000D01*
X214343039Y-63019685D01*
X214388794Y-63072489D01*
X214400000Y-63124000D01*
X214400000Y-72676000D01*
X214380315Y-72743039D01*
X214327511Y-72788794D01*
X214276000Y-72800000D01*
X198900000Y-72800000D01*
X198900000Y-98276000D01*
X198880315Y-98343039D01*
X198827511Y-98388794D01*
X198776000Y-98400000D01*
X197247235Y-98400000D01*
X197199332Y-98385934D01*
X197177197Y-98397569D01*
X197152765Y-98400000D01*
X174424000Y-98400000D01*
X174356961Y-98380315D01*
X174311206Y-98327511D01*
X174300000Y-98276000D01*
X174300000Y-46529994D01*
X209406634Y-46529994D01*
X209406931Y-46531940D01*
X209406933Y-46531946D01*
X209477562Y-46722651D01*
X209477565Y-46722658D01*
X209585149Y-46895261D01*
X209725264Y-47042662D01*
X209725266Y-47042663D01*
X209892195Y-47158850D01*
X210079092Y-47239053D01*
X210278310Y-47279994D01*
X210829616Y-47279994D01*
X210896655Y-47299679D01*
X210942410Y-47352483D01*
X210952354Y-47421641D01*
X210944177Y-47451447D01*
X210899313Y-47559757D01*
X210899312Y-47559759D01*
X210879534Y-47709993D01*
X210879534Y-47709994D01*
X210899312Y-47860228D01*
X210899313Y-47860230D01*
X210957302Y-48000227D01*
X211049549Y-48120445D01*
X211169767Y-48212692D01*
X211309764Y-48270681D01*
X211422280Y-48285494D01*
X211422287Y-48285494D01*
X211497713Y-48285494D01*
X211497720Y-48285494D01*
X211610236Y-48270681D01*
X211750233Y-48212692D01*
X211870451Y-48120445D01*
X211962698Y-48000227D01*
X212020687Y-47860230D01*
X212040466Y-47709994D01*
X212020687Y-47559758D01*
X211962698Y-47419761D01*
X211962697Y-47419759D01*
X211933812Y-47382116D01*
X211908199Y-47348737D01*
X211883005Y-47283570D01*
X211897043Y-47215125D01*
X211945856Y-47165135D01*
X211946398Y-47164833D01*
X212054211Y-47104991D01*
X212054216Y-47104988D01*
X212208530Y-46972515D01*
X212208531Y-46972514D01*
X212333018Y-46811689D01*
X212422588Y-46629087D01*
X212448246Y-46529994D01*
X213836634Y-46529994D01*
X213836931Y-46531940D01*
X213836933Y-46531946D01*
X213907562Y-46722651D01*
X213907565Y-46722658D01*
X214015149Y-46895261D01*
X214155264Y-47042662D01*
X214155266Y-47042663D01*
X214322195Y-47158850D01*
X214509092Y-47239053D01*
X214708310Y-47279994D01*
X214860000Y-47279994D01*
X214860000Y-46579994D01*
X215360000Y-46579994D01*
X215360000Y-47279994D01*
X215460713Y-47279994D01*
X215612338Y-47264575D01*
X215806381Y-47203694D01*
X215806391Y-47203689D01*
X215984215Y-47104988D01*
X215984216Y-47104988D01*
X216138530Y-46972515D01*
X216138531Y-46972514D01*
X216263018Y-46811689D01*
X216352588Y-46629087D01*
X216378246Y-46529994D01*
X215576111Y-46529994D01*
X215615610Y-46505537D01*
X215683201Y-46416032D01*
X215713895Y-46308154D01*
X215703546Y-46196473D01*
X215653552Y-46096072D01*
X215581069Y-46029994D01*
X216383366Y-46029994D01*
X216383068Y-46028047D01*
X216383066Y-46028041D01*
X216312437Y-45837336D01*
X216312434Y-45837329D01*
X216204850Y-45664726D01*
X216064735Y-45517325D01*
X216064733Y-45517324D01*
X215897804Y-45401137D01*
X215710907Y-45320934D01*
X215511690Y-45279994D01*
X215360000Y-45279994D01*
X215360000Y-45979994D01*
X214860000Y-45979994D01*
X214860000Y-45279994D01*
X214759287Y-45279994D01*
X214607661Y-45295412D01*
X214413618Y-45356293D01*
X214413608Y-45356298D01*
X214235784Y-45454999D01*
X214235783Y-45454999D01*
X214081469Y-45587472D01*
X214081468Y-45587473D01*
X213956981Y-45748298D01*
X213867411Y-45930900D01*
X213841754Y-46029994D01*
X214643889Y-46029994D01*
X214604390Y-46054451D01*
X214536799Y-46143956D01*
X214506105Y-46251834D01*
X214516454Y-46363515D01*
X214566448Y-46463916D01*
X214638931Y-46529994D01*
X213836634Y-46529994D01*
X212448246Y-46529994D01*
X211646111Y-46529994D01*
X211685610Y-46505537D01*
X211753201Y-46416032D01*
X211783895Y-46308154D01*
X211773546Y-46196473D01*
X211723552Y-46096072D01*
X211651069Y-46029994D01*
X212453366Y-46029994D01*
X212453068Y-46028047D01*
X212453066Y-46028041D01*
X212382437Y-45837336D01*
X212382434Y-45837329D01*
X212274850Y-45664726D01*
X212134735Y-45517325D01*
X212134733Y-45517324D01*
X211967804Y-45401137D01*
X211780907Y-45320934D01*
X211581690Y-45279994D01*
X211180000Y-45279994D01*
X211180000Y-45979994D01*
X210680000Y-45979994D01*
X210680000Y-45279994D01*
X210329287Y-45279994D01*
X210177661Y-45295412D01*
X209983618Y-45356293D01*
X209983608Y-45356298D01*
X209805784Y-45454999D01*
X209805783Y-45454999D01*
X209651469Y-45587472D01*
X209651468Y-45587473D01*
X209526981Y-45748298D01*
X209437411Y-45930900D01*
X209411754Y-46029994D01*
X210213889Y-46029994D01*
X210174390Y-46054451D01*
X210106799Y-46143956D01*
X210076105Y-46251834D01*
X210086454Y-46363515D01*
X210136448Y-46463916D01*
X210208931Y-46529994D01*
X209406634Y-46529994D01*
X174300000Y-46529994D01*
X174300000Y-44724000D01*
X174319685Y-44656961D01*
X174372489Y-44611206D01*
X174424000Y-44600000D01*
X218176000Y-44600000D01*
X218243039Y-44619685D01*
G37*
%TD.AperFunction*%
%TA.AperFunction,Conductor*%
G36*
X185165703Y-93175384D02*
G01*
X185172181Y-93181416D01*
X187113681Y-95122916D01*
X187147166Y-95184239D01*
X187150000Y-95210597D01*
X187150000Y-96164498D01*
X187042315Y-96115320D01*
X186935763Y-96100000D01*
X186864237Y-96100000D01*
X186757685Y-96115320D01*
X186650000Y-96164498D01*
X186650000Y-95269364D01*
X186649999Y-95269364D01*
X186436513Y-95326567D01*
X186436507Y-95326570D01*
X186222422Y-95426399D01*
X186222420Y-95426400D01*
X186028926Y-95561886D01*
X185906865Y-95683947D01*
X185845542Y-95717431D01*
X185775850Y-95712447D01*
X185719917Y-95670575D01*
X185703002Y-95639598D01*
X185697917Y-95625965D01*
X185653796Y-95507669D01*
X185653795Y-95507668D01*
X185653793Y-95507664D01*
X185567547Y-95392455D01*
X185567544Y-95392452D01*
X185452335Y-95306206D01*
X185452328Y-95306202D01*
X185317482Y-95255908D01*
X185317483Y-95255908D01*
X185257883Y-95249501D01*
X185257881Y-95249500D01*
X185257873Y-95249500D01*
X185257865Y-95249500D01*
X185084500Y-95249500D01*
X185017461Y-95229815D01*
X184971706Y-95177011D01*
X184960500Y-95125500D01*
X184960500Y-93269097D01*
X184980185Y-93202058D01*
X185032989Y-93156303D01*
X185102147Y-93146359D01*
X185165703Y-93175384D01*
G37*
%TD.AperFunction*%
%TD*%
M02*
